<svg width="2019" height="1839" viewBox="0 0 2019 1839" fill="none" xmlns="http://www.w3.org/2000/svg">
<path d="M2009.06 550.021L923.923 99.2325C892.555 86.2017 858.956 79.4087 825.045 79.241C791.133 79.0732 757.573 85.5339 726.281 98.2546C694.988 110.975 666.576 129.707 642.667 153.38C618.757 177.052 599.818 205.203 586.932 236.223L508.468 425.102C507.514 427.398 507.521 429.984 508.489 432.291C509.456 434.597 511.305 436.434 513.627 437.399L706.954 517.711C857.17 575.036 1011.41 621.159 1168.39 655.694C1395.41 704.874 1502.68 697.652 1556.9 698.964C1683.73 702.346 1932.71 630.562 2013.34 564.997L2014.46 562.303C2014.94 561.154 2015.18 559.92 2015.16 558.673C2015.15 557.427 2014.88 556.194 2014.38 555.047C2013.88 553.901 2013.15 552.866 2012.23 552.002C2011.32 551.139 2010.24 550.465 2009.06 550.021Z" fill="white"/>
<path d="M497.948 558.502C534.472 599.432 568.691 642.328 600.445 686.992C648.224 776.617 654.165 784.828 674.709 851.84C694.474 912.05 720.762 977.314 719.178 1074.87C752.004 1083.2 784.889 1091.22 813.261 1097.37C1016.6 1141.87 1112.9 1135.03 1161.47 1136.24C1275.14 1139.21 1498.29 1074.76 1570.64 1015.97L1574.84 1005.86L497.948 558.502Z" fill="white"/>
<path d="M548.04 1470.9C595.595 1245.02 586.918 1138.19 587.743 1084.18C589.76 957.94 514.513 709.631 447.325 628.986L444.609 627.83C443.478 627.346 442.261 627.097 441.034 627.1C439.806 627.102 438.594 627.356 437.473 627.845C436.353 628.334 435.347 629.048 434.52 629.942C433.692 630.836 433.061 631.891 432.665 633.042L109.309 1418.02C96.3787 1449.4 89.8225 1483.04 90.0144 1517.03C90.2062 1551.03 97.1423 1584.7 110.427 1616.13C123.711 1647.56 143.083 1676.13 167.437 1700.21C191.791 1724.29 220.65 1743.41 252.365 1756.47L437.108 1832.59C438.422 1833.11 439.828 1833.37 441.24 1833.34C442.652 1833.31 444.041 1833 445.323 1832.42C446.606 1831.84 447.755 1831.01 448.701 1829.98C449.647 1828.94 450.371 1827.73 450.829 1826.4C490.208 1709.94 522.667 1591.23 548.04 1470.9V1470.9Z" fill="white"/>
</svg>
