<svg width="135" height="43" viewBox="0 0 135 43" fill="none" xmlns="http://www.w3.org/2000/svg">
<path d="M2.11595 32.2614C0.705316 32.2614 0 31.5173 0 30.0293V10.0747C0 8.58661 0.705316 7.84259 2.11595 7.84259C3.52658 7.84259 4.23189 8.58661 4.23189 10.0747V10.9228C5.07827 9.88121 6.10803 9.06279 7.32117 8.46757C8.56253 7.87235 9.90263 7.57474 11.3415 7.57474C13.0342 7.57474 14.2897 7.87235 15.1079 8.46757C15.9542 9.03303 16.2787 9.71753 16.0812 10.5211C15.9401 11.146 15.658 11.5627 15.2348 11.771C14.8116 11.9496 14.3179 11.9794 13.7537 11.8603C11.948 11.4734 10.3258 11.4437 8.88697 11.771C7.44813 12.0984 6.30552 12.7085 5.45914 13.6013C4.64098 14.4941 4.23189 15.6251 4.23189 16.9941V30.0293C4.23189 31.5173 3.52658 32.2614 2.11595 32.2614Z" fill="url(#paint0_linear_818_365)"/>
<path d="M29.7624 32.4399C27.4208 32.4399 25.3331 31.9191 23.4992 30.8775C21.6936 29.8061 20.2689 28.3478 19.225 26.5026C18.2094 24.6277 17.7015 22.4849 17.7015 20.0743C17.7015 17.6339 18.1812 15.4911 19.1404 13.646C20.1278 11.771 21.482 10.3127 23.203 9.27111C24.924 8.19972 26.8989 7.66403 29.1277 7.66403C31.3282 7.66403 33.2185 8.18484 34.7984 9.22647C36.3783 10.2383 37.5773 11.652 38.3955 13.4674C39.2419 15.253 39.6651 17.3214 39.6651 19.6725C39.6651 20.238 39.4817 20.7142 39.1149 21.101C38.7482 21.4582 38.2826 21.6367 37.7184 21.6367H21.6372C21.9475 23.6902 22.8362 25.3717 24.3033 26.6812C25.7986 27.9609 27.6183 28.6008 29.7624 28.6008C30.637 28.6008 31.5257 28.4371 32.4285 28.1097C33.3595 27.7526 34.1072 27.3508 34.6714 26.9044C35.0946 26.577 35.546 26.4134 36.0256 26.4134C36.5335 26.3836 36.9708 26.5324 37.3375 26.8598C37.8171 27.3062 38.0711 27.7972 38.0993 28.3329C38.1275 28.8686 37.9018 29.3299 37.4222 29.7168C36.4629 30.5204 35.2639 31.1751 33.8251 31.681C32.4144 32.187 31.0602 32.4399 29.7624 32.4399ZM29.1277 11.5032C27.0399 11.5032 25.3613 12.1133 24.0917 13.3335C22.8221 14.5537 22.0181 16.131 21.6795 18.0654H35.7717C35.5178 16.1607 34.8266 14.5983 33.6981 13.3781C32.5696 12.1282 31.0461 11.5032 29.1277 11.5032Z" fill="url(#paint1_linear_818_365)"/>
<path d="M53.592 32.4399C51.6171 32.4399 49.7832 32.1274 48.0905 31.5025C46.4259 30.8477 45.1282 30.0293 44.1972 29.0472C43.774 28.571 43.5906 28.0353 43.647 27.4401C43.7316 26.8151 44.0138 26.3092 44.4934 25.9223C45.0576 25.4461 45.6078 25.2527 46.1438 25.342C46.7081 25.4015 47.1877 25.6545 47.5827 26.1009C48.0623 26.6663 48.824 27.202 49.8679 27.708C50.94 28.1841 52.1249 28.4222 53.4227 28.4222C55.059 28.4222 56.3004 28.1395 57.1468 27.574C58.0213 27.0086 58.4727 26.2794 58.5009 25.3866C58.5292 24.4938 58.1201 23.72 57.2737 23.0653C56.4555 22.4105 54.9462 21.8748 52.7456 21.4582C49.8961 20.863 47.8225 19.9701 46.5247 18.7797C45.2551 17.5893 44.6203 16.131 44.6203 14.4049C44.6203 12.8871 45.0435 11.6371 45.8899 10.655C46.7363 9.64312 47.8225 8.8991 49.1485 8.42293C50.4745 7.917 51.8569 7.66403 53.2957 7.66403C55.1578 7.66403 56.8082 7.97652 58.247 8.60149C59.6859 9.22647 60.8285 10.0895 61.6749 11.1907C62.0698 11.6669 62.2532 12.1728 62.225 12.7085C62.1968 13.2144 61.957 13.646 61.5056 14.0031C61.0542 14.3305 60.5182 14.4346 59.8975 14.3156C59.2768 14.1965 58.7549 13.9287 58.3317 13.512C57.6264 12.7978 56.8646 12.3067 56.0465 12.0389C55.2283 11.771 54.2832 11.6371 53.2111 11.6371C51.9697 11.6371 50.9118 11.8603 50.0372 12.3067C49.1908 12.7531 48.7676 13.4079 48.7676 14.2709C48.7676 14.8066 48.8946 15.2977 49.1485 15.7441C49.4306 16.1608 49.9666 16.5476 50.7566 16.9048C51.5465 17.2321 52.7033 17.5595 54.2267 17.8869C57.4148 18.5416 59.6153 19.4791 60.8285 20.6993C62.0698 21.8897 62.6905 23.3629 62.6905 25.1188C62.6905 26.4878 62.3379 27.7228 61.6325 28.824C60.9554 29.9251 59.9398 30.8031 58.5856 31.4578C57.2596 32.1126 55.5951 32.4399 53.592 32.4399Z" fill="url(#paint2_linear_818_365)"/>
<path d="M70.3066 42.7074C69.6859 42.7074 69.164 42.4842 68.7408 42.0378C68.3458 41.6212 68.1483 41.0855 68.1483 40.4307V20.0743C68.1766 17.7232 68.6985 15.6102 69.7141 13.7352C70.7298 11.8603 72.1122 10.3871 73.8614 9.31576C75.6106 8.2146 77.5855 7.66403 79.786 7.66403C82.0148 7.66403 84.0038 8.2146 85.753 9.31576C87.5022 10.3871 88.8846 11.8603 89.9003 13.7352C90.9441 15.6102 91.4661 17.7232 91.4661 20.0743C91.4661 22.4254 90.9865 24.5384 90.0272 26.4134C89.0962 28.2585 87.8125 29.7317 86.1762 30.8328C84.5399 31.9042 82.6919 32.4399 80.6324 32.4399C78.9679 32.4399 77.4303 32.0828 76.0197 31.3685C74.6372 30.6245 73.4523 29.6275 72.4649 28.3776V40.4307C72.4649 41.0855 72.2674 41.6212 71.8724 42.0378C71.4774 42.4842 70.9555 42.7074 70.3066 42.7074ZM79.786 28.4222C81.2249 28.4222 82.5086 28.0651 83.6371 27.3508C84.7656 26.6068 85.6543 25.6098 86.3032 24.3599C86.9803 23.0801 87.3188 21.6516 87.3188 20.0743C87.3188 18.4672 86.9803 17.0387 86.3032 15.7887C85.6543 14.509 84.7656 13.512 83.6371 12.7978C82.5086 12.0538 81.2249 11.6817 79.786 11.6817C78.3754 11.6817 77.0917 12.0538 75.935 12.7978C74.8065 13.512 73.9178 14.509 73.2689 15.7887C72.62 17.0387 72.2956 18.4672 72.2956 20.0743C72.2956 21.6516 72.62 23.0801 73.2689 24.3599C73.9178 25.6098 74.8065 26.6068 75.935 27.3508C77.0917 28.0651 78.3754 28.4222 79.786 28.4222Z" fill="url(#paint3_linear_818_365)"/>
<path d="M108.399 32.4399C106.142 32.4399 104.125 31.9042 102.347 30.8328C100.598 29.7317 99.2157 28.2585 98.2001 26.4134C97.2126 24.5384 96.7189 22.4254 96.7189 20.0743C96.7189 17.6637 97.2126 15.5209 98.2001 13.646C99.1875 11.771 100.542 10.3127 102.263 9.27111C103.984 8.19972 105.959 7.66403 108.187 7.66403C111.516 7.66403 114.281 9.00327 116.482 11.6817C116.877 12.1579 117.018 12.649 116.905 13.1549C116.792 13.6608 116.482 14.1073 115.974 14.4941C115.579 14.7917 115.142 14.8959 114.662 14.8066C114.183 14.6876 113.745 14.4197 113.35 14.0031C111.968 12.4555 110.247 11.6817 108.187 11.6817C106.015 11.6817 104.252 12.4555 102.897 14.0031C101.543 15.5209 100.866 17.5446 100.866 20.0743C100.866 21.6814 101.176 23.1099 101.797 24.3599C102.446 25.6098 103.335 26.6068 104.463 27.3508C105.592 28.0651 106.904 28.4222 108.399 28.4222C110.317 28.4222 111.869 27.9014 113.054 26.8598C113.505 26.4729 113.971 26.2646 114.451 26.2348C114.93 26.1753 115.353 26.3092 115.72 26.6366C116.2 27.0532 116.468 27.5294 116.524 28.0651C116.581 28.571 116.411 29.0323 116.016 29.449C113.985 31.4429 111.446 32.4399 108.399 32.4399Z" fill="url(#paint4_linear_818_365)"/>
<path d="M131.741 32.2614C130.331 32.2614 129.061 31.8894 127.933 31.1453C126.804 30.3716 125.916 29.3299 125.267 28.0204C124.618 26.711 124.293 25.2378 124.293 23.601V12.5746H122.347C121.754 12.5746 121.275 12.396 120.908 12.0389C120.541 11.6817 120.358 11.2353 120.358 10.6996C120.358 10.1044 120.541 9.62824 120.908 9.27111C121.275 8.91398 121.754 8.73542 122.347 8.73542H124.293V2.30708C124.293 1.65234 124.491 1.11664 124.886 0.69999C125.281 0.283338 125.789 0.0750122 126.409 0.0750122C127.03 0.0750122 127.538 0.283338 127.933 0.69999C128.328 1.11664 128.525 1.65234 128.525 2.30708V8.73542H132.122C132.715 8.73542 133.194 8.91398 133.561 9.27111C133.928 9.62824 134.111 10.1044 134.111 10.6996C134.111 11.2353 133.928 11.6817 133.561 12.0389C133.194 12.396 132.715 12.5746 132.122 12.5746H128.525V23.601C128.525 24.7914 128.836 25.7884 129.456 26.5919C130.077 27.3955 130.839 27.7972 131.741 27.7972H133.18C133.688 27.7972 134.111 28.0056 134.45 28.4222C134.817 28.8389 135 29.3746 135 30.0293C135 30.684 134.76 31.2197 134.281 31.6364C133.829 32.053 133.237 32.2614 132.503 32.2614H131.741Z" fill="url(#paint5_linear_818_365)"/>
<defs>
<linearGradient id="paint0_linear_818_365" x1="6.31295" y1="3.97354" x2="156.34" y2="41.7595" gradientUnits="userSpaceOnUse">
<stop stop-color="#03AFD0"/>
<stop offset="0.589836" stop-color="#812DC1"/>
<stop offset="1" stop-color="#56109D"/>
</linearGradient>
<linearGradient id="paint1_linear_818_365" x1="6.31295" y1="3.97354" x2="156.34" y2="41.7595" gradientUnits="userSpaceOnUse">
<stop stop-color="#03AFD0"/>
<stop offset="0.589836" stop-color="#812DC1"/>
<stop offset="1" stop-color="#56109D"/>
</linearGradient>
<linearGradient id="paint2_linear_818_365" x1="6.31295" y1="3.97354" x2="156.34" y2="41.7595" gradientUnits="userSpaceOnUse">
<stop stop-color="#03AFD0"/>
<stop offset="0.589836" stop-color="#812DC1"/>
<stop offset="1" stop-color="#56109D"/>
</linearGradient>
<linearGradient id="paint3_linear_818_365" x1="6.31295" y1="3.97354" x2="156.34" y2="41.7595" gradientUnits="userSpaceOnUse">
<stop stop-color="#03AFD0"/>
<stop offset="0.589836" stop-color="#812DC1"/>
<stop offset="1" stop-color="#56109D"/>
</linearGradient>
<linearGradient id="paint4_linear_818_365" x1="6.31295" y1="3.97354" x2="156.34" y2="41.7595" gradientUnits="userSpaceOnUse">
<stop stop-color="#03AFD0"/>
<stop offset="0.589836" stop-color="#812DC1"/>
<stop offset="1" stop-color="#56109D"/>
</linearGradient>
<linearGradient id="paint5_linear_818_365" x1="6.31295" y1="3.97354" x2="156.34" y2="41.7595" gradientUnits="userSpaceOnUse">
<stop stop-color="#03AFD0"/>
<stop offset="0.589836" stop-color="#812DC1"/>
<stop offset="1" stop-color="#56109D"/>
</linearGradient>
</defs>
</svg>
