<svg width="148" height="165" viewBox="0 0 148 165" fill="none" xmlns="http://www.w3.org/2000/svg">
	<path
		d="M76.1548 47.4C84.3148 47.4 90.8348 49.64 95.7148 54.12C100.675 58.6 103.155 64.72 103.155 72.48C103.155 80.56 100.595 86.64 95.4748 90.72C90.3548 94.8 83.5548 96.84 75.0748 96.84L74.5948 106.32H62.7148L62.1148 87.48H66.0748C73.8348 87.48 79.7548 86.44 83.8348 84.36C87.9948 82.28 90.0748 78.32 90.0748 72.48C90.0748 68.24 88.8348 64.92 86.3548 62.52C83.9548 60.12 80.5948 58.92 76.2748 58.92C71.9548 58.92 68.5548 60.08 66.0748 62.4C63.5948 64.72 62.3548 67.96 62.3548 72.12H49.5148C49.5148 67.32 50.5948 63.04 52.7548 59.28C54.9148 55.52 57.9948 52.6 61.9948 50.52C66.0748 48.44 70.7948 47.4 76.1548 47.4ZM68.4748 132.84C65.9948 132.84 63.9148 132 62.2348 130.32C60.5548 128.64 59.7148 126.56 59.7148 124.08C59.7148 121.6 60.5548 119.52 62.2348 117.84C63.9148 116.16 65.9948 115.32 68.4748 115.32C70.8748 115.32 72.9148 116.16 74.5948 117.84C76.2748 119.52 77.1148 121.6 77.1148 124.08C77.1148 126.56 76.2748 128.64 74.5948 130.32C72.9148 132 70.8748 132.84 68.4748 132.84Z"
		fill="#4ED4FD" />
	<circle cx="74" cy="91" r="72.5" stroke="#4ED4FD" stroke-width="3" />
	<circle cx="74.5" cy="90.5" r="59" stroke="#4ED4FD" stroke-width="3" />
</svg>