<svg width="814" height="335" viewBox="0 0 814 335" fill="none" xmlns="http://www.w3.org/2000/svg">
    <path d="M192.194 4.99998V67.4H79.3938V117H162.594V176.6H79.3938V287H0.993751V4.99998H192.194ZM403.613 241H303.613L288.413 287H206.013L308.813 4.99998H399.213L501.613 287H418.813L403.613 241ZM384.013 181L353.613 89.8L323.613 181H384.013ZM720.366 334.2L689.166 287.4C680.366 289 671.432 289.8 662.366 289.8C635.966 289.8 611.699 283.667 589.566 271.4C567.432 258.867 549.832 241.667 536.766 219.8C523.966 197.667 517.566 172.733 517.566 145C517.566 117.267 523.966 92.4667 536.766 70.6C549.832 48.4667 567.432 31.2667 589.566 19C611.699 6.73333 635.966 0.599992 662.366 0.599992C689.032 0.599992 713.299 6.73333 735.166 19C757.299 31.2667 774.766 48.4667 787.566 70.6C800.366 92.4667 806.766 117.267 806.766 145C806.766 168.2 802.099 189.667 792.766 209.4C783.432 228.867 770.632 245.133 754.366 258.2L813.966 334.2H720.366ZM597.566 145C597.566 167.133 603.299 184.733 614.766 197.8C626.232 210.6 642.099 217 662.366 217C682.366 217 698.099 210.467 709.566 197.4C721.299 184.333 727.166 166.867 727.166 145C727.166 122.6 721.299 105 709.566 92.2C698.099 79.1333 682.366 72.6 662.366 72.6C642.099 72.6 626.232 79.1333 614.766 92.2C603.299 105 597.566 122.6 597.566 145Z" fill="url(#paint0_linear_1759_8720)"/>
    <defs>
    <linearGradient id="paint0_linear_1759_8720" x1="388" y1="-153" x2="388" y2="277" gradientUnits="userSpaceOnUse">
    <stop stop-color="#6441A5" stop-opacity="0.01"/>
    <stop offset="0.9999" stop-color="#361D64" stop-opacity="0.963906"/>
    <stop offset="1" stop-color="#351C62"/>
    </linearGradient>
    </defs>
    </svg>
    