<svg width="584" height="92" viewBox="0 0 584 92" fill="none" xmlns="http://www.w3.org/2000/svg">
    <path d="M66.7975 28.536L65.9196 29.0148L66.2039 29.536H66.7975V28.536ZM22.1255 30.84L21.238 30.3792L22.1255 30.84ZM22.1255 61.816L21.238 62.2768L21.2415 62.2835L21.245 62.2901L22.1255 61.816ZM31.9815 72.056L31.4854 72.9242L31.9815 72.056ZM63.3415 70.264L63.9773 71.036L63.9861 71.0285L63.3415 70.264ZM71.9175 55.032L72.8961 55.238L73.15 54.032H71.9175V55.032ZM41.1975 55.032H40.1975V56.032H41.1975V55.032ZM41.1975 41.336V40.336H40.1975V41.336H41.1975ZM89.5815 41.336H90.5815V40.336H89.5815V41.336ZM89.5815 56.952L90.5636 57.1403L90.5815 57.047V56.952H89.5815ZM81.9015 74.232L81.0984 73.6362L81.9015 74.232ZM66.6695 87.032L67.1266 87.9214L67.1312 87.919L66.6695 87.032ZM22.5095 86.008L22.0157 86.8776L22.022 86.8812L22.0284 86.8847L22.5095 86.008ZM6.12551 69.752L5.25591 70.2458L5.26057 70.2539L6.12551 69.752ZM6.12551 22.648L5.25791 22.1507L5.25595 22.1542L6.12551 22.648ZM22.5095 6.392L22.9952 7.26616L22.9988 7.26414L22.5095 6.392ZM72.0455 7.92799L71.4908 8.76007L71.4975 8.76445L72.0455 7.92799ZM87.4055 28.536V29.536H88.7719L88.3587 28.2335L87.4055 28.536ZM67.6754 28.0571C65.5402 24.1427 62.5898 21.1419 58.8298 19.0829L57.8692 20.8371C61.2772 22.7034 63.9588 25.42 65.9196 29.0148L67.6754 28.0571ZM58.8298 19.0829C55.0754 17.0269 50.7235 16.016 45.8055 16.016V18.016C50.4449 18.016 54.4556 18.9678 57.8692 20.8371L58.8298 19.0829ZM45.8055 16.016C40.3588 16.016 35.4877 17.2477 31.2216 19.7362L32.2294 21.4638C36.1553 19.1737 40.6709 18.016 45.8055 18.016V16.016ZM31.2216 19.7362C26.9531 22.2262 23.6242 25.7835 21.238 30.3792L23.013 31.3008C25.2348 27.0218 28.3059 23.7525 32.2294 21.4638L31.2216 19.7362ZM21.238 30.3792C18.849 34.9802 17.6695 40.2628 17.6695 46.2H19.6695C19.6695 40.5319 20.794 35.5745 23.013 31.3008L21.238 30.3792ZM17.6695 46.2C17.6695 52.3027 18.847 57.6719 21.238 62.2768L23.013 61.3552C20.796 57.0854 19.6695 52.044 19.6695 46.2H17.6695ZM21.245 62.2901C23.7188 66.8842 27.1338 70.4376 31.4854 72.9242L32.4776 71.1878C28.4665 68.8957 25.3109 65.6225 23.006 61.3419L21.245 62.2901ZM31.4854 72.9242C35.8394 75.4123 40.8796 76.64 46.5735 76.64V74.64C41.1741 74.64 36.4862 73.4784 32.4776 71.1878L31.4854 72.9242ZM46.5735 76.64C53.5814 76.64 59.4106 74.7967 63.9772 71.0359L62.7058 69.4921C58.5685 72.8993 53.219 74.64 46.5735 74.64V76.64ZM63.9861 71.0285C68.5357 67.1926 71.4927 61.9041 72.8961 55.238L70.939 54.826C69.6117 61.1305 66.8514 65.9967 62.6969 69.4995L63.9861 71.0285ZM71.9175 54.032H41.1975V56.032H71.9175V54.032ZM42.1975 55.032V41.336H40.1975V55.032H42.1975ZM41.1975 42.336H89.5815V40.336H41.1975V42.336ZM88.5815 41.336V56.952H90.5815V41.336H88.5815ZM88.5994 56.7637C87.4341 62.8397 84.9378 68.4614 81.0984 73.6362L82.7046 74.8278C86.7159 69.4213 89.3395 63.523 90.5636 57.1403L88.5994 56.7637ZM81.0984 73.6362C77.2692 78.7972 72.3118 82.9675 66.2078 86.145L67.1312 87.919C73.4859 84.6111 78.6831 80.2481 82.7046 74.8278L81.0984 73.6362ZM66.2124 86.1426C60.2251 89.2194 53.4726 90.768 45.9335 90.768V92.768C53.7545 92.768 60.826 91.1592 67.1266 87.9214L66.2124 86.1426ZM45.9335 90.768C37.4692 90.768 29.8289 88.884 22.9906 85.1313L22.0284 86.8847C29.1848 90.812 37.1605 92.768 45.9335 92.768V90.768ZM23.0033 85.1384C16.2463 81.3011 10.9127 76.0097 6.99045 69.2501L5.26057 70.2539C9.35967 77.3183 14.9487 82.8642 22.0157 86.8776L23.0033 85.1384ZM6.99507 69.2582C3.16403 62.5122 1.23751 54.835 1.23751 46.2H-0.762493C-0.762493 55.1437 1.23631 63.1678 5.25595 70.2458L6.99507 69.2582ZM1.23751 46.2C1.23751 37.565 3.16403 29.8878 6.99507 23.1418L5.25595 22.1542C1.23631 29.2322 -0.762493 37.2563 -0.762493 46.2H1.23751ZM6.9931 23.1453C10.9151 16.3027 16.2457 11.0158 22.9952 7.26616L22.0239 5.51784C14.9493 9.44817 9.35728 14.9986 5.25792 22.1507L6.9931 23.1453ZM22.9988 7.26414C29.8371 3.42798 37.4323 1.504 45.8055 1.504V-0.496002C37.1121 -0.496002 29.1766 1.50534 22.0203 5.51986L22.9988 7.26414ZM45.8055 1.504C55.7037 1.504 64.2516 3.93393 71.4908 8.76004L72.6002 7.09594C64.9914 2.0234 56.046 -0.496002 45.8055 -0.496002V1.504ZM71.4975 8.76445C78.7191 13.4958 83.7022 20.1715 86.4523 28.8384L88.3587 28.2335C85.4768 19.1512 80.22 12.0882 72.5935 7.09153L71.4975 8.76445ZM87.4055 27.536H66.7975V29.536H87.4055V27.536ZM193.464 73.976L194.409 73.6491L194.176 72.976H193.464V73.976ZM157.88 73.976V72.976H157.167L156.934 73.6491L157.88 73.976ZM151.992 91V92H152.704L152.937 91.3269L151.992 91ZM133.176 91L132.234 90.662L131.754 92H133.176V91ZM165.303 1.52799V0.527992H164.6L164.362 1.19004L165.303 1.52799ZM186.168 1.52799L187.109 1.19004L186.871 0.527992H186.168V1.52799ZM218.296 91V92H219.717L219.237 90.662L218.296 91ZM199.352 91L198.406 91.3269L198.639 92H199.352V91ZM188.6 59.64V60.64H190.004L189.545 59.3131L188.6 59.64ZM175.672 22.264L176.617 21.9371L175.672 19.2049L174.726 21.9371L175.672 22.264ZM162.743 59.64L161.798 59.3131L161.339 60.64H162.743V59.64ZM193.464 72.976H157.88V74.976H193.464V72.976ZM156.934 73.6491L151.046 90.6731L152.937 91.3269L158.825 74.3029L156.934 73.6491ZM151.992 90H133.176V92H151.992V90ZM134.117 91.338L166.245 1.86595L164.362 1.19004L132.234 90.662L134.117 91.338ZM165.303 2.52799H186.168V0.527992H165.303V2.52799ZM185.226 1.86595L217.354 91.338L219.237 90.662L187.109 1.19004L185.226 1.86595ZM218.296 90H199.352V92H218.296V90ZM200.297 90.6731L194.409 73.6491L192.518 74.3029L198.406 91.3269L200.297 90.6731ZM189.545 59.3131L176.617 21.9371L174.726 22.5909L187.654 59.9669L189.545 59.3131ZM174.726 21.9371L161.798 59.3131L163.689 59.9669L176.617 22.5909L174.726 21.9371ZM162.743 60.64H188.6V58.64H162.743V60.64ZM363.552 1.656H364.552V0.655998H363.552V1.656ZM363.552 91V92H364.552V91H363.552ZM345.633 91H344.633V92H345.633V91ZM345.633 32.888H346.633L344.708 32.5071L345.633 32.888ZM321.697 91V92H322.366L322.621 91.3809L321.697 91ZM308.129 91L307.205 91.3826L307.46 92H308.129V91ZM284.065 32.888L284.988 32.5054L283.065 32.888H284.065ZM284.065 91V92H285.065V91H284.065ZM266.145 91H265.145V92H266.145V91ZM266.145 1.656V0.655998H265.145V1.656H266.145ZM286.496 1.656L287.416 1.26272L287.156 0.655998H286.496V1.656ZM314.913 68.088L313.993 68.4813L314.913 70.6307L315.832 68.4813L314.913 68.088ZM343.328 1.656V0.655998H342.669L342.409 1.26272L343.328 1.656ZM362.552 1.656V91H364.552V1.656H362.552ZM363.552 90H345.633V92H363.552V90ZM346.633 91V32.888H344.633V91H346.633ZM344.708 32.5071L320.772 90.6191L322.621 91.3809L346.557 33.2688L344.708 32.5071ZM321.697 90H308.129V92H321.697V90ZM309.052 90.6174L284.988 32.5054L283.141 33.2706L307.205 91.3826L309.052 90.6174ZM283.065 32.888V91H285.065V32.888H283.065ZM284.065 90H266.145V92H284.065V90ZM267.145 91V1.656H265.145V91H267.145ZM266.145 2.656H286.496V0.655998H266.145V2.656ZM285.577 2.04927L313.993 68.4813L315.832 67.6947L287.416 1.26272L285.577 2.04927ZM315.832 68.4813L344.248 2.04927L342.409 1.26272L313.993 67.6947L315.832 68.4813ZM343.328 2.656H363.552V0.655998H343.328V2.656ZM435.03 16.12V15.12H434.03V16.12H435.03ZM435.03 38.52H434.03V39.52H435.03V38.52ZM465.109 38.52H466.109V37.52H465.109V38.52ZM465.109 52.728V53.728H466.109V52.728H465.109ZM435.03 52.728V51.728H434.03V52.728H435.03ZM435.03 76.408H434.03V77.408H435.03V76.408ZM468.949 76.408H469.949V75.408H468.949V76.408ZM468.949 91V92H469.949V91H468.949ZM417.109 91H416.109V92H417.109V91ZM417.109 1.52799V0.527992H416.109V1.52799H417.109ZM468.949 1.52799H469.949V0.527992H468.949V1.52799ZM468.949 16.12V17.12H469.949V16.12H468.949ZM434.03 16.12V38.52H436.03V16.12H434.03ZM435.03 39.52H465.109V37.52H435.03V39.52ZM464.109 38.52V52.728H466.109V38.52H464.109ZM465.109 51.728H435.03V53.728H465.109V51.728ZM434.03 52.728V76.408H436.03V52.728H434.03ZM435.03 77.408H468.949V75.408H435.03V77.408ZM467.949 76.408V91H469.949V76.408H467.949ZM468.949 90H417.109V92H468.949V90ZM418.109 91V1.52799H416.109V91H418.109ZM417.109 2.52799H468.949V0.527992H417.109V2.52799ZM467.949 1.52799V16.12H469.949V1.52799H467.949ZM468.949 15.12H435.03V17.12H468.949V15.12ZM535.026 88.696L534.631 89.6143L534.636 89.6168L535.026 88.696ZM523.25 79.48L522.44 80.0661L523.25 79.48ZM518.771 65.272V64.272H517.755L517.771 65.2876L518.771 65.272ZM537.971 65.272L538.968 65.2024L538.903 64.272H537.971V65.272ZM541.81 73.976L541.131 74.7098L541.138 74.7159L541.144 74.7219L541.81 73.976ZM561.394 74.232L562.029 75.0047L562.037 74.9981L562.045 74.9913L561.394 74.232ZM562.547 59.768L561.821 60.4567L562.547 59.768ZM556.402 55.8L556.009 56.7191L556.028 56.7275L556.048 56.735L556.402 55.8ZM546.419 52.472L546.136 53.4314L546.149 53.435L546.419 52.472ZM532.211 47.48L531.781 48.3829L531.793 48.389L531.806 48.3947L532.211 47.48ZM522.867 39.928L522.066 40.528L522.075 40.5392L522.084 40.5502L522.867 39.928ZM522.995 12.536L523.824 13.0948L522.995 12.536ZM534.13 3.576L534.524 4.49514L534.531 4.49219L534.538 4.48914L534.13 3.576ZM572.914 7.16L572.294 7.94428L572.301 7.94937L572.307 7.95435L572.914 7.16ZM582.515 25.848V26.848H583.592L583.512 25.7737L582.515 25.848ZM562.802 25.848L561.804 25.9035L561.857 26.848H562.802V25.848ZM558.834 18.296L558.184 19.0553L558.198 19.0677L558.213 19.0795L558.834 18.296ZM540.786 17.912L540.143 17.1463L540.136 17.1528L540.128 17.1594L540.786 17.912ZM540.018 31.736L539.293 32.4237L539.311 32.4434L539.331 32.4619L540.018 31.736ZM545.906 35.576L545.5 36.4898L545.52 36.4987L545.541 36.5067L545.906 35.576ZM555.891 38.904L555.603 39.8618L555.608 39.8634L555.891 38.904ZM579.57 51.704L578.78 52.3166V52.3166L579.57 51.704ZM579.826 78.456L578.971 77.9389V77.9389L579.826 78.456ZM568.946 88.312L569.394 89.2064L569.4 89.2033L569.406 89.2L568.946 88.312ZM551.922 90.896C545.809 90.896 540.312 89.8495 535.417 87.7752L534.636 89.6168C539.81 91.8092 545.578 92.896 551.922 92.896V90.896ZM535.422 87.7777C530.623 85.7092 526.847 82.7456 524.061 78.8939L522.44 80.0661C525.457 84.2357 529.531 87.4162 534.631 89.6143L535.422 87.7777ZM524.061 78.8939C521.292 75.0665 519.853 70.5348 519.77 65.2564L517.771 65.2876C517.859 70.9319 519.406 75.8721 522.44 80.0661L524.061 78.8939ZM518.771 66.272H537.971V64.272H518.771V66.272ZM536.973 65.3416C537.243 69.2183 538.609 72.3743 541.131 74.7098L542.49 73.2422C540.404 71.311 539.21 68.6644 538.968 65.2024L536.973 65.3416ZM541.144 74.7219C543.764 77.0605 547.267 78.176 551.539 78.176V76.176C547.618 76.176 544.636 75.1582 542.477 73.2301L541.144 74.7219ZM551.539 78.176C555.87 78.176 559.407 77.1589 562.029 75.0047L560.76 73.4593C558.604 75.2305 555.57 76.176 551.539 76.176V78.176ZM562.045 74.9913C564.664 72.7467 565.979 69.8204 565.979 66.296H563.979C563.979 69.2569 562.904 71.6213 560.744 73.4727L562.045 74.9913ZM565.979 66.296C565.979 63.4287 565.092 60.9953 563.271 59.0792L561.821 60.4567C563.244 61.9541 563.979 63.8726 563.979 66.296H565.979ZM563.271 59.0792C561.535 57.2509 559.355 55.8502 556.757 54.865L556.048 56.735C558.4 57.6271 560.316 58.8718 561.821 60.4567L563.271 59.0792ZM556.796 54.8809C554.348 53.8317 550.972 52.7086 546.688 51.509L546.149 53.435C550.398 54.6248 553.678 55.7203 556.009 56.7191L556.796 54.8809ZM546.701 51.5126C540.921 49.8127 536.23 48.1627 532.615 46.5653L531.806 48.3947C535.53 50.0399 540.311 51.7179 546.136 53.4314L546.701 51.5126ZM532.64 46.5771C529.203 44.9405 526.207 42.5232 523.649 39.3058L522.084 40.5502C524.817 43.9888 528.049 46.6062 531.781 48.3829L532.64 46.5771ZM523.667 39.328C521.272 36.1358 520.026 31.8446 520.026 26.36H518.026C518.026 32.1394 519.341 36.8935 522.066 40.528L523.667 39.328ZM520.026 26.36C520.026 21.2441 521.303 16.836 523.824 13.0948L522.165 11.9771C519.396 16.0867 518.026 20.8945 518.026 26.36H520.026ZM523.824 13.0948C526.351 9.34451 529.904 6.47513 534.524 4.49514L533.737 2.65685C528.799 4.77286 524.928 7.87682 522.165 11.9771L523.824 13.0948ZM534.538 4.48914C539.168 2.42217 544.487 1.376 550.515 1.376V-0.624001C544.254 -0.624001 538.65 0.463161 533.723 2.66286L534.538 4.48914ZM550.515 1.376C559.566 1.376 566.796 3.59476 572.294 7.94428L573.535 6.37571C567.599 1.6799 559.895 -0.624001 550.515 -0.624001V1.376ZM572.307 7.95435C577.859 12.1996 580.939 18.1534 581.517 25.9223L583.512 25.7737C582.896 17.5 579.576 10.9951 573.522 6.36564L572.307 7.95435ZM582.515 24.848H562.802V26.848H582.515V24.848ZM563.801 25.7925C563.614 22.4266 562.148 19.6474 559.456 17.5125L558.213 19.0795C560.471 20.8699 561.65 23.1254 561.804 25.9035L563.801 25.7925ZM559.485 17.5367C556.87 15.2946 553.417 14.224 549.234 14.224V16.224C553.074 16.224 556.021 17.2014 558.184 19.0553L559.485 17.5367ZM549.234 14.224C545.562 14.224 542.499 15.1674 540.143 17.1463L541.43 18.6777C543.341 17.0726 545.909 16.224 549.234 16.224V14.224ZM540.128 17.1594C537.81 19.1878 536.714 22.0974 536.714 25.72H538.714C538.714 22.516 539.667 20.2202 541.445 18.6646L540.128 17.1594ZM536.714 25.72C536.714 28.3456 537.568 30.6029 539.293 32.4237L540.744 31.0483C539.397 29.6264 538.714 27.8731 538.714 25.72H536.714ZM539.331 32.4619C541.044 34.0855 543.106 35.4255 545.5 36.4898L546.313 34.6622C544.099 33.6785 542.235 32.4585 540.706 31.01L539.331 32.4619ZM545.541 36.5067C547.968 37.4602 551.326 38.5787 555.603 39.8618L556.178 37.9462C551.922 36.6693 548.624 35.5691 546.272 34.6452L545.541 36.5067ZM555.608 39.8634C561.384 41.5621 566.069 43.2526 569.677 44.9307L570.52 43.1173C566.79 41.3821 562.002 39.6592 556.173 37.9446L555.608 39.8634ZM569.677 44.9307C573.192 46.5657 576.226 49.0206 578.78 52.3166L580.361 51.0914C577.625 47.5607 574.344 44.8957 570.52 43.1173L569.677 44.9307ZM578.78 52.3166C581.255 55.5101 582.539 59.7554 582.539 65.144H584.539C584.539 59.4393 583.177 54.7245 580.361 51.0914L578.78 52.3166ZM582.539 65.144C582.539 69.7401 581.351 73.9987 578.971 77.9389L580.682 78.9731C583.251 74.7213 584.539 70.1052 584.539 65.144H582.539ZM578.971 77.9389C576.603 81.8581 573.123 85.0233 568.487 87.424L569.406 89.2C574.328 86.6514 578.101 83.2459 580.682 78.9731L578.971 77.9389ZM568.499 87.4176C563.888 89.7233 558.373 90.896 551.922 90.896V92.896C558.613 92.896 564.448 91.6793 569.394 89.2064L568.499 87.4176Z" fill="#7751BF"/>
    </svg>
    