<svg width="1091" height="185" viewBox="0 0 1091 185" fill="none" xmlns="http://www.w3.org/2000/svg">
	<path
		d="M0.710591 91.3366C0.750913 73.8366 4.28681 58.2614 11.3183 44.6109C18.5164 30.9608 28.7074 20.4009 41.8914 12.9312C55.0757 5.29492 70.5844 1.49731 88.4177 1.5384C103.751 1.57373 117.411 4.52188 129.397 10.3829C141.551 16.0775 151.366 24.1835 158.842 34.7008C166.484 45.2184 171.539 57.4801 174.007 71.4858L115.507 71.351C112.854 65.5115 109.031 61.0027 104.038 57.8245C99.2124 54.4801 93.633 52.8005 87.2996 52.786C77.9663 52.7645 70.5416 56.2474 65.0255 63.2347C59.6761 70.2224 56.9877 79.6329 56.9604 91.4662C56.9332 103.299 59.5781 112.722 64.8953 119.735C70.3792 126.747 77.7878 130.264 87.1211 130.286C93.4544 130.3 99.0414 128.73 103.882 125.574C108.89 122.253 112.734 117.678 115.414 111.851L173.913 111.986C171.381 125.98 166.27 138.218 158.579 148.7C151.055 159.183 141.203 167.327 129.022 173.132C117.009 178.771 103.336 181.573 88.003 181.538C70.1697 181.497 54.6784 177.711 41.529 170.181C28.3801 162.484 18.238 151.794 11.1028 138.111C4.13435 124.428 0.67027 108.837 0.710591 91.3366ZM334.984 182.607C318.317 182.569 302.993 178.617 289.011 170.751C275.196 162.886 264.221 152.027 256.086 138.175C247.951 124.323 243.904 108.73 243.944 91.397C243.983 74.0637 248.103 58.4898 256.301 44.6753C264.5 30.8609 275.524 20.1362 289.375 12.5015C303.393 4.7004 318.736 0.819077 335.402 0.857479C352.069 0.895881 367.31 4.84767 381.125 12.7129C394.941 20.4114 405.833 31.1865 413.801 45.0382C421.936 58.8903 425.983 74.483 425.943 91.8163C425.903 109.15 421.784 124.724 413.585 138.538C405.553 152.353 394.529 163.161 380.511 170.962C366.659 178.763 351.484 182.645 334.984 182.607ZM335.103 130.857C346.103 130.882 354.611 127.402 360.627 120.416C366.643 113.263 369.666 103.687 369.693 91.6867C369.721 79.5201 366.743 69.9299 360.759 62.9161C354.776 55.7356 346.284 52.1327 335.284 52.1073C324.118 52.0816 315.526 55.6452 309.51 62.798C303.493 69.7841 300.471 79.3605 300.443 91.5272C300.416 103.527 303.394 113.117 309.377 120.298C315.361 127.312 323.936 130.831 335.103 130.857ZM679.416 4.65014L619.508 181.513L547.759 181.347L488.667 4.21063L547.666 4.34657L583.886 126.18L620.416 4.5142L679.416 4.65014ZM802.238 49.1832L802.187 70.9332L857.187 71.0599L857.091 112.81L802.091 112.683L802.034 137.683L864.533 137.827L864.432 182.077L746.432 181.805L746.84 4.80549L864.839 5.07737L864.737 49.3273L802.238 49.1832ZM1029.35 182.457L996.243 118.88L995.993 118.88L995.847 182.38L940.347 182.252L940.755 5.25229L1023.25 5.44238C1037.59 5.47541 1049.83 8.08695 1059.99 13.277C1070.14 18.3004 1077.71 25.2346 1082.69 34.0794C1087.84 42.7579 1090.4 52.5972 1090.37 63.5972C1090.34 75.4305 1086.99 85.9228 1080.3 95.074C1073.78 104.226 1064.35 110.787 1052 114.759L1090.35 182.597L1029.35 182.457ZM996.079 81.88L1018.08 81.9307C1023.41 81.9429 1027.41 80.7855 1030.09 78.4583C1032.76 75.9645 1034.1 72.1342 1034.11 66.9676C1034.12 62.3009 1032.72 58.631 1029.89 55.9578C1027.23 53.285 1023.31 51.9426 1018.15 51.9307L996.148 51.88L996.079 81.88Z"
		fill="#1A1C20" />
	<path
		d="M11.3183 44.6109L8.66464 43.2115C8.66015 43.22 8.65571 43.2285 8.65131 43.2371L11.3183 44.6109ZM41.8914 12.9312L43.3702 15.5414C43.3785 15.5367 43.3867 15.532 43.395 15.5272L41.8914 12.9312ZM129.397 10.3829L128.08 13.0779C128.095 13.0852 128.11 13.0924 128.125 13.0994L129.397 10.3829ZM158.842 34.7008L156.396 36.4388C156.402 36.4473 156.408 36.4558 156.415 36.4643L158.842 34.7008ZM174.007 71.4858L174 74.4858C174.888 74.4878 175.731 74.0964 176.303 73.417C176.874 72.7375 177.115 71.8397 176.961 70.9652L174.007 71.4858ZM115.507 71.351L112.776 72.592C113.261 73.6609 114.326 74.3483 115.5 74.351L115.507 71.351ZM104.038 57.8245L102.329 60.2903C102.361 60.3126 102.394 60.3343 102.427 60.3553L104.038 57.8245ZM65.0255 63.2347L62.6708 61.3758C62.6616 61.3875 62.6525 61.3992 62.6434 61.411L65.0255 63.2347ZM64.8953 119.735L62.5048 121.547C62.5138 121.559 62.5229 121.571 62.5321 121.583L64.8953 119.735ZM103.882 125.574L105.52 128.088C105.527 128.083 105.534 128.079 105.54 128.074L103.882 125.574ZM115.414 111.851L115.421 108.851C114.246 108.848 113.179 109.531 112.688 110.597L115.414 111.851ZM173.913 111.986L176.866 112.52C177.024 111.646 176.787 110.747 176.218 110.065C175.65 109.383 174.808 108.988 173.92 108.986L173.913 111.986ZM158.579 148.7L156.16 146.926C156.154 146.934 156.148 146.943 156.142 146.951L158.579 148.7ZM129.022 173.132L130.297 175.848C130.303 175.846 130.308 175.843 130.313 175.841L129.022 173.132ZM41.529 170.181L40.0135 172.77C40.0217 172.775 40.0299 172.779 40.0382 172.784L41.529 170.181ZM11.1028 138.111L8.42957 139.472C8.43394 139.481 8.43834 139.489 8.44278 139.498L11.1028 138.111ZM3.71058 91.3435C3.74996 74.2522 7.20026 59.1566 13.9853 45.9846L8.65131 43.2371C1.37336 57.3661 -2.24814 73.421 -2.2894 91.3296L3.71058 91.3435ZM13.9719 46.0102C20.9076 32.8579 30.6953 22.7227 43.3702 15.5414L40.4125 10.3211C26.7196 18.0791 16.1253 29.0636 8.66464 43.2115L13.9719 46.0102ZM43.395 15.5272C56.0473 8.19902 71.0166 4.49832 88.4108 4.53839L88.4246 -1.46159C70.1523 -1.50369 54.104 2.39082 40.3878 10.3352L43.395 15.5272ZM88.4108 4.53839C103.358 4.57283 116.558 7.44437 128.08 13.0779L130.715 7.68778C118.264 1.5994 104.145 -1.42537 88.4246 -1.46159L88.4108 4.53839ZM128.125 13.0994C139.829 18.5837 149.233 26.3607 156.396 36.4388L161.287 32.9627C153.499 22.0063 143.273 13.5714 130.67 7.66628L128.125 13.0994ZM156.415 36.4643C163.765 46.5794 168.656 58.4068 171.052 72.0064L176.961 70.9652C174.422 56.5533 169.203 43.8573 161.268 32.9373L156.415 36.4643ZM174.014 68.4858L115.514 68.351L115.5 74.351L174 74.4858L174.014 68.4858ZM118.238 70.11C115.365 63.7874 111.173 58.8104 105.649 55.2938L102.427 60.3553C106.888 63.195 110.342 67.2357 112.776 72.592L118.238 70.11ZM105.747 55.3588C100.381 51.6402 94.1979 49.8018 87.3066 49.786L87.2927 55.7859C93.068 55.7993 98.0434 57.3199 102.329 60.2903L105.747 55.3588ZM87.3066 49.786C77.1044 49.7625 68.7887 53.6263 62.6708 61.3758L67.3802 65.0936C72.2946 58.8684 78.8283 55.7664 87.2927 55.7859L87.3066 49.786ZM62.6434 61.411C56.7768 69.0742 53.9887 79.1936 53.9605 91.4593L59.9604 91.4731C59.9867 80.0721 62.5753 71.3705 67.4076 65.0583L62.6434 61.411ZM53.9605 91.4593C53.9322 103.725 56.6736 113.857 62.5048 121.547L67.2858 117.922C62.4826 111.588 59.9342 102.874 59.9604 91.4731L53.9605 91.4593ZM62.5321 121.583C68.6142 129.36 76.912 133.262 87.1142 133.286L87.128 127.286C78.6636 127.266 72.1442 124.134 67.2585 117.886L62.5321 121.583ZM87.1142 133.286C93.9732 133.302 100.144 131.592 105.52 128.088L102.244 123.061C97.9391 125.867 92.9356 127.299 87.128 127.286L87.1142 133.286ZM105.54 128.074C111.044 124.423 115.242 119.403 118.139 113.104L112.688 110.597C110.225 115.954 106.735 120.082 102.224 123.074L105.54 128.074ZM115.407 114.851L173.907 114.986L173.92 108.986L115.421 108.851L115.407 114.851ZM170.961 111.452C168.503 125.04 163.557 136.845 156.16 146.926L160.998 150.475C168.983 139.592 174.26 126.92 176.866 112.52L170.961 111.452ZM156.142 146.951C148.926 157.004 139.477 164.826 127.732 170.424L130.313 175.841C142.929 169.828 153.183 161.363 161.016 150.45L156.142 146.951ZM127.748 170.417C116.194 175.84 102.969 178.572 88.0099 178.538L87.9961 184.538C103.704 184.574 117.825 181.702 130.297 175.848L127.748 170.417ZM88.0099 178.538C70.6047 178.498 55.6433 174.807 43.0199 167.577L40.0382 172.784C53.7135 180.616 69.7347 184.496 87.9961 184.538L88.0099 178.538ZM43.0446 167.592C30.3891 160.184 20.6407 149.913 13.7629 136.724L8.44278 139.498C15.8353 153.674 26.371 164.784 40.0135 172.77L43.0446 167.592ZM13.7761 136.749C7.0519 123.546 3.6712 108.435 3.71058 91.3435L-2.2894 91.3296C-2.33066 109.238 1.21681 125.31 8.42957 139.472L13.7761 136.749ZM289.011 170.751L287.527 173.358C287.531 173.361 287.535 173.363 287.54 173.366L289.011 170.751ZM256.086 138.175L253.499 139.694L256.086 138.175ZM289.375 12.5015L290.824 15.1288L290.834 15.1229L289.375 12.5015ZM381.125 12.7129L379.641 15.32C379.649 15.3245 379.657 15.329 379.665 15.3335L381.125 12.7129ZM413.801 45.0382L411.2 46.5341C411.205 46.5419 411.209 46.5497 411.214 46.5574L413.801 45.0382ZM413.585 138.538L411.005 137.007C411.001 137.015 410.996 137.022 410.992 137.03L413.585 138.538ZM380.511 170.962L379.052 168.34C379.047 168.343 379.043 168.345 379.038 168.348L380.511 170.962ZM360.627 120.416L362.9 122.374C362.908 122.365 362.915 122.356 362.923 122.347L360.627 120.416ZM360.759 62.9161L358.455 64.8366C358.462 64.8455 358.47 64.8544 358.477 64.8632L360.759 62.9161ZM309.51 62.798L311.783 64.7556C311.79 64.7468 311.798 64.738 311.805 64.7291L309.51 62.798ZM309.377 120.298L307.072 122.218C307.08 122.227 307.087 122.236 307.095 122.245L309.377 120.298ZM334.991 179.607C318.816 179.57 303.999 175.74 290.482 168.136L287.54 173.366C301.987 181.493 317.818 185.567 334.977 185.607L334.991 179.607ZM290.495 168.144C277.141 160.541 266.544 150.06 258.673 136.656L253.499 139.694C261.897 153.994 273.25 165.23 287.527 173.358L290.495 168.144ZM258.673 136.656C250.831 123.303 246.905 108.245 246.944 91.4039L240.944 91.3901C240.902 109.216 245.071 125.343 253.499 139.694L258.673 136.656ZM246.944 91.4039C246.982 74.5632 250.978 59.5232 258.881 46.2064L253.721 43.1442C245.227 57.4564 240.985 73.5642 240.944 91.3901L246.944 91.4039ZM258.881 46.2064C266.811 32.8441 277.448 22.5013 290.824 15.1288L287.927 9.87415C273.6 17.7712 262.188 28.8776 253.721 43.1442L258.881 46.2064ZM290.834 15.1229C304.386 7.58114 319.221 3.8202 335.395 3.85747L335.409 -2.14251C318.251 -2.18205 302.401 1.81966 287.917 9.88004L290.834 15.1229ZM335.395 3.85747C351.57 3.89474 366.298 7.7237 379.641 15.32L382.609 10.1058C368.322 1.97165 352.568 -2.10298 335.409 -2.14251L335.395 3.85747ZM379.665 15.3335C393 22.7644 403.5 33.1485 411.2 46.5341L416.401 43.5424C408.165 29.2245 396.881 18.0583 382.585 10.0923L379.665 15.3335ZM411.214 46.5574C419.056 59.9105 422.982 74.9688 422.943 91.8094L428.943 91.8233C428.984 73.9973 424.816 57.8702 416.388 43.5191L411.214 46.5574ZM422.943 91.8094C422.904 108.65 418.909 123.69 411.005 137.007L416.165 140.069C424.659 125.757 428.902 109.649 428.943 91.8233L422.943 91.8094ZM410.992 137.03C403.232 150.377 392.6 160.801 379.052 168.34L381.969 173.583C396.457 165.521 407.875 154.329 416.179 140.046L410.992 137.03ZM379.038 168.348C365.656 175.885 350.993 179.644 334.991 179.607L334.977 185.607C351.974 185.646 367.662 181.641 381.983 173.576L379.038 168.348ZM335.096 133.857C346.786 133.884 356.201 130.152 362.9 122.374L358.354 118.458C353.02 124.652 345.42 127.881 335.11 127.857L335.096 133.857ZM362.923 122.347C369.508 114.518 372.664 104.194 372.693 91.6936L366.693 91.6798C366.667 103.18 363.778 112.009 358.331 118.485L362.923 122.347ZM372.693 91.6936C372.722 79.043 369.622 68.6814 363.042 60.969L358.477 64.8632C363.865 71.1784 366.72 79.9972 366.693 91.6798L372.693 91.6936ZM363.064 60.9956C356.409 53.0096 347.005 49.1343 335.291 49.1073L335.277 55.1073C345.564 55.131 353.143 58.4616 358.455 64.8366L363.064 60.9956ZM335.291 49.1073C323.427 49.08 313.914 52.9009 307.214 60.8669L311.805 64.7291C317.138 58.3894 324.808 55.0832 335.277 55.1073L335.291 49.1073ZM307.236 60.8404C300.621 68.5224 297.473 78.8696 297.443 91.5203L303.443 91.5341C303.47 79.8515 306.366 71.0459 311.783 64.7556L307.236 60.8404ZM297.443 91.5203C297.415 104.02 300.523 114.359 307.072 122.218L311.682 118.377C306.264 111.876 303.417 103.034 303.443 91.5341L297.443 91.5203ZM307.095 122.245C313.767 130.065 323.256 133.83 335.096 133.857L335.11 127.857C324.616 127.833 316.955 124.558 311.659 118.351L307.095 122.245ZM679.416 4.65014L682.257 5.6126C682.567 4.69797 682.418 3.69013 681.856 2.90472C681.294 2.11931 680.389 1.65237 679.423 1.65015L679.416 4.65014ZM619.508 181.513L619.501 184.513C620.79 184.516 621.936 183.695 622.35 182.475L619.508 181.513ZM547.759 181.347L544.913 182.297C545.32 183.519 546.463 184.344 547.752 184.347L547.759 181.347ZM488.667 4.21063L488.673 1.21064C487.708 1.20841 486.8 1.67118 486.235 2.45399C485.669 3.2368 485.515 4.24394 485.821 5.15999L488.667 4.21063ZM547.666 4.34657L550.542 3.49169C550.164 2.22159 548.998 1.34963 547.673 1.34658L547.666 4.34657ZM583.886 126.18L581.01 127.035C581.388 128.306 582.556 129.179 583.882 129.18C585.208 129.182 586.378 128.313 586.759 127.043L583.886 126.18ZM620.416 4.5142L620.423 1.5142C619.096 1.51115 617.925 2.38042 617.543 3.65149L620.416 4.5142ZM676.575 3.68768L616.667 180.55L622.35 182.475L682.257 5.6126L676.575 3.68768ZM619.515 178.513L547.765 178.347L547.752 184.347L619.501 184.513L619.515 178.513ZM550.604 180.398L491.512 3.26128L485.821 5.15999L544.913 182.297L550.604 180.398ZM488.66 7.21062L547.659 7.34657L547.673 1.34658L488.673 1.21064L488.66 7.21062ZM544.791 5.20145L581.01 127.035L586.761 125.325L550.542 3.49169L544.791 5.20145ZM586.759 127.043L623.289 5.3769L617.543 3.65149L581.012 125.318L586.759 127.043ZM620.409 7.51419L679.409 7.65013L679.423 1.65015L620.423 1.5142L620.409 7.51419ZM802.238 49.1832L802.244 46.1833C800.588 46.1794 799.241 47.5195 799.238 49.1763L802.238 49.1832ZM802.187 70.9332L799.187 70.9263C799.184 72.5831 800.524 73.9294 802.181 73.9332L802.187 70.9332ZM857.187 71.0599L860.187 71.0668C860.191 69.41 858.851 68.0637 857.194 68.0599L857.187 71.0599ZM857.091 112.81L857.084 115.81C858.741 115.814 860.087 114.474 860.091 112.817L857.091 112.81ZM802.091 112.683L802.098 109.683C800.441 109.679 799.095 111.019 799.091 112.676L802.091 112.683ZM802.034 137.683L799.034 137.676C799.03 139.333 800.37 140.679 802.027 140.683L802.034 137.683ZM864.533 137.827L867.533 137.834C867.537 136.177 866.197 134.831 864.54 134.827L864.533 137.827ZM864.432 182.077L864.425 185.077C866.081 185.081 867.428 183.741 867.432 182.084L864.432 182.077ZM746.432 181.805L743.432 181.798C743.428 183.455 744.768 184.801 746.425 184.805L746.432 181.805ZM746.84 4.80549L746.847 1.8055C745.19 1.80168 743.843 3.14173 743.84 4.79858L746.84 4.80549ZM864.839 5.07737L867.839 5.08429C867.843 3.42744 866.503 2.0812 864.846 2.07738L864.839 5.07737ZM864.737 49.3273L864.73 52.3272C866.387 52.3311 867.734 50.991 867.737 49.3342L864.737 49.3273ZM799.238 49.1763L799.187 70.9263L805.187 70.9401L805.238 49.1902L799.238 49.1763ZM802.181 73.9332L857.18 74.0599L857.194 68.0599L802.194 67.9332L802.181 73.9332ZM854.187 71.053L854.091 112.803L860.091 112.817L860.187 71.0668L854.187 71.053ZM857.098 109.81L802.098 109.683L802.084 115.683L857.084 115.81L857.098 109.81ZM799.091 112.676L799.034 137.676L805.034 137.69L805.091 112.69L799.091 112.676ZM802.027 140.683L864.527 140.827L864.54 134.827L802.041 134.683L802.027 140.683ZM861.533 137.82L861.432 182.07L867.432 182.084L867.533 137.834L861.533 137.82ZM864.438 179.077L746.439 178.805L746.425 184.805L864.425 185.077L864.438 179.077ZM749.432 181.812L749.84 4.8124L743.84 4.79858L743.432 181.798L749.432 181.812ZM746.833 7.80548L864.832 8.07737L864.846 2.07738L746.847 1.8055L746.833 7.80548ZM861.839 5.07046L861.737 49.3203L867.737 49.3342L867.839 5.08429L861.839 5.07046ZM864.744 46.3273L802.244 46.1833L802.231 52.1832L864.73 52.3272L864.744 46.3273ZM1029.35 182.457L1026.69 183.842C1027.2 184.832 1028.22 185.454 1029.34 185.457L1029.35 182.457ZM996.244 118.88L998.904 117.495C998.389 116.505 997.367 115.883 996.25 115.88L996.244 118.88ZM995.994 118.88L996 115.88C994.344 115.876 992.997 117.216 992.994 118.873L995.994 118.88ZM995.847 182.38L995.84 185.38C997.497 185.384 998.843 184.043 998.847 182.387L995.847 182.38ZM940.347 182.252L937.347 182.245C937.344 183.902 938.684 185.248 940.34 185.252L940.347 182.252ZM940.755 5.25229L940.762 2.2523C939.105 2.24848 937.759 3.58853 937.755 5.24538L940.755 5.25229ZM1059.99 13.277L1058.62 15.9483C1058.63 15.9543 1058.65 15.9602 1058.66 15.966L1059.99 13.277ZM1082.69 34.0794L1080.07 35.5512C1080.09 35.5708 1080.1 35.5903 1080.11 35.6096L1082.69 34.0794ZM1080.3 95.0741L1077.88 93.3039C1077.87 93.3136 1077.86 93.3234 1077.86 93.3331L1080.3 95.0741ZM1052 114.759L1051.08 111.903C1050.23 112.179 1049.54 112.827 1049.21 113.667C1048.88 114.507 1048.95 115.45 1049.39 116.235L1052 114.759ZM1090.35 182.597L1090.34 185.597C1091.41 185.6 1092.4 185.034 1092.94 184.112C1093.48 183.19 1093.48 182.051 1092.96 181.121L1090.35 182.597ZM996.079 81.88L993.079 81.8731C993.075 83.5299 994.415 84.8761 996.072 84.88L996.079 81.88ZM1030.09 78.4583L1032.06 80.7206C1032.08 80.698 1032.11 80.6751 1032.13 80.6516L1030.09 78.4583ZM1029.89 55.9578L1027.76 58.0742C1027.78 58.0957 1027.81 58.1168 1027.83 58.1376L1029.89 55.9578ZM996.148 51.88L996.155 48.8801C994.498 48.8762 993.152 50.2163 993.148 51.8731L996.148 51.88ZM1032.01 181.071L998.904 117.495L993.583 120.266L1026.69 183.842L1032.01 181.071ZM996.25 115.88L996 115.88L995.987 121.88L996.237 121.88L996.25 115.88ZM992.994 118.873L992.847 182.373L998.847 182.387L998.994 118.887L992.994 118.873ZM995.854 179.38L940.354 179.252L940.34 185.252L995.84 185.38L995.854 179.38ZM943.347 182.259L943.755 5.25921L937.755 5.24538L937.347 182.245L943.347 182.259ZM940.748 8.25228L1023.25 8.44237L1023.26 2.44239L940.762 2.2523L940.748 8.25228ZM1023.25 8.44237C1037.23 8.47458 1048.98 11.0213 1058.62 15.9483L1061.35 10.6057C1050.68 5.15256 1037.95 2.47623 1023.26 2.44239L1023.25 8.44237ZM1058.66 15.966C1068.34 20.7543 1075.43 27.292 1080.07 35.5512L1085.3 32.6076C1079.99 23.1771 1071.95 15.8466 1061.32 10.588L1058.66 15.966ZM1080.11 35.6096C1084.95 43.7815 1087.4 53.0808 1087.37 63.5903L1093.37 63.6041C1093.4 52.1136 1090.72 41.7344 1085.27 32.5491L1080.11 35.6096ZM1087.37 63.5903C1087.35 74.8193 1084.17 84.6881 1077.88 93.3039L1082.72 96.8441C1089.8 87.1574 1093.34 76.0416 1093.37 63.6041L1087.37 63.5903ZM1077.86 93.3331C1071.76 101.88 1062.91 108.098 1051.08 111.903L1052.92 117.615C1065.78 113.477 1075.79 106.571 1082.74 96.815L1077.86 93.3331ZM1049.39 116.235L1087.74 184.074L1092.96 181.121L1054.61 113.283L1049.39 116.235ZM1090.35 179.597L1029.35 179.457L1029.34 185.457L1090.34 185.597L1090.35 179.597ZM996.072 84.88L1018.07 84.9306L1018.09 78.9307L996.086 78.88L996.072 84.88ZM1018.07 84.9306C1023.78 84.9438 1028.62 83.7157 1032.06 80.7206L1028.12 76.196C1026.21 77.8553 1023.05 78.9421 1018.09 78.9307L1018.07 84.9306ZM1032.13 80.6516C1035.63 77.3907 1037.1 72.6201 1037.11 66.9745L1031.11 66.9606C1031.1 71.6483 1029.89 74.5382 1028.04 76.265L1032.13 80.6516ZM1037.11 66.9745C1037.13 61.6589 1035.5 57.1313 1031.95 53.7779L1027.83 58.1376C1029.94 60.1307 1031.12 62.9429 1031.11 66.9606L1037.11 66.9745ZM1032.01 53.8414C1028.61 50.4221 1023.82 48.9438 1018.15 48.9307L1018.14 54.9307C1022.81 54.9415 1025.84 56.1479 1027.76 58.0742L1032.01 53.8414ZM1018.15 48.9307L996.155 48.8801L996.141 54.88L1018.14 54.9307L1018.15 48.9307ZM993.148 51.8731L993.079 81.8731L999.079 81.8869L999.148 51.887L993.148 51.8731Z"
		fill="url(#paint0_linear_1838_8881)" />
	<defs>
		<linearGradient id="paint0_linear_1838_8881" x1="559.745" y1="-44.2379" x2="555.016" y2="193.73"
			gradientUnits="userSpaceOnUse">
			<stop stop-color="#8D8D8D" stop-opacity="0.61" />
			<stop offset="0.699784" stop-color="#131312" />
		</linearGradient>
	</defs>
</svg>