<svg width="197" height="272" viewBox="0 0 197 272" fill="none" xmlns="http://www.w3.org/2000/svg">
<g filter="url(#filter0_dd_1540_11481)">
<path d="M98.8379 178.55L100.616 180.151L182.001 136.77L100.616 15L98.8379 20.4485V178.55Z" fill="#2C2F36"/>
<path d="M98.8379 178.55L100.616 180.151L182.001 136.77L100.616 15L98.8379 20.4485V178.55Z" stroke="#03AFD0"/>
<path d="M100.5 180.151V15L19 136.77L100.5 180.151Z" fill="#3D414A"/>
<path d="M100.5 180.151V15L19 136.77L100.5 180.151Z" stroke="#03AFD0"/>
<path d="M98.8379 251.886L99.8484 254.542L182.001 150.394L99.8491 194.059L98.8385 195.168L98.8379 251.886Z" fill="#2C2F36"/>
<path d="M98.8379 251.886L99.8484 254.542L182.001 150.394L99.8491 194.059L98.8385 195.168L98.8379 251.886Z" stroke="#03AFD0"/>
<path d="M19 150.394L100.5 254.542V194.058L19 150.394Z" fill="#3D414A"/>
<path d="M19 150.394L100.5 254.542V194.058L19 150.394Z" stroke="#03AFD0"/>
<path d="M100.5 104.271V180.15L182 137.255L100.5 104.271Z" fill="#282B31"/>
<path d="M100.5 104.271V180.15L182 137.255L100.5 104.271Z" stroke="#03AFD0"/>
<path d="M100.5 104.271L19 137.255L100.5 180.15V104.271Z" fill="#26282F"/>
<path d="M100.5 104.271L19 137.255L100.5 180.15V104.271Z" stroke="#03AFD0"/>
</g>
<defs>
<filter id="filter0_dd_1540_11481" x="0" y="0" width="197" height="271.542" filterUnits="userSpaceOnUse" color-interpolation-filters="sRGB">
<feFlood flood-opacity="0" result="BackgroundImageFix"/>
<feColorMatrix in="SourceAlpha" type="matrix" values="0 0 0 0 0 0 0 0 0 0 0 0 0 0 0 0 0 0 127 0" result="hardAlpha"/>
<feOffset dx="6" dy="8"/>
<feGaussianBlur stdDeviation="4.5"/>
<feComposite in2="hardAlpha" operator="out"/>
<feColorMatrix type="matrix" values="0 0 0 0 0.127943 0 0 0 0 0.139534 0 0 0 0 0.16658 0 0 0 1 0"/>
<feBlend mode="normal" in2="BackgroundImageFix" result="effect1_dropShadow_1540_11481"/>
<feColorMatrix in="SourceAlpha" type="matrix" values="0 0 0 0 0 0 0 0 0 0 0 0 0 0 0 0 0 0 127 0" result="hardAlpha"/>
<feOffset dx="-9" dy="-5"/>
<feGaussianBlur stdDeviation="5"/>
<feComposite in2="hardAlpha" operator="out"/>
<feColorMatrix type="matrix" values="0 0 0 0 0.204775 0 0 0 0 0.217066 0 0 0 0 0.245747 0 0 0 1 0"/>
<feBlend mode="normal" in2="effect1_dropShadow_1540_11481" result="effect2_dropShadow_1540_11481"/>
<feBlend mode="normal" in="SourceGraphic" in2="effect2_dropShadow_1540_11481" result="shape"/>
</filter>
</defs>
</svg>
