<svg width="29" height="27" viewBox="0 0 29 27" fill="none" xmlns="http://www.w3.org/2000/svg">
<path fill-rule="evenodd" clip-rule="evenodd" d="M14.1707 1.4387C16.4219 0.0153935 19.4125 -0.377815 21.9961 0.450138C27.6159 2.2625 29.3604 8.38907 27.8 13.264C25.3923 20.9205 15.1094 26.6317 14.6733 26.8712C14.5182 26.9571 14.3465 27 14.1748 27C14.0031 27 13.8328 26.9585 13.6778 26.874C13.2444 26.6373 3.03623 21.0105 0.548216 13.2654C0.546832 13.2654 0.546832 13.264 0.546832 13.264C-1.01493 8.38768 0.724053 2.25973 6.33835 0.450138C8.9745 -0.402736 11.8474 -0.0275271 14.1707 1.4387ZM6.97523 2.42726C2.43257 3.89209 1.29171 8.77812 2.52533 12.6313C4.46645 18.6706 12.1354 23.5539 14.1734 24.7626C16.2184 23.5414 23.9427 18.6042 25.8215 12.6368C27.0552 8.77951 25.9101 3.89348 21.3606 2.42726C19.1564 1.71976 16.5853 2.15035 14.8103 3.52381C14.4393 3.80902 13.9242 3.81456 13.5504 3.53211C11.6702 2.1185 9.21403 1.70453 6.97523 2.42726ZM20.0314 5.17681C21.9185 5.78739 23.2408 7.45852 23.4028 9.43425C23.4484 10.0061 23.0234 10.5073 22.4516 10.553C22.4225 10.5557 22.3948 10.5571 22.3657 10.5571C21.8299 10.5571 21.3758 10.1459 21.3315 9.60317C21.2401 8.46508 20.4786 7.50421 19.3945 7.15392C18.8476 6.9767 18.5486 6.39104 18.7244 5.84692C18.903 5.30141 19.4831 5.00512 20.0314 5.17681Z" fill="white"/>
</svg>
