<svg width="164" height="921" viewBox="0 0 164 921" fill="none" xmlns="http://www.w3.org/2000/svg">
<path d="M102.089 110.811C105.479 108.717 108.063 105.735 109.842 101.865C111.783 97.9955 112.756 93.3179 112.762 87.8326C112.773 77.5072 109.394 69.5175 102.625 63.8633C96.0161 58.2093 86.9039 55.3759 75.2879 55.363C61.8972 55.3482 51.8911 58.4831 45.2695 64.7678C38.6478 71.0525 35.3298 80.7288 35.3153 93.7968C35.3016 106.219 40.2918 116.228 50.2861 123.821L50.3335 80.9874L88.3275 81.0295L88.2307 168.391L34.5068 168.332C21.7697 160.897 10.8103 150.64 1.62882 137.562C-7.39137 124.484 -11.8904 107.942 -11.8682 87.9365C-11.8486 70.1899 -8.20143 54.7059 -0.926785 41.4846C6.50902 28.4248 16.8455 18.3529 30.0827 11.2689C43.3197 4.34626 58.4082 0.894297 75.3482 0.913057C92.2882 0.931817 107.369 4.41719 120.591 11.3692C133.812 18.4825 144.046 28.5772 151.291 41.6532C158.698 54.7294 162.392 70.0602 162.372 87.6455C162.347 110.071 156.923 128.295 146.098 142.32C135.273 156.505 120.582 164.878 102.026 167.439L102.089 110.811ZM14.9903 309.627L15.0535 252.515L-10.8311 244.016L-10.7686 187.63L160.498 250.498L160.429 312.45L-10.9758 374.696L-10.9131 318.068L14.9903 309.627ZM55.4187 296.604L103.11 281.169L55.453 265.628L55.4187 296.604ZM160.105 605.134L-11.2308 604.944L-11.1716 551.462L74.2544 551.557L-11.1423 525.084L-11.0914 479.104L74.3637 452.821L-11.0622 452.726L-11.0027 399.002L160.333 399.192L160.26 465.016L57.3685 502.654L160.178 539.552L160.105 605.134ZM117.171 695.152L96.1174 695.129L96.0585 748.369L55.6445 748.324L55.7034 695.084L31.5034 695.057L31.4364 755.557L-11.3975 755.51L-11.271 641.286L160.065 641.475L159.938 755.699L117.104 755.652L117.171 695.152ZM-13.2016 854.888C-13.1789 834.399 -8.40081 817.464 1.13268 804.084C10.8273 790.866 24.9519 783.702 43.5065 782.593L43.4433 839.705C33.601 840.501 28.6756 844.851 28.6668 852.757C28.6636 855.661 29.3062 858.081 30.5948 860.019C32.0444 862.118 34.2213 863.169 37.1253 863.172C41.1586 863.177 44.3877 861.002 46.8125 856.649C49.3987 852.296 52.3102 845.523 55.547 836.33C59.4312 825.364 63.2326 816.253 66.9513 808.997C70.6698 801.903 76.0813 795.778 83.1856 790.623C90.29 785.468 99.4081 782.978 110.54 783.151C121.672 783.164 131.107 785.997 138.845 791.653C146.743 797.469 152.704 805.301 156.727 815.146C160.749 825.154 162.753 836.369 162.739 848.791C162.716 869.764 157.858 886.376 148.164 898.627C138.47 911.039 124.83 917.558 107.244 918.184L107.308 860.346C112.149 860.19 115.619 858.984 117.718 856.727C119.818 854.471 120.87 851.729 120.874 848.503C120.876 846.244 120.071 844.388 118.46 842.934C117.009 841.481 114.913 840.752 112.17 840.749C108.298 840.745 105.069 842.839 102.483 847.03C100.058 851.384 97.0661 858.237 93.5064 867.591C89.4611 878.395 85.5793 887.264 81.8609 894.198C78.1424 901.292 72.973 907.417 66.3526 912.572C59.7322 917.728 51.4207 920.3 41.418 920.289C30.9314 920.277 21.4962 917.685 13.1126 912.514C4.89033 907.342 -1.55469 899.833 -6.22245 889.986C-10.8902 880.14 -13.2166 868.44 -13.2016 854.888Z" fill="#1A1C20"/>
<path d="M102.089 110.811L101.038 109.109C100.448 109.473 100.089 110.116 100.089 110.809L102.089 110.811ZM109.842 101.865L108.055 100.969C108.044 100.989 108.035 101.009 108.025 101.03L109.842 101.865ZM102.625 63.8633L101.324 65.383C101.33 65.3881 101.336 65.3932 101.342 65.3983L102.625 63.8633ZM45.2695 64.7678L43.8926 63.3171L45.2695 64.7678ZM50.2861 123.821L49.0761 125.414C49.6807 125.873 50.4934 125.951 51.1739 125.614C51.8544 125.276 52.2852 124.583 52.2861 123.824L50.2861 123.821ZM50.3335 80.9874L50.3357 78.9874C49.2311 78.9862 48.3347 79.8806 48.3335 80.9852L50.3335 80.9874ZM88.3275 81.0295L90.3275 81.0317C90.3287 79.9271 89.4343 79.0307 88.3297 79.0295L88.3275 81.0295ZM88.2307 168.391L88.2285 170.391C89.3331 170.393 90.2295 169.498 90.2307 168.394L88.2307 168.391ZM34.5068 168.332L33.4985 170.059C33.8038 170.237 34.151 170.332 34.5045 170.332L34.5068 168.332ZM1.62881 137.561L-0.0175578 138.697C-0.0144195 138.702 -0.0112507 138.706 -0.00806662 138.711L1.62881 137.561ZM-0.926793 41.4846L-2.6648 40.495C-2.66963 40.5035 -2.67437 40.512 -2.67905 40.5205L-0.926793 41.4846ZM30.0827 11.269L29.1558 9.49668C29.1502 9.49961 29.1446 9.50259 29.139 9.50558L30.0827 11.269ZM120.591 11.3692L121.538 9.6079C121.533 9.6049 121.527 9.60191 121.521 9.59897L120.591 11.3692ZM151.291 41.6532L149.542 42.6225C149.545 42.628 149.548 42.6335 149.551 42.6389L151.291 41.6532ZM146.098 142.32L144.514 141.097L144.508 141.106L146.098 142.32ZM102.026 167.439L100.026 167.437C100.025 168.015 100.275 168.565 100.711 168.946C101.147 169.326 101.726 169.499 102.299 169.42L102.026 167.439ZM103.139 112.512C106.888 110.197 109.728 106.903 111.66 102.701L108.025 101.03C106.399 104.568 104.069 107.237 101.038 109.109L103.139 112.512ZM111.63 102.762C113.742 98.5502 114.756 93.5499 114.762 87.8348L110.762 87.8303C110.756 93.0859 109.824 97.4407 108.055 100.969L111.63 102.762ZM114.762 87.8348C114.774 77.0285 111.212 68.4297 103.907 62.3283L101.342 65.3983C107.577 70.6053 110.773 77.986 110.762 87.8303L114.762 87.8348ZM103.925 62.3436C96.8485 56.2894 87.2209 53.3762 75.2901 53.363L75.2857 57.363C86.5868 57.3755 95.1837 60.1293 101.324 65.383L103.925 62.3436ZM75.2901 53.363C61.6233 53.3479 51.0287 56.5443 43.8926 63.3171L46.6463 66.2184C52.7535 60.422 62.1711 57.3485 75.2857 57.363L75.2901 53.363ZM43.8926 63.3171C36.7281 70.1171 33.3301 80.4185 33.3153 93.7946L37.3153 93.799C37.3294 81.0391 40.5675 71.9878 46.6463 66.2184L43.8926 63.3171ZM33.3153 93.7946C33.3008 106.851 38.5896 117.446 49.0761 125.414L51.496 122.229C41.994 115.009 37.3022 105.588 37.3153 93.799L33.3153 93.7946ZM52.2861 123.824L52.3335 80.9896L48.3335 80.9852L48.2861 123.819L52.2861 123.824ZM50.3313 82.9874L88.3253 83.0295L88.3297 79.0295L50.3357 78.9874L50.3313 82.9874ZM86.3275 81.0273L86.2307 168.389L90.2307 168.394L90.3275 81.0317L86.3275 81.0273ZM88.2329 166.391L34.509 166.332L34.5045 170.332L88.2285 170.391L88.2329 166.391ZM35.5151 166.605C23.0469 159.326 12.2958 149.275 3.26571 136.412L-0.00806662 138.711C9.32492 152.005 20.4924 162.467 33.4985 170.059L35.5151 166.605ZM3.2752 136.426C-5.46078 123.76 -9.89005 107.643 -9.86823 87.9387L-13.8682 87.9343C-13.8907 108.24 -9.32198 125.207 -0.0175578 138.697L3.2752 136.426ZM-9.86823 87.9387C-9.84888 70.4691 -6.26061 55.3274 0.825482 42.4488L-2.67905 40.5205C-10.1423 54.0844 -13.8483 69.9107 -13.8682 87.9343L-9.86823 87.9387ZM0.811248 42.4742C8.06069 29.7417 18.122 19.9382 31.0264 13.0323L29.139 9.50558C15.5691 16.7677 4.95734 27.108 -2.6648 40.495L0.811248 42.4742ZM31.0096 13.0412C43.9234 6.28754 58.6857 2.89462 75.346 2.91307L75.3504 -1.08693C58.1307 -1.106 42.716 2.40498 29.1558 9.49668L31.0096 13.0412ZM75.346 2.91307C92.0062 2.93152 106.761 6.35713 119.66 13.1394L121.521 9.59897C107.977 2.47725 92.5701 -1.06786 75.3504 -1.08693L75.346 2.91307ZM119.643 13.1304C132.528 20.0629 142.483 29.8834 149.542 42.6225L153.041 40.6838C145.608 27.2709 135.096 16.902 121.538 9.6079L119.643 13.1304ZM149.551 42.6389C156.76 55.3661 160.391 70.3448 160.372 87.6433L164.372 87.6477C164.392 69.7755 160.636 54.0927 153.031 40.6675L149.551 42.6389ZM160.372 87.6433C160.348 109.746 155.005 127.507 144.514 141.097L147.681 143.542C158.84 129.084 164.347 110.395 164.372 87.6477L160.372 87.6433ZM144.508 141.106C134.02 154.849 119.815 162.965 101.752 165.457L102.299 169.42C121.349 166.791 136.525 158.161 147.688 143.533L144.508 141.106ZM104.026 167.441L104.089 110.813L100.089 110.809L100.026 167.437L104.026 167.441ZM14.9903 309.627L15.61 311.529C16.4324 311.261 16.9893 310.494 16.9903 309.629L14.9903 309.627ZM15.0535 252.515L17.0535 252.517C17.0545 251.652 16.4992 250.885 15.6774 250.615L15.0535 252.515ZM-10.8311 244.016L-12.8311 244.014C-12.832 244.879 -12.2768 245.647 -11.455 245.917L-10.8311 244.016ZM-10.7686 187.63L-10.0795 185.753C-10.6926 185.528 -11.3769 185.616 -11.9126 185.99C-12.4484 186.364 -12.7679 186.975 -12.7686 187.628L-10.7686 187.63ZM160.498 250.498L162.498 250.5C162.499 249.661 161.975 248.91 161.187 248.621L160.498 250.498ZM160.429 312.45L161.112 314.33C161.902 314.043 162.428 313.293 162.429 312.452L160.429 312.45ZM-10.9758 374.696L-12.9758 374.694C-12.9765 375.347 -12.6588 375.959 -12.1245 376.334C-11.5902 376.709 -10.9066 376.799 -10.2931 376.576L-10.9758 374.696ZM-10.9131 318.068L-11.5328 316.167C-12.3552 316.435 -12.9121 317.201 -12.9131 318.066L-10.9131 318.068ZM55.4187 296.604L53.4187 296.602C53.418 297.242 53.7238 297.844 54.2413 298.221C54.7588 298.597 55.4255 298.704 56.0346 298.507L55.4187 296.604ZM103.11 281.169L103.726 283.072C104.55 282.805 105.109 282.037 105.11 281.171C105.111 280.304 104.554 279.536 103.73 279.267L103.11 281.169ZM55.453 265.628L56.0731 263.726C55.4644 263.528 54.7975 263.633 54.2792 264.009C53.7609 264.384 53.4537 264.985 53.453 265.626L55.453 265.628ZM16.9903 309.629L17.0535 252.517L13.0535 252.513L12.9903 309.625L16.9903 309.629ZM15.6774 250.615L-10.2072 242.116L-11.455 245.917L14.4296 254.415L15.6774 250.615ZM-8.83108 244.019L-8.76864 187.633L-12.7686 187.628L-12.8311 244.014L-8.83108 244.019ZM-11.4578 189.508L159.809 252.376L161.187 248.621L-10.0795 185.753L-11.4578 189.508ZM158.498 250.496L158.429 312.448L162.429 312.452L162.498 250.5L158.498 250.496ZM159.747 310.57L-11.6585 372.817L-10.2931 376.576L161.112 314.33L159.747 310.57ZM-8.97581 374.699L-8.91309 318.071L-12.9131 318.066L-12.9758 374.694L-8.97581 374.699ZM-10.2934 319.97L15.61 311.529L14.3706 307.726L-11.5328 316.167L-10.2934 319.97ZM56.0346 298.507L103.726 283.072L102.494 279.266L54.8029 294.701L56.0346 298.507ZM103.73 279.267L56.0731 263.726L54.833 267.529L102.49 283.07L103.73 279.267ZM53.453 265.626L53.4187 296.602L57.4187 296.606L57.453 265.63L53.453 265.626ZM160.105 605.134L160.103 607.134C161.207 607.135 162.104 606.241 162.105 605.136L160.105 605.134ZM-11.2308 604.944L-13.2308 604.942C-13.232 606.046 -12.3376 606.943 -11.233 606.944L-11.2308 604.944ZM-11.1716 551.462L-11.1693 549.462C-12.2739 549.461 -13.1703 550.355 -13.1716 551.46L-11.1716 551.462ZM74.2544 551.557L74.2522 553.557C75.2415 553.558 76.083 552.835 76.2317 551.857C76.3804 550.879 75.7916 549.939 74.8466 549.646L74.2544 551.557ZM-11.1423 525.084L-13.1423 525.082C-13.1433 525.959 -12.5725 526.735 -11.7346 526.994L-11.1423 525.084ZM-11.0914 479.104L-11.6794 477.193C-12.5179 477.45 -13.0905 478.225 -13.0914 479.102L-11.0914 479.104ZM74.3637 452.821L74.9517 454.732C75.8973 454.442 76.4882 453.503 76.3417 452.525C76.1952 451.546 75.3553 450.822 74.366 450.821L74.3637 452.821ZM-11.0622 452.726L-13.0622 452.724C-13.0634 453.829 -12.169 454.725 -11.0644 454.726L-11.0622 452.726ZM-11.0027 399.002L-11.0005 397.002C-12.1051 397.001 -13.0015 397.895 -13.0027 399L-11.0027 399.002ZM160.333 399.192L162.333 399.194C162.334 398.09 161.44 397.193 160.335 397.192L160.333 399.192ZM160.26 465.016L160.947 466.894C161.735 466.606 162.259 465.857 162.26 465.018L160.26 465.016ZM57.3685 502.654L56.6815 500.776C55.8909 501.065 55.366 501.818 55.3685 502.66C55.3711 503.502 55.9006 504.252 56.6929 504.536L57.3685 502.654ZM160.178 539.552L162.178 539.554C162.179 538.709 161.649 537.955 160.853 537.669L160.178 539.552ZM160.107 603.134L-11.2286 602.944L-11.233 606.944L160.103 607.134L160.107 603.134ZM-9.23079 604.946L-9.17156 551.464L-13.1716 551.46L-13.2308 604.942L-9.23079 604.946ZM-11.1738 553.462L74.2522 553.557L74.2566 549.557L-11.1693 549.462L-11.1738 553.462ZM74.8466 549.646L-10.5501 523.174L-11.7346 526.994L73.6622 553.467L74.8466 549.646ZM-9.14235 525.086L-9.09143 479.106L-13.0914 479.102L-13.1423 525.082L-9.14235 525.086ZM-10.5035 481.016L74.9517 454.732L73.7758 450.909L-11.6794 477.193L-10.5035 481.016ZM74.366 450.821L-11.06 450.726L-11.0644 454.726L74.3615 454.821L74.366 450.821ZM-9.06222 452.728L-9.00272 399.004L-13.0027 399L-13.0622 452.724L-9.06222 452.728ZM-11.0049 401.002L160.331 401.192L160.335 397.192L-11.0005 397.002L-11.0049 401.002ZM158.333 399.19L158.26 465.014L162.26 465.018L162.333 399.194L158.333 399.19ZM159.573 463.138L56.6815 500.776L58.0556 504.532L160.947 466.894L159.573 463.138ZM56.6929 504.536L159.502 541.434L160.853 537.669L58.0441 500.772L56.6929 504.536ZM158.178 539.55L158.105 605.132L162.105 605.136L162.178 539.554L158.178 539.55ZM117.171 695.152L119.171 695.154C119.173 694.05 118.278 693.153 117.174 693.152L117.171 695.152ZM96.1174 695.129L96.1196 693.129C95.0151 693.127 94.1186 694.022 94.1174 695.126L96.1174 695.129ZM96.0585 748.369L96.0562 750.369C97.1608 750.37 98.0572 749.475 98.0585 748.371L96.0585 748.369ZM55.6445 748.324L53.6445 748.322C53.6432 749.426 54.5377 750.323 55.6423 750.324L55.6445 748.324ZM55.7034 695.084L57.7034 695.086C57.7046 693.982 56.8102 693.085 55.7056 693.084L55.7034 695.084ZM31.5034 695.057L31.5057 693.057C30.4011 693.056 29.5047 693.95 29.5034 695.055L31.5034 695.057ZM31.4364 755.557L31.4342 757.557C32.5388 757.558 33.4352 756.664 33.4364 755.559L31.4364 755.557ZM-11.3975 755.51L-13.3975 755.507C-13.3988 756.612 -12.5043 757.508 -11.3997 757.51L-11.3975 755.51ZM-11.271 641.286L-11.2688 639.286C-12.3734 639.284 -13.2698 640.179 -13.271 641.283L-11.271 641.286ZM160.065 641.475L162.065 641.478C162.066 640.373 161.172 639.477 160.067 639.475L160.065 641.475ZM159.938 755.699L159.936 757.699C161.041 757.701 161.937 756.806 161.938 755.702L159.938 755.699ZM117.104 755.652L115.104 755.65C115.103 756.754 115.998 757.651 117.102 757.652L117.104 755.652ZM117.174 693.152L96.1196 693.129L96.1152 697.129L117.169 697.152L117.174 693.152ZM94.1174 695.126L94.0585 748.366L98.0585 748.371L98.1174 695.131L94.1174 695.126ZM96.0607 746.369L55.6467 746.324L55.6423 750.324L96.0562 750.369L96.0607 746.369ZM57.6445 748.326L57.7034 695.086L53.7034 695.082L53.6445 748.322L57.6445 748.326ZM55.7056 693.084L31.5057 693.057L31.5012 697.057L55.7012 697.084L55.7056 693.084ZM29.5034 695.055L29.4364 755.555L33.4364 755.559L33.5034 695.059L29.5034 695.055ZM31.4387 753.557L-11.3953 753.51L-11.3997 757.51L31.4342 757.557L31.4387 753.557ZM-9.39753 755.512L-9.27104 641.288L-13.271 641.283L-13.3975 755.507L-9.39753 755.512ZM-11.2733 643.286L160.063 643.475L160.067 639.475L-11.2688 639.286L-11.2733 643.286ZM158.065 641.473L157.938 755.697L161.938 755.702L162.065 641.478L158.065 641.473ZM159.941 753.699L117.107 753.652L117.102 757.652L159.936 757.699L159.941 753.699ZM119.104 755.654L119.171 695.154L115.171 695.15L115.104 755.65L119.104 755.654ZM1.13268 804.084L-0.480068 802.901C-0.485478 802.909 -0.490842 802.916 -0.496145 802.924L1.13268 804.084ZM43.5065 782.593L45.5065 782.595C45.5071 782.044 45.28 781.516 44.8787 781.138C44.4775 780.76 43.9378 780.564 43.3872 780.597L43.5065 782.593ZM43.4433 839.705L43.6045 841.699C44.6423 841.615 45.4421 840.748 45.4433 839.707L43.4433 839.705ZM30.5948 860.019L28.9294 861.126C28.9359 861.136 28.9425 861.146 28.9491 861.155L30.5948 860.019ZM46.8125 856.649L45.0931 855.627C45.0836 855.643 45.0743 855.659 45.0653 855.676L46.8125 856.649ZM55.547 836.33L53.6618 835.663L53.6605 835.666L55.547 836.33ZM66.9513 808.997L65.1799 808.069C65.177 808.074 65.1742 808.079 65.1714 808.085L66.9513 808.997ZM83.1857 790.623L84.3602 792.242L83.1857 790.623ZM110.54 783.151L110.509 785.151C110.518 785.151 110.528 785.151 110.538 785.151L110.54 783.151ZM138.845 791.653L140.03 790.042L140.025 790.038L138.845 791.653ZM156.727 815.146L158.582 814.401L158.578 814.39L156.727 815.146ZM148.164 898.627L146.596 897.386L146.588 897.396L148.164 898.627ZM107.244 918.184L105.244 918.182C105.244 918.725 105.464 919.245 105.855 919.622C106.245 920 106.773 920.202 107.316 920.183L107.244 918.184ZM107.308 860.346L107.244 858.347C106.166 858.382 105.31 859.265 105.308 860.344L107.308 860.346ZM117.718 856.727L119.183 858.09L117.718 856.727ZM118.46 842.934L117.044 844.347C117.069 844.372 117.094 844.396 117.12 844.419L118.46 842.934ZM102.483 847.03L100.781 845.98C100.765 846.006 100.75 846.031 100.736 846.057L102.483 847.03ZM93.5064 867.591L91.6372 866.879L91.6334 866.889L93.5064 867.591ZM81.8609 894.198L80.0984 893.252C80.0954 893.258 80.0925 893.264 80.0895 893.269L81.8609 894.198ZM66.3526 912.572L65.1238 910.994L66.3526 912.572ZM13.1126 912.513L12.0478 914.206C12.0527 914.21 12.0576 914.213 12.0625 914.216L13.1126 912.513ZM-6.22245 889.986L-4.41522 889.129L-6.22245 889.986ZM-11.2016 854.891C-11.1792 834.713 -6.47713 818.211 2.76151 805.245L-0.496145 802.924C-10.3245 816.718 -15.1786 834.085 -15.2016 854.886L-11.2016 854.891ZM2.74543 805.267C12.0384 792.596 25.5759 785.668 43.6258 784.59L43.3872 780.597C24.3279 781.736 9.61627 789.135 -0.480068 802.901L2.74543 805.267ZM41.5065 782.591L41.4433 839.703L45.4433 839.707L45.5065 782.595L41.5065 782.591ZM43.2821 837.712C38.1357 838.128 33.9566 839.493 31.0435 842.066C28.0648 844.697 26.6717 848.356 26.6668 852.755L30.6668 852.759C30.6707 849.252 31.7447 846.783 33.6915 845.064C35.7038 843.286 38.9086 842.078 43.6045 841.699L43.2821 837.712ZM26.6668 852.755C26.6633 855.955 27.3736 858.787 28.9294 861.126L32.2601 858.911C31.2389 857.376 30.6639 855.366 30.6668 852.759L26.6668 852.755ZM28.9491 861.155C30.8279 863.876 33.6681 865.168 37.1231 865.172L37.1275 861.172C34.7744 861.17 33.261 860.36 32.2404 858.882L28.9491 861.155ZM37.1231 865.172C42.0641 865.178 45.8795 862.434 48.5597 857.622L45.0653 855.676C42.8958 859.57 40.2532 861.176 37.1275 861.172L37.1231 865.172ZM48.532 857.67C51.2215 853.143 54.1851 846.22 57.4335 836.995L53.6605 835.666C50.4352 844.826 47.5758 851.448 45.0931 855.627L48.532 857.67ZM57.4323 836.998C61.2981 826.083 65.066 817.061 68.7311 809.909L65.1714 808.085C61.3992 815.445 57.5642 824.645 53.6618 835.663L57.4323 836.998ZM68.7227 809.926C72.2848 803.129 77.481 797.233 84.3602 792.242L82.0111 789.004C74.6815 794.322 69.0548 800.676 65.1799 808.069L68.7227 809.926ZM84.3602 792.242C91.0301 787.402 99.6922 784.982 110.509 785.151L110.571 781.152C99.124 780.973 89.5499 783.534 82.0111 789.004L84.3602 792.242ZM110.538 785.151C121.317 785.163 130.322 787.901 137.664 793.267L140.025 790.038C131.892 784.094 122.027 781.164 110.542 781.151L110.538 785.151ZM137.659 793.263C145.237 798.843 150.98 806.368 154.875 815.903L158.578 814.39C154.429 804.234 148.25 796.095 140.03 790.042L137.659 793.263ZM154.871 815.892C158.784 825.628 160.753 836.584 160.739 848.789L164.739 848.793C164.753 836.153 162.713 824.679 158.582 814.401L154.871 815.892ZM160.739 848.789C160.716 869.466 155.928 885.592 146.596 897.386L149.732 899.868C159.787 887.161 164.716 870.063 164.739 848.793L160.739 848.789ZM146.588 897.396C137.303 909.284 124.247 915.577 107.173 916.185L107.316 920.183C125.414 919.538 139.637 912.794 149.74 899.858L146.588 897.396ZM109.244 918.186L109.308 860.348L105.308 860.344L105.244 918.182L109.244 918.186ZM107.373 862.345C112.45 862.181 116.558 860.91 119.183 858.09L116.254 855.365C114.679 857.058 111.847 858.198 107.244 858.347L107.373 862.345ZM119.183 858.09C121.644 855.445 122.869 852.21 122.874 848.505L118.874 848.501C118.871 851.248 117.993 853.497 116.254 855.365L119.183 858.09ZM122.874 848.505C122.877 845.706 121.851 843.3 119.799 841.449L117.12 844.419C118.292 845.476 118.875 846.783 118.874 848.501L122.874 848.505ZM119.876 841.521C117.938 839.58 115.262 838.753 112.172 838.749L112.168 842.749C114.564 842.752 116.081 843.381 117.044 844.347L119.876 841.521ZM112.172 838.749C107.414 838.744 103.618 841.381 100.781 845.98L104.185 848.08C106.52 844.296 109.182 842.746 112.168 842.749L112.172 838.749ZM100.736 846.057C98.2379 850.542 95.2043 857.506 91.6372 866.879L95.3756 868.302C98.928 858.968 101.879 852.226 104.23 848.004L100.736 846.057ZM91.6334 866.889C87.6064 877.645 83.76 886.425 80.0984 893.252L83.6235 895.143C87.3986 888.104 91.3158 879.146 95.3794 868.292L91.6334 866.889ZM80.0895 893.269C76.5098 900.099 71.53 906.006 65.1238 910.994L67.5814 914.15C74.4159 908.828 79.7751 902.485 83.6324 895.126L80.0895 893.269ZM65.1238 910.994C58.9193 915.826 51.0657 918.3 41.4202 918.289L41.4158 922.289C51.7757 922.3 60.5451 919.63 67.5814 914.15L65.1238 910.994ZM41.4202 918.289C31.2788 918.278 22.2108 915.776 14.1627 910.811L12.0625 914.216C20.7817 919.595 30.5839 922.277 41.4158 922.289L41.4202 918.289ZM14.1775 910.821C6.31529 905.875 0.110081 898.675 -4.41522 889.129L-8.02967 890.843C-3.21943 900.99 3.46538 908.808 12.0478 914.206L14.1775 910.821ZM-4.41522 889.129C-8.92861 879.609 -11.2163 868.216 -11.2016 854.891L-15.2016 854.886C-15.2168 868.665 -12.8518 880.671 -8.02967 890.843L-4.41522 889.129Z" fill="url(#paint0_linear_2146_10009)"/>
<defs>
<linearGradient id="paint0_linear_2146_10009" x1="254.929" y1="460.576" x2="-12.5979" y2="461.622" gradientUnits="userSpaceOnUse">
<stop offset="0.265625" stop-color="#03AFD0"/>
<stop offset="1" stop-opacity="0.6"/>
</linearGradient>
</defs>
</svg>
