<svg width="29" height="29" viewBox="0 0 29 29" fill="none" xmlns="http://www.w3.org/2000/svg">
<path d="M24.0788 0C23.4337 0.00156225 22.7952 0.130855 22.2003 0.380419C21.6054 0.629983 21.0657 0.994879 20.6126 1.45406L1.75101 20.315L1.67706 20.6884L0.37215 27.2489L0 29L1.7522 28.6278L8.31254 27.3229L8.68469 27.2477L27.5462 8.38676C28.0066 7.93435 28.3722 7.39478 28.6218 6.79953C28.8715 6.20428 29 5.56528 29 4.91981C29 4.27435 28.8715 3.63535 28.6218 3.0401C28.3722 2.44485 28.0066 1.90527 27.5462 1.45286C27.0928 0.993759 26.5529 0.629001 25.9578 0.379639C25.3627 0.130277 24.7241 0.00124885 24.0788 0ZM24.0788 2.27353C24.68 2.27353 25.2859 2.54788 25.868 3.13117C27.0286 4.2906 27.0286 5.54903 25.868 6.70965L25.0116 7.52912L21.469 3.98762L22.2896 3.13117C22.8729 2.54788 23.4776 2.27353 24.0788 2.27353ZM19.7931 5.66593L23.3333 9.20743L8.90893 23.6311C8.13022 22.1075 6.89046 20.8685 5.36635 20.0908L19.7931 5.66593Z" fill="white"/>
</svg>
