<svg width="967" height="1336" viewBox="0 0 967 1336" fill="none" xmlns="http://www.w3.org/2000/svg">
	<path
		d="M214.747 1256.67C183.024 1281.59 151.3 1306.51 114.105 1335.72C89.5543 1208.61 58.2007 1093.91 0.078125 983.511C24.7026 963.249 52.2109 940.548 79.7193 917.92C85.1175 917.624 90.5156 917.328 95.9138 917.032C78.3883 935.593 60.8628 954.08 39.4181 976.782C95.3222 966.059 145.754 957.999 195.151 945.724C206.983 942.766 222.068 926.941 223.916 915.184C228.205 888.119 225.247 859.871 225.247 829.405C214.599 832.511 207.722 834.507 200.845 836.43L260.003 704.36L249.946 699.997C239.667 709.758 229.389 719.445 219.184 729.206C237.597 694.008 256.305 659.03 274.275 623.61C305.184 562.603 335.873 501.449 366.117 440.147C381.72 408.571 399.467 377.513 410.633 344.311C446.498 238.049 481.179 131.195 473.71 16.2809C473.414 11.2525 483.102 5.55858 488.204 0.234375C491.827 5.63252 498.483 10.9567 498.63 16.4288C501.588 156.781 533.312 290.108 596.315 415.596C624.637 472.018 653.698 528.144 683.425 583.9C712.486 638.325 742.952 692.085 772.827 746.14C758.037 732.534 743.248 719.002 728.458 705.469C656.286 793.762 656.951 841.015 732.526 902.021C743.1 887.306 753.601 872.59 764.101 857.949L770.608 863.421C762.4 879.467 754.192 895.44 743.544 916.293C807.434 935.519 867.479 953.488 927.451 971.532L930.778 965.172C912.217 941.065 893.583 917.032 875.022 892.926L881.381 887.601C911.774 920.804 942.24 954.006 966.643 980.701C929.151 1095.17 892.326 1207.65 854.095 1324.41C770.534 1281 692.372 1226.13 656.508 1126.89C664.272 1135.47 674.181 1142.94 679.284 1152.92C689.193 1172.3 703.169 1177.55 722.912 1171.34C721.212 1182.43 713.965 1197.66 718.624 1203.87C749.681 1244.91 786.285 1279.97 845.295 1301.56C831.985 1237 820.375 1180.58 808.322 1122.09C777.042 1140.06 750.125 1155.59 723.208 1171.04C745.392 1151.22 767.503 1131.41 793.606 1108.04C739.329 1091.25 688.379 1075.5 632.327 1058.12C642.162 1086.22 649.335 1106.49 656.434 1126.75C640.905 1101.01 621.383 1076.83 610.587 1049.18C579.751 970.348 551.946 890.337 523.92 810.474C511.201 774.166 500.775 737.119 486.725 692.307C481.179 708.945 477.038 719.371 474.228 730.168C458.329 790.804 447.903 853.512 425.718 911.708C398.802 982.402 363.381 1049.99 328.922 1117.58C315.759 1143.46 295.128 1165.5 277.898 1189.31C306.811 1141.17 278.342 1101.83 257.415 1052.5C215.93 1135.55 177.699 1212.16 139.469 1288.77L146.863 1295.35C169.491 1282.41 192.193 1269.46 214.821 1256.52L214.747 1256.67ZM269.986 927.607C308.29 920.952 347.113 916.367 384.826 907.123C420.394 898.398 440.582 841.754 419.877 816.242C418.915 812.767 417.732 806.259 416.919 806.333C362.42 809.439 307.921 811.953 253.717 818.017C247.062 818.756 236.857 839.018 238.04 849.075C241.146 874.809 222.068 904.387 249.428 926.276C250.094 926.793 251.795 926.054 252.978 925.98C258.598 926.572 264.292 927.089 269.912 927.681L269.986 927.607ZM609.256 1020.93L620.496 1018.27C628.63 961.475 637.725 904.831 643.937 847.892C644.898 838.796 635.433 824.007 626.781 819.2C597.128 802.858 565.701 789.769 534.939 775.423L526.878 780.674C554.387 860.759 581.821 940.917 609.33 1021L609.256 1020.93ZM646.747 1031.06L651.11 1038.01C740.734 1022.04 830.284 1005.99 919.908 990.018C865.261 966.06 810.614 948.756 755.375 933.892C745.614 931.23 729.272 935.223 722.469 942.396C695.774 970.644 671.741 1001.33 646.747 1031.06ZM252.016 769.656C316.498 737.341 381.202 704.804 455.963 667.386C396.805 661.101 348.518 655.185 300.008 651.562C292.835 651.044 280.042 659.696 277.972 666.499C267.397 702.364 259.411 739.041 251.942 769.656H252.016ZM665.603 1050.14C799.078 1106.26 849.214 1096.65 930.039 1002.74C843.003 1018.34 758.999 1033.43 665.603 1050.14ZM133.553 1270.72C173.041 1191.01 207.5 1121.42 244.474 1046.81C218.74 1050.21 198.183 1049.32 180.953 1056.42C168.16 1061.67 152.188 1076.24 150.487 1088.44C142.722 1145.23 139.395 1202.69 133.553 1270.72ZM179.178 1035.05C274.275 1041.78 318.199 970.94 376.987 926.424C302.374 942.544 215.412 935.889 179.178 1035.05ZM585.297 440.073C558.454 481.039 536.048 515.129 510.092 554.617C561.56 563.343 605.041 570.737 655.103 579.241C630.109 529.475 609.33 487.99 585.297 440.147V440.073ZM473.193 342.906C446.941 372.189 429.268 393.782 409.524 413.452C389.336 433.565 395.178 448.872 413.739 465.437C428.381 478.451 441.026 493.61 454.928 507.513C462.84 515.425 471.566 522.524 487.76 537.091C482.584 468.838 478.369 411.899 473.119 342.906H473.193ZM485.394 342.906C491.088 412.712 495.894 471.426 500.701 530.14C527.47 502.558 548.101 473.94 565.183 443.4C569.62 435.488 566.958 417.519 560.598 410.79C540.041 388.975 516.23 370.192 485.394 342.98V342.906ZM295.793 622.944C346.299 606.454 381.128 582.865 405.753 546.187C430.895 508.696 423.648 484.811 380.906 459.891C353.842 511.654 326.851 563.417 295.793 622.944ZM499.74 669.531C504.103 690.828 504.99 706.8 510.98 720.628C514.899 729.65 528.357 742.887 534.051 741.334C582.93 727.875 630.996 711.459 679.284 695.856L677.953 686.909C621.383 681.363 564.813 675.816 499.74 669.457V669.531ZM208.092 956.151C148.786 968.13 96.1356 978.704 36.9778 990.61C153.001 1050.06 138.951 1060.27 208.092 956.151ZM535.752 651.932L537.083 658.365C592.987 663.615 648.891 668.939 712.338 674.929C699.545 653.484 693.555 637.882 682.833 627.011C674.181 618.286 657.691 608.155 648.226 610.891C609.995 621.983 573.169 637.882 535.9 651.932H535.752ZM635.803 1022.48C655.99 998.67 670.04 982.18 683.942 965.616C724.613 917.106 718.845 888.415 659.688 854.251C652.071 907.715 644.602 960.292 635.803 1022.48ZM442.431 518.457C455.815 555.726 467.277 587.819 481.253 626.568C493.676 577.91 486.873 544.042 442.431 518.457ZM483.989 250.842L487.391 250.324C489.461 204.994 491.605 159.739 493.676 114.409L483.989 113.965V250.842Z"
		fill="#454545" fill-opacity="0.69" />
</svg>