<svg width="137" height="118" viewBox="0 0 137 118" fill="none" xmlns="http://www.w3.org/2000/svg">
    <path d="M111.293 48.358V45.858H109.271L108.849 47.8354L111.293 48.358ZM106.841 69.187L104.397 68.6645L103.751 71.687H106.841V69.187ZM125.921 69.187H128.421V66.687H125.921V69.187ZM125.921 93.673V96.173H128.421V93.673H125.921ZM101.594 93.673V91.173H99.5761L99.1506 93.1459L101.594 93.673ZM96.3474 118V120.5H98.3657L98.7912 118.527L96.3474 118ZM70.9074 118L68.4636 117.473L67.8107 120.5H70.9074V118ZM76.1544 93.673L78.5982 94.2001L79.2511 91.173H76.1544V93.673ZM49.7604 93.673V91.173H47.7421L47.3166 93.1459L49.7604 93.673ZM44.5134 118V120.5H46.5317L46.9572 118.527L44.5134 118ZM19.0734 118L16.6296 117.473L15.9767 120.5H19.0734V118ZM24.3204 93.673L26.7642 94.2001L27.4171 91.173H24.3204V93.673ZM0.788399 93.673H-1.7116V96.173H0.788399V93.673ZM0.788399 69.187V66.687H-1.7116V69.187H0.788399ZM29.5674 69.187V71.687H31.5895L32.0122 69.7095L29.5674 69.187ZM34.0194 48.358L36.4642 48.8805L37.1102 45.858H34.0194V48.358ZM10.9644 48.358H8.4644V50.858H10.9644V48.358ZM10.9644 23.872V21.372H8.4644V23.872H10.9644ZM39.1074 23.872V26.372H41.1246L41.5509 24.4003L39.1074 23.872ZM44.1954 0.339998V-2.16H42.1782L41.7519 -0.188334L44.1954 0.339998ZM69.6354 0.339998L72.0789 0.86833L72.7337 -2.16H69.6354V0.339998ZM64.5474 23.872L62.1039 23.3437L61.4491 26.372H64.5474V23.872ZM90.9414 23.872V26.372H92.9586L93.3849 24.4003L90.9414 23.872ZM96.0294 0.339998V-2.16H94.0122L93.5859 -0.188334L96.0294 0.339998ZM121.469 0.339998L123.913 0.868331L124.568 -2.16H121.469V0.339998ZM116.381 23.872L113.938 23.3437L113.283 26.372H116.381V23.872ZM136.097 23.872H138.597V21.372H136.097V23.872ZM136.097 48.358V50.858H138.597V48.358H136.097ZM85.8534 48.358L88.2982 48.8805L88.9442 45.858H85.8534V48.358ZM59.4594 48.358V45.858H57.4373L57.0146 47.8354L59.4594 48.358ZM55.0074 69.187L52.5626 68.6645L51.9166 71.687H55.0074V69.187ZM81.4014 69.187V71.687H83.4235L83.8462 69.7095L81.4014 69.187ZM108.849 47.8354L104.397 68.6645L109.286 69.7095L113.738 48.8805L108.849 47.8354ZM106.841 71.687H125.921V66.687H106.841V71.687ZM123.421 69.187V93.673H128.421V69.187H123.421ZM125.921 91.173H101.594V96.173H125.921V91.173ZM99.1506 93.1459L93.9036 117.473L98.7912 118.527L104.038 94.2001L99.1506 93.1459ZM96.3474 115.5H70.9074V120.5H96.3474V115.5ZM73.3512 118.527L78.5982 94.2001L73.7106 93.1459L68.4636 117.473L73.3512 118.527ZM76.1544 91.173H49.7604V96.173H76.1544V91.173ZM47.3166 93.1459L42.0696 117.473L46.9572 118.527L52.2042 94.2001L47.3166 93.1459ZM44.5134 115.5H19.0734V120.5H44.5134V115.5ZM21.5172 118.527L26.7642 94.2001L21.8766 93.1459L16.6296 117.473L21.5172 118.527ZM24.3204 91.173H0.788399V96.173H24.3204V91.173ZM3.2884 93.673V69.187H-1.7116V93.673H3.2884ZM0.788399 71.687H29.5674V66.687H0.788399V71.687ZM32.0122 69.7095L36.4642 48.8805L31.5746 47.8354L27.1226 68.6645L32.0122 69.7095ZM34.0194 45.858H10.9644V50.858H34.0194V45.858ZM13.4644 48.358V23.872H8.4644V48.358H13.4644ZM10.9644 26.372H39.1074V21.372H10.9644V26.372ZM41.5509 24.4003L46.6389 0.868331L41.7519 -0.188334L36.6639 23.3437L41.5509 24.4003ZM44.1954 2.84H69.6354V-2.16H44.1954V2.84ZM67.1919 -0.188334L62.1039 23.3437L66.9909 24.4003L72.0789 0.86833L67.1919 -0.188334ZM64.5474 26.372H90.9414V21.372H64.5474V26.372ZM93.3849 24.4003L98.4729 0.868331L93.5859 -0.188334L88.4979 23.3437L93.3849 24.4003ZM96.0294 2.84H121.469V-2.16H96.0294V2.84ZM119.026 -0.188334L113.938 23.3437L118.825 24.4003L123.913 0.868331L119.026 -0.188334ZM116.381 26.372H136.097V21.372H116.381V26.372ZM133.597 23.872V48.358H138.597V23.872H133.597ZM136.097 45.858H111.293V50.858H136.097V45.858ZM85.8534 45.858H59.4594V50.858H85.8534V45.858ZM57.0146 47.8354L52.5626 68.6645L57.4522 69.7095L61.9042 48.8805L57.0146 47.8354ZM55.0074 71.687H81.4014V66.687H55.0074V71.687ZM83.8462 69.7095L88.2982 48.8805L83.4086 47.8354L78.9566 68.6645L83.8462 69.7095Z" fill="#A16BFF"/>
    </svg>
    