<svg width="265" height="807" viewBox="0 0 265 807" fill="none" xmlns="http://www.w3.org/2000/svg">
    <g filter="url(#filter0_dd_1211_7825)">
    <rect x="48" y="31" width="172" height="221" rx="31" fill="#1A1C20"/>
    </g>
    <g filter="url(#filter1_dd_1211_7825)">
    <circle cx="220" cy="135" r="36" fill="#131312"/>
    </g>
    <path d="M209.699 122.073H208.499V123.273H209.699V122.073ZM209.699 112.068V110.868H208.499V112.068H209.699ZM227.128 112.068H228.328V110.868H227.128V112.068ZM227.128 158V159.2H228.328V158H227.128ZM215.928 158H214.728V159.2H215.928V158ZM215.928 122.073H217.128V120.873H215.928V122.073ZM210.899 122.073V112.068H208.499V122.073H210.899ZM209.699 113.268H227.128V110.868H209.699V113.268ZM225.928 112.068V158H228.328V112.068H225.928ZM227.128 156.8H215.928V159.2H227.128V156.8ZM217.128 158V122.073H214.728V158H217.128ZM215.928 120.873H209.699V123.273H215.928V120.873Z" fill="#603CA5"/>
    <path d="M69.104 109L66.448 104.44H64.688V109H63.232V97.848H66.832C67.6747 97.848 68.384 97.992 68.96 98.28C69.5467 98.568 69.984 98.9573 70.272 99.448C70.56 99.9387 70.704 100.499 70.704 101.128C70.704 101.896 70.48 102.573 70.032 103.16C69.5947 103.747 68.9333 104.136 68.048 104.328L70.848 109H69.104ZM64.688 103.272H66.832C67.6213 103.272 68.2133 103.08 68.608 102.696C69.0027 102.301 69.2 101.779 69.2 101.128C69.2 100.467 69.0027 99.9547 68.608 99.592C68.224 99.2293 67.632 99.048 66.832 99.048H64.688V103.272ZM80.9664 104.28C80.9664 104.557 80.9504 104.851 80.9184 105.16H73.9104C73.9637 106.024 74.257 106.701 74.7904 107.192C75.3344 107.672 75.9904 107.912 76.7584 107.912C77.3877 107.912 77.9104 107.768 78.3264 107.48C78.753 107.181 79.0517 106.787 79.2224 106.296H80.7904C80.5557 107.139 80.0864 107.827 79.3824 108.36C78.6784 108.883 77.8037 109.144 76.7584 109.144C75.9264 109.144 75.1797 108.957 74.5184 108.584C73.8677 108.211 73.3557 107.683 72.9824 107C72.609 106.307 72.4224 105.507 72.4224 104.6C72.4224 103.693 72.6037 102.899 72.9664 102.216C73.329 101.533 73.8357 101.011 74.4864 100.648C75.1477 100.275 75.905 100.088 76.7584 100.088C77.5904 100.088 78.3264 100.269 78.9664 100.632C79.6064 100.995 80.097 101.496 80.4384 102.136C80.7904 102.765 80.9664 103.48 80.9664 104.28ZM79.4624 103.976C79.4624 103.421 79.3397 102.947 79.0944 102.552C78.849 102.147 78.513 101.843 78.0864 101.64C77.6704 101.427 77.2064 101.32 76.6944 101.32C75.9584 101.32 75.329 101.555 74.8064 102.024C74.2944 102.493 74.001 103.144 73.9264 103.976H79.4624ZM85.9923 109.144C85.3203 109.144 84.7176 109.032 84.1843 108.808C83.6509 108.573 83.2296 108.253 82.9203 107.848C82.6109 107.432 82.4403 106.957 82.4083 106.424H83.9123C83.9549 106.861 84.1576 107.219 84.5203 107.496C84.8936 107.773 85.3789 107.912 85.9763 107.912C86.5309 107.912 86.9683 107.789 87.2883 107.544C87.6083 107.299 87.7683 106.989 87.7683 106.616C87.7683 106.232 87.5976 105.949 87.2563 105.768C86.9149 105.576 86.3869 105.389 85.6723 105.208C85.0216 105.037 84.4883 104.867 84.0723 104.696C83.6669 104.515 83.3149 104.253 83.0163 103.912C82.7283 103.56 82.5843 103.101 82.5843 102.536C82.5843 102.088 82.7176 101.677 82.9843 101.304C83.2509 100.931 83.6296 100.637 84.1203 100.424C84.6109 100.2 85.1709 100.088 85.8003 100.088C86.7709 100.088 87.5549 100.333 88.1523 100.824C88.7496 101.315 89.0696 101.987 89.1123 102.84H87.6563C87.6243 102.381 87.4376 102.013 87.0963 101.736C86.7656 101.459 86.3176 101.32 85.7523 101.32C85.2296 101.32 84.8136 101.432 84.5043 101.656C84.1949 101.88 84.0403 102.173 84.0403 102.536C84.0403 102.824 84.1309 103.064 84.3123 103.256C84.5043 103.437 84.7389 103.587 85.0163 103.704C85.3043 103.811 85.6989 103.933 86.2003 104.072C86.8296 104.243 87.3416 104.413 87.7363 104.584C88.1309 104.744 88.4669 104.989 88.7443 105.32C89.0323 105.651 89.1816 106.083 89.1923 106.616C89.1923 107.096 89.0589 107.528 88.7923 107.912C88.5256 108.296 88.1469 108.6 87.6563 108.824C87.1763 109.037 86.6216 109.144 85.9923 109.144ZM92.7036 101.848C92.9916 101.347 93.4183 100.931 93.9836 100.6C94.5596 100.259 95.2263 100.088 95.9836 100.088C96.7623 100.088 97.4663 100.275 98.0956 100.648C98.7356 101.021 99.237 101.549 99.5996 102.232C99.9623 102.904 100.144 103.688 100.144 104.584C100.144 105.469 99.9623 106.259 99.5996 106.952C99.237 107.645 98.7356 108.184 98.0956 108.568C97.4663 108.952 96.7623 109.144 95.9836 109.144C95.237 109.144 94.5756 108.979 93.9996 108.648C93.4343 108.307 93.0023 107.885 92.7036 107.384V113.16H91.2476V100.232H92.7036V101.848ZM98.6556 104.584C98.6556 103.923 98.5223 103.347 98.2556 102.856C97.989 102.365 97.6263 101.992 97.1676 101.736C96.7196 101.48 96.2236 101.352 95.6796 101.352C95.1463 101.352 94.6503 101.485 94.1916 101.752C93.7436 102.008 93.381 102.387 93.1036 102.888C92.837 103.379 92.7036 103.949 92.7036 104.6C92.7036 105.261 92.837 105.843 93.1036 106.344C93.381 106.835 93.7436 107.213 94.1916 107.48C94.6503 107.736 95.1463 107.864 95.6796 107.864C96.2236 107.864 96.7196 107.736 97.1676 107.48C97.6263 107.213 97.989 106.835 98.2556 106.344C98.5223 105.843 98.6556 105.256 98.6556 104.584ZM101.516 104.6C101.516 103.693 101.697 102.904 102.06 102.232C102.423 101.549 102.924 101.021 103.564 100.648C104.215 100.275 104.956 100.088 105.788 100.088C106.865 100.088 107.751 100.349 108.444 100.872C109.148 101.395 109.612 102.12 109.836 103.048H108.268C108.119 102.515 107.825 102.093 107.388 101.784C106.961 101.475 106.428 101.32 105.788 101.32C104.956 101.32 104.284 101.608 103.772 102.184C103.26 102.749 103.004 103.555 103.004 104.6C103.004 105.656 103.26 106.472 103.772 107.048C104.284 107.624 104.956 107.912 105.788 107.912C106.428 107.912 106.961 107.763 107.388 107.464C107.815 107.165 108.108 106.739 108.268 106.184H109.836C109.601 107.08 109.132 107.8 108.428 108.344C107.724 108.877 106.844 109.144 105.788 109.144C104.956 109.144 104.215 108.957 103.564 108.584C102.924 108.211 102.423 107.683 102.06 107C101.697 106.317 101.516 105.517 101.516 104.6ZM113.555 101.432V106.6C113.555 107.027 113.646 107.331 113.827 107.512C114.008 107.683 114.323 107.768 114.771 107.768H115.843V109H114.531C113.72 109 113.112 108.813 112.707 108.44C112.302 108.067 112.099 107.453 112.099 106.6V101.432H110.963V100.232H112.099V98.024H113.555V100.232H115.843V101.432H113.555ZM122.625 98.808C122.347 98.808 122.113 98.712 121.921 98.52C121.729 98.328 121.633 98.0933 121.633 97.816C121.633 97.5387 121.729 97.304 121.921 97.112C122.113 96.92 122.347 96.824 122.625 96.824C122.891 96.824 123.115 96.92 123.297 97.112C123.489 97.304 123.585 97.5387 123.585 97.816C123.585 98.0933 123.489 98.328 123.297 98.52C123.115 98.712 122.891 98.808 122.625 98.808ZM123.329 100.232V109H121.873V100.232H123.329ZM128.914 109.144C128.242 109.144 127.639 109.032 127.106 108.808C126.573 108.573 126.151 108.253 125.842 107.848C125.533 107.432 125.362 106.957 125.33 106.424H126.834C126.877 106.861 127.079 107.219 127.442 107.496C127.815 107.773 128.301 107.912 128.898 107.912C129.453 107.912 129.89 107.789 130.21 107.544C130.53 107.299 130.69 106.989 130.69 106.616C130.69 106.232 130.519 105.949 130.178 105.768C129.837 105.576 129.309 105.389 128.594 105.208C127.943 105.037 127.41 104.867 126.994 104.696C126.589 104.515 126.237 104.253 125.938 103.912C125.65 103.56 125.506 103.101 125.506 102.536C125.506 102.088 125.639 101.677 125.906 101.304C126.173 100.931 126.551 100.637 127.042 100.424C127.533 100.2 128.093 100.088 128.722 100.088C129.693 100.088 130.477 100.333 131.074 100.824C131.671 101.315 131.991 101.987 132.034 102.84H130.578C130.546 102.381 130.359 102.013 130.018 101.736C129.687 101.459 129.239 101.32 128.674 101.32C128.151 101.32 127.735 101.432 127.426 101.656C127.117 101.88 126.962 102.173 126.962 102.536C126.962 102.824 127.053 103.064 127.234 103.256C127.426 103.437 127.661 103.587 127.938 103.704C128.226 103.811 128.621 103.933 129.122 104.072C129.751 104.243 130.263 104.413 130.658 104.584C131.053 104.744 131.389 104.989 131.666 105.32C131.954 105.651 132.103 106.083 132.114 106.616C132.114 107.096 131.981 107.528 131.714 107.912C131.447 108.296 131.069 108.6 130.578 108.824C130.098 109.037 129.543 109.144 128.914 109.144ZM137.891 104.584C137.891 103.688 138.072 102.904 138.435 102.232C138.798 101.549 139.294 101.021 139.923 100.648C140.563 100.275 141.272 100.088 142.051 100.088C142.819 100.088 143.486 100.253 144.051 100.584C144.616 100.915 145.038 101.331 145.315 101.832V100.232H146.787V109H145.315V107.368C145.027 107.88 144.595 108.307 144.019 108.648C143.454 108.979 142.792 109.144 142.035 109.144C141.256 109.144 140.552 108.952 139.923 108.568C139.294 108.184 138.798 107.645 138.435 106.952C138.072 106.259 137.891 105.469 137.891 104.584ZM145.315 104.6C145.315 103.939 145.182 103.363 144.915 102.872C144.648 102.381 144.286 102.008 143.827 101.752C143.379 101.485 142.883 101.352 142.339 101.352C141.795 101.352 141.299 101.48 140.851 101.736C140.403 101.992 140.046 102.365 139.779 102.856C139.512 103.347 139.379 103.923 139.379 104.584C139.379 105.256 139.512 105.843 139.779 106.344C140.046 106.835 140.403 107.213 140.851 107.48C141.299 107.736 141.795 107.864 142.339 107.864C142.883 107.864 143.379 107.736 143.827 107.48C144.286 107.213 144.648 106.835 144.915 106.344C145.182 105.843 145.315 105.261 145.315 104.6ZM62.688 126.6C62.688 125.693 62.8693 124.904 63.232 124.232C63.5947 123.549 64.096 123.021 64.736 122.648C65.3867 122.275 66.128 122.088 66.96 122.088C68.0373 122.088 68.9227 122.349 69.616 122.872C70.32 123.395 70.784 124.12 71.008 125.048H69.44C69.2907 124.515 68.9973 124.093 68.56 123.784C68.1333 123.475 67.6 123.32 66.96 123.32C66.128 123.32 65.456 123.608 64.944 124.184C64.432 124.749 64.176 125.555 64.176 126.6C64.176 127.656 64.432 128.472 64.944 129.048C65.456 129.624 66.128 129.912 66.96 129.912C67.6 129.912 68.1333 129.763 68.56 129.464C68.9867 129.165 69.28 128.739 69.44 128.184H71.008C70.7733 129.08 70.304 129.8 69.6 130.344C68.896 130.877 68.016 131.144 66.96 131.144C66.128 131.144 65.3867 130.957 64.736 130.584C64.096 130.211 63.5947 129.683 63.232 129C62.8693 128.317 62.688 127.517 62.688 126.6ZM74.4068 123.656C74.6628 123.155 75.0254 122.765 75.4948 122.488C75.9748 122.211 76.5561 122.072 77.2388 122.072V123.576H76.8548C75.2228 123.576 74.4068 124.461 74.4068 126.232V131H72.9508V122.232H74.4068V123.656ZM86.9195 126.28C86.9195 126.557 86.9035 126.851 86.8715 127.16H79.8635C79.9168 128.024 80.2102 128.701 80.7435 129.192C81.2875 129.672 81.9435 129.912 82.7115 129.912C83.3408 129.912 83.8635 129.768 84.2795 129.48C84.7062 129.181 85.0048 128.787 85.1755 128.296H86.7435C86.5088 129.139 86.0395 129.827 85.3355 130.36C84.6315 130.883 83.7568 131.144 82.7115 131.144C81.8795 131.144 81.1328 130.957 80.4715 130.584C79.8208 130.211 79.3088 129.683 78.9355 129C78.5622 128.307 78.3755 127.507 78.3755 126.6C78.3755 125.693 78.5568 124.899 78.9195 124.216C79.2822 123.533 79.7888 123.011 80.4395 122.648C81.1008 122.275 81.8582 122.088 82.7115 122.088C83.5435 122.088 84.2795 122.269 84.9195 122.632C85.5595 122.995 86.0502 123.496 86.3915 124.136C86.7435 124.765 86.9195 125.48 86.9195 126.28ZM85.4155 125.976C85.4155 125.421 85.2928 124.947 85.0475 124.552C84.8022 124.147 84.4662 123.843 84.0395 123.64C83.6235 123.427 83.1595 123.32 82.6475 123.32C81.9115 123.32 81.2822 123.555 80.7595 124.024C80.2475 124.493 79.9542 125.144 79.8795 125.976H85.4155ZM88.2974 126.584C88.2974 125.688 88.4787 124.904 88.8414 124.232C89.204 123.549 89.7 123.021 90.3294 122.648C90.9694 122.275 91.6787 122.088 92.4574 122.088C93.2254 122.088 93.892 122.253 94.4574 122.584C95.0227 122.915 95.444 123.331 95.7214 123.832V122.232H97.1934V131H95.7214V129.368C95.4334 129.88 95.0014 130.307 94.4254 130.648C93.86 130.979 93.1987 131.144 92.4414 131.144C91.6627 131.144 90.9587 130.952 90.3294 130.568C89.7 130.184 89.204 129.645 88.8414 128.952C88.4787 128.259 88.2974 127.469 88.2974 126.584ZM95.7214 126.6C95.7214 125.939 95.588 125.363 95.3214 124.872C95.0547 124.381 94.692 124.008 94.2334 123.752C93.7854 123.485 93.2894 123.352 92.7454 123.352C92.2014 123.352 91.7054 123.48 91.2574 123.736C90.8094 123.992 90.452 124.365 90.1854 124.856C89.9187 125.347 89.7854 125.923 89.7854 126.584C89.7854 127.256 89.9187 127.843 90.1854 128.344C90.452 128.835 90.8094 129.213 91.2574 129.48C91.7054 129.736 92.2014 129.864 92.7454 129.864C93.2894 129.864 93.7854 129.736 94.2334 129.48C94.692 129.213 95.0547 128.835 95.3214 128.344C95.588 127.843 95.7214 127.261 95.7214 126.6ZM101.43 123.432V128.6C101.43 129.027 101.521 129.331 101.702 129.512C101.883 129.683 102.198 129.768 102.646 129.768H103.718V131H102.406C101.595 131 100.987 130.813 100.582 130.44C100.177 130.067 99.9739 129.453 99.9739 128.6V123.432H98.8379V122.232H99.9739V120.024H101.43V122.232H103.718V123.432H101.43ZM109.306 131.144C108.485 131.144 107.738 130.957 107.066 130.584C106.405 130.211 105.882 129.683 105.498 129C105.125 128.307 104.938 127.507 104.938 126.6C104.938 125.704 105.13 124.915 105.514 124.232C105.909 123.539 106.442 123.011 107.114 122.648C107.786 122.275 108.538 122.088 109.37 122.088C110.202 122.088 110.954 122.275 111.626 122.648C112.298 123.011 112.826 123.533 113.21 124.216C113.605 124.899 113.802 125.693 113.802 126.6C113.802 127.507 113.599 128.307 113.194 129C112.799 129.683 112.261 130.211 111.578 130.584C110.895 130.957 110.138 131.144 109.306 131.144ZM109.306 129.864C109.829 129.864 110.319 129.741 110.778 129.496C111.237 129.251 111.605 128.883 111.882 128.392C112.17 127.901 112.314 127.304 112.314 126.6C112.314 125.896 112.175 125.299 111.898 124.808C111.621 124.317 111.258 123.955 110.81 123.72C110.362 123.475 109.877 123.352 109.354 123.352C108.821 123.352 108.33 123.475 107.882 123.72C107.445 123.955 107.093 124.317 106.826 124.808C106.559 125.299 106.426 125.896 106.426 126.6C106.426 127.315 106.554 127.917 106.81 128.408C107.077 128.899 107.429 129.267 107.866 129.512C108.303 129.747 108.783 129.864 109.306 129.864ZM117.172 123.656C117.428 123.155 117.791 122.765 118.26 122.488C118.74 122.211 119.322 122.072 120.004 122.072V123.576H119.62C117.988 123.576 117.172 124.461 117.172 126.232V131H115.716V122.232H117.172V123.656ZM127.727 123.432V128.6C127.727 129.027 127.817 129.331 127.999 129.512C128.18 129.683 128.495 129.768 128.943 129.768H130.015V131H128.703C127.892 131 127.284 130.813 126.879 130.44C126.473 130.067 126.271 129.453 126.271 128.6V123.432H125.135V122.232H126.271V120.024H127.727V122.232H130.015V123.432H127.727ZM135.603 131.144C134.782 131.144 134.035 130.957 133.363 130.584C132.702 130.211 132.179 129.683 131.795 129C131.422 128.307 131.235 127.507 131.235 126.6C131.235 125.704 131.427 124.915 131.811 124.232C132.206 123.539 132.739 123.011 133.411 122.648C134.083 122.275 134.835 122.088 135.667 122.088C136.499 122.088 137.251 122.275 137.923 122.648C138.595 123.011 139.123 123.533 139.507 124.216C139.902 124.899 140.099 125.693 140.099 126.6C140.099 127.507 139.896 128.307 139.491 129C139.096 129.683 138.558 130.211 137.875 130.584C137.192 130.957 136.435 131.144 135.603 131.144ZM135.603 129.864C136.126 129.864 136.616 129.741 137.075 129.496C137.534 129.251 137.902 128.883 138.179 128.392C138.467 127.901 138.611 127.304 138.611 126.6C138.611 125.896 138.472 125.299 138.195 124.808C137.918 124.317 137.555 123.955 137.107 123.72C136.659 123.475 136.174 123.352 135.651 123.352C135.118 123.352 134.627 123.475 134.179 123.72C133.742 123.955 133.39 124.317 133.123 124.808C132.856 125.299 132.723 125.896 132.723 126.6C132.723 127.315 132.851 127.917 133.107 128.408C133.374 128.899 133.726 129.267 134.163 129.512C134.6 129.747 135.08 129.864 135.603 129.864ZM146.909 131L143.469 127.128V131H142.013V119.16H143.469V126.12L146.845 122.232H148.877L144.749 126.6L148.893 131H146.909ZM158.248 126.28C158.248 126.557 158.232 126.851 158.2 127.16H151.192C151.245 128.024 151.538 128.701 152.072 129.192C152.616 129.672 153.272 129.912 154.04 129.912C154.669 129.912 155.192 129.768 155.608 129.48C156.034 129.181 156.333 128.787 156.504 128.296H158.072C157.837 129.139 157.368 129.827 156.664 130.36C155.96 130.883 155.085 131.144 154.04 131.144C153.208 131.144 152.461 130.957 151.8 130.584C151.149 130.211 150.637 129.683 150.264 129C149.89 128.307 149.704 127.507 149.704 126.6C149.704 125.693 149.885 124.899 150.248 124.216C150.61 123.533 151.117 123.011 151.768 122.648C152.429 122.275 153.186 122.088 154.04 122.088C154.872 122.088 155.608 122.269 156.248 122.632C156.888 122.995 157.378 123.496 157.72 124.136C158.072 124.765 158.248 125.48 158.248 126.28ZM156.744 125.976C156.744 125.421 156.621 124.947 156.376 124.552C156.13 124.147 155.794 123.843 155.368 123.64C154.952 123.427 154.488 123.32 153.976 123.32C153.24 123.32 152.61 123.555 152.088 124.024C151.576 124.493 151.282 125.144 151.208 125.976H156.744ZM164.442 122.072C165.508 122.072 166.372 122.397 167.034 123.048C167.695 123.688 168.026 124.616 168.026 125.832V131H166.586V126.04C166.586 125.165 166.367 124.499 165.93 124.04C165.492 123.571 164.895 123.336 164.138 123.336C163.37 123.336 162.756 123.576 162.298 124.056C161.85 124.536 161.626 125.235 161.626 126.152V131H160.17V122.232H161.626V123.48C161.914 123.032 162.303 122.685 162.794 122.44C163.295 122.195 163.844 122.072 164.442 122.072ZM64.688 145.848C64.976 145.347 65.4027 144.931 65.968 144.6C66.544 144.259 67.2107 144.088 67.968 144.088C68.7467 144.088 69.4507 144.275 70.08 144.648C70.72 145.021 71.2213 145.549 71.584 146.232C71.9467 146.904 72.128 147.688 72.128 148.584C72.128 149.469 71.9467 150.259 71.584 150.952C71.2213 151.645 70.72 152.184 70.08 152.568C69.4507 152.952 68.7467 153.144 67.968 153.144C67.2213 153.144 66.56 152.979 65.984 152.648C65.4187 152.307 64.9867 151.885 64.688 151.384V157.16H63.232V144.232H64.688V145.848ZM70.64 148.584C70.64 147.923 70.5067 147.347 70.24 146.856C69.9733 146.365 69.6107 145.992 69.152 145.736C68.704 145.48 68.208 145.352 67.664 145.352C67.1307 145.352 66.6347 145.485 66.176 145.752C65.728 146.008 65.3653 146.387 65.088 146.888C64.8213 147.379 64.688 147.949 64.688 148.6C64.688 149.261 64.8213 149.843 65.088 150.344C65.3653 150.835 65.728 151.213 66.176 151.48C66.6347 151.736 67.1307 151.864 67.664 151.864C68.208 151.864 68.704 151.736 69.152 151.48C69.6107 151.213 69.9733 150.835 70.24 150.344C70.5067 149.843 70.64 149.256 70.64 148.584ZM75.5005 141.16V153H74.0445V141.16H75.5005ZM77.438 148.584C77.438 147.688 77.6193 146.904 77.982 146.232C78.3447 145.549 78.8407 145.021 79.47 144.648C80.11 144.275 80.8193 144.088 81.598 144.088C82.366 144.088 83.0327 144.253 83.598 144.584C84.1633 144.915 84.5847 145.331 84.862 145.832V144.232H86.334V153H84.862V151.368C84.574 151.88 84.142 152.307 83.566 152.648C83.0007 152.979 82.3393 153.144 81.582 153.144C80.8033 153.144 80.0993 152.952 79.47 152.568C78.8407 152.184 78.3447 151.645 77.982 150.952C77.6193 150.259 77.438 149.469 77.438 148.584ZM84.862 148.6C84.862 147.939 84.7287 147.363 84.462 146.872C84.1953 146.381 83.8327 146.008 83.374 145.752C82.926 145.485 82.43 145.352 81.886 145.352C81.342 145.352 80.846 145.48 80.398 145.736C79.95 145.992 79.5927 146.365 79.326 146.856C79.0593 147.347 78.926 147.923 78.926 148.584C78.926 149.256 79.0593 149.843 79.326 150.344C79.5927 150.835 79.95 151.213 80.398 151.48C80.846 151.736 81.342 151.864 81.886 151.864C82.43 151.864 82.926 151.736 83.374 151.48C83.8327 151.213 84.1953 150.835 84.462 150.344C84.7287 149.843 84.862 149.261 84.862 148.6ZM90.5705 145.432V150.6C90.5705 151.027 90.6612 151.331 90.8425 151.512C91.0238 151.683 91.3385 151.768 91.7865 151.768H92.8585V153H91.5465C90.7358 153 90.1278 152.813 89.7225 152.44C89.3172 152.067 89.1145 151.453 89.1145 150.6V145.432H87.9785V144.232H89.1145V142.024H90.5705V144.232H92.8585V145.432H90.5705ZM98.1906 145.432H96.3506V153H94.8946V145.432H93.7586V144.232H94.8946V143.608C94.8946 142.627 95.1453 141.912 95.6466 141.464C96.1586 141.005 96.9746 140.776 98.0946 140.776V141.992C97.4546 141.992 97.0013 142.12 96.7346 142.376C96.4786 142.621 96.3506 143.032 96.3506 143.608V144.232H98.1906V145.432ZM103.712 153.144C102.891 153.144 102.144 152.957 101.472 152.584C100.811 152.211 100.288 151.683 99.9043 151C99.5309 150.307 99.3443 149.507 99.3443 148.6C99.3443 147.704 99.5363 146.915 99.9203 146.232C100.315 145.539 100.848 145.011 101.52 144.648C102.192 144.275 102.944 144.088 103.776 144.088C104.608 144.088 105.36 144.275 106.032 144.648C106.704 145.011 107.232 145.533 107.616 146.216C108.011 146.899 108.208 147.693 108.208 148.6C108.208 149.507 108.006 150.307 107.6 151C107.206 151.683 106.667 152.211 105.984 152.584C105.302 152.957 104.544 153.144 103.712 153.144ZM103.712 151.864C104.235 151.864 104.726 151.741 105.184 151.496C105.643 151.251 106.011 150.883 106.288 150.392C106.576 149.901 106.72 149.304 106.72 148.6C106.72 147.896 106.582 147.299 106.304 146.808C106.027 146.317 105.664 145.955 105.216 145.72C104.768 145.475 104.283 145.352 103.76 145.352C103.227 145.352 102.736 145.475 102.288 145.72C101.851 145.955 101.499 146.317 101.232 146.808C100.966 147.299 100.832 147.896 100.832 148.6C100.832 149.315 100.96 149.917 101.216 150.408C101.483 150.899 101.835 151.267 102.272 151.512C102.71 151.747 103.19 151.864 103.712 151.864ZM111.579 145.656C111.835 145.155 112.197 144.765 112.667 144.488C113.147 144.211 113.728 144.072 114.411 144.072V145.576H114.027C112.395 145.576 111.579 146.461 111.579 148.232V153H110.123V144.232H111.579V145.656ZM126.635 144.072C127.318 144.072 127.926 144.216 128.459 144.504C128.993 144.781 129.414 145.203 129.723 145.768C130.033 146.333 130.187 147.021 130.187 147.832V153H128.747V148.04C128.747 147.165 128.529 146.499 128.091 146.04C127.665 145.571 127.083 145.336 126.347 145.336C125.59 145.336 124.987 145.581 124.539 146.072C124.091 146.552 123.867 147.251 123.867 148.168V153H122.427V148.04C122.427 147.165 122.209 146.499 121.771 146.04C121.345 145.571 120.763 145.336 120.027 145.336C119.27 145.336 118.667 145.581 118.219 146.072C117.771 146.552 117.547 147.251 117.547 148.168V153H116.091V144.232H117.547V145.496C117.835 145.037 118.219 144.685 118.699 144.44C119.19 144.195 119.729 144.072 120.315 144.072C121.051 144.072 121.702 144.237 122.267 144.568C122.833 144.899 123.254 145.384 123.531 146.024C123.777 145.405 124.182 144.925 124.747 144.584C125.313 144.243 125.942 144.072 126.635 144.072ZM74.912 166.232L72.176 175H70.672L68.56 168.04L66.448 175H64.944L62.192 166.232H63.68L65.696 173.592L67.872 166.232H69.36L71.488 173.608L73.472 166.232H74.912ZM80.709 166.072C81.3703 166.072 81.9677 166.216 82.501 166.504C83.0343 166.781 83.4503 167.203 83.749 167.768C84.0583 168.333 84.213 169.021 84.213 169.832V175H82.773V170.04C82.773 169.165 82.5543 168.499 82.117 168.04C81.6797 167.571 81.0823 167.336 80.325 167.336C79.557 167.336 78.9437 167.576 78.485 168.056C78.037 168.536 77.813 169.235 77.813 170.152V175H76.357V163.16H77.813V167.48C78.101 167.032 78.4957 166.685 78.997 166.44C79.509 166.195 80.0797 166.072 80.709 166.072ZM94.5914 170.28C94.5914 170.557 94.5754 170.851 94.5434 171.16H87.5354C87.5887 172.024 87.882 172.701 88.4154 173.192C88.9594 173.672 89.6154 173.912 90.3834 173.912C91.0127 173.912 91.5354 173.768 91.9514 173.48C92.378 173.181 92.6767 172.787 92.8474 172.296H94.4154C94.1807 173.139 93.7114 173.827 93.0074 174.36C92.3034 174.883 91.4287 175.144 90.3834 175.144C89.5514 175.144 88.8047 174.957 88.1434 174.584C87.4927 174.211 86.9807 173.683 86.6074 173C86.234 172.307 86.0474 171.507 86.0474 170.6C86.0474 169.693 86.2287 168.899 86.5914 168.216C86.954 167.533 87.4607 167.011 88.1114 166.648C88.7727 166.275 89.53 166.088 90.3834 166.088C91.2154 166.088 91.9514 166.269 92.5914 166.632C93.2314 166.995 93.722 167.496 94.0634 168.136C94.4154 168.765 94.5914 169.48 94.5914 170.28ZM93.0874 169.976C93.0874 169.421 92.9647 168.947 92.7194 168.552C92.474 168.147 92.138 167.843 91.7114 167.64C91.2954 167.427 90.8314 167.32 90.3194 167.32C89.5834 167.32 88.954 167.555 88.4314 168.024C87.9194 168.493 87.626 169.144 87.5514 169.976H93.0874ZM97.9693 167.656C98.2253 167.155 98.5879 166.765 99.0573 166.488C99.5373 166.211 100.119 166.072 100.801 166.072V167.576H100.417C98.7853 167.576 97.9693 168.461 97.9693 170.232V175H96.5133V166.232H97.9693V167.656ZM110.482 170.28C110.482 170.557 110.466 170.851 110.434 171.16H103.426C103.479 172.024 103.773 172.701 104.306 173.192C104.85 173.672 105.506 173.912 106.274 173.912C106.903 173.912 107.426 173.768 107.842 173.48C108.269 173.181 108.567 172.787 108.738 172.296H110.306C110.071 173.139 109.602 173.827 108.898 174.36C108.194 174.883 107.319 175.144 106.274 175.144C105.442 175.144 104.695 174.957 104.034 174.584C103.383 174.211 102.871 173.683 102.498 173C102.125 172.307 101.938 171.507 101.938 170.6C101.938 169.693 102.119 168.899 102.482 168.216C102.845 167.533 103.351 167.011 104.002 166.648C104.663 166.275 105.421 166.088 106.274 166.088C107.106 166.088 107.842 166.269 108.482 166.632C109.122 166.995 109.613 167.496 109.954 168.136C110.306 168.765 110.482 169.48 110.482 170.28ZM108.978 169.976C108.978 169.421 108.855 168.947 108.61 168.552C108.365 168.147 108.029 167.843 107.602 167.64C107.186 167.427 106.722 167.32 106.21 167.32C105.474 167.32 104.845 167.555 104.322 168.024C103.81 168.493 103.517 169.144 103.442 169.976H108.978Z" fill="white"/>
    <g filter="url(#filter2_dd_1211_7825)">
    <rect x="48" y="539" width="172" height="221" rx="31" fill="#1A1C20"/>
    </g>
    <g filter="url(#filter3_dd_1211_7825)">
    <circle cx="220" cy="649" r="36" fill="#131312"/>
    </g>
    <path d="M206.209 639.03L205.01 638.985L204.963 640.23H206.209V639.03ZM210.613 628.648L211.405 629.55H211.405L210.613 628.648ZM229.93 626.635L229.401 627.712L229.409 627.716L229.93 626.635ZM235.026 631.102L233.997 631.719L234.002 631.728L234.007 631.736L235.026 631.102ZM234.712 644.252L235.647 645.005L235.655 644.994L234.712 644.252ZM229.867 647.776L229.48 646.64L228.667 646.917V647.776H229.867ZM229.867 648.027H228.667V648.892L229.487 649.166L229.867 648.027ZM235.53 651.991L236.49 651.271L235.53 651.991ZM235.781 666.023L234.754 665.402L234.75 665.408L235.781 666.023ZM230.559 670.679L230.03 669.601L230.022 669.605L230.559 670.679ZM210.362 668.665L209.595 669.588L209.601 669.593L210.362 668.665ZM205.643 657.465V656.265H204.402L204.443 657.506L205.643 657.465ZM216.087 657.465L217.287 657.438L217.26 656.265H216.087V657.465ZM217.66 661.87L216.779 662.684L216.787 662.692L216.795 662.701L217.66 661.87ZM225.84 662.059L224.973 661.229L224.972 661.23L225.84 662.059ZM225.274 653.942L224.564 654.91L224.582 654.923L224.601 654.935L225.274 653.942ZM217.157 652.558H215.957V653.758H217.157V652.558ZM217.157 643.812V642.612H215.957V643.812H217.157ZM224.33 642.742L224.907 643.794L224.918 643.788L224.33 642.742ZM225.085 635.255L225.933 634.406V634.406L225.085 635.255ZM218.038 635.443L217.113 634.679L217.103 634.691L217.093 634.704L218.038 635.443ZM216.717 639.03V640.23H217.815L217.912 639.135L216.717 639.03ZM207.408 639.075C207.566 634.838 208.937 631.719 211.405 629.55L209.821 627.747C206.752 630.443 205.187 634.245 205.01 638.985L207.408 639.075ZM211.405 629.55C213.898 627.359 217.342 626.199 221.876 626.199V623.799C216.93 623.799 212.865 625.071 209.821 627.747L211.405 629.55ZM221.876 626.199C224.887 626.199 227.381 626.721 229.401 627.712L230.458 625.557C228.032 624.367 225.157 623.799 221.876 623.799V626.199ZM229.409 627.716C231.494 628.72 233.002 630.06 233.997 631.719L236.055 630.485C234.786 628.369 232.896 626.731 230.45 625.553L229.409 627.716ZM234.007 631.736C235.057 633.422 235.588 635.319 235.588 637.457H237.988C237.988 634.897 237.345 632.557 236.045 630.468L234.007 631.736ZM235.588 637.457C235.588 640.021 234.95 642.007 233.768 643.511L235.655 644.994C237.242 642.975 237.988 640.429 237.988 637.457H235.588ZM233.777 643.5C232.516 645.067 231.083 646.094 229.48 646.64L230.254 648.912C232.342 648.2 234.139 646.878 235.646 645.005L233.777 643.5ZM228.667 647.776V648.027H231.067V647.776H228.667ZM229.487 649.166C231.669 649.893 233.345 651.079 234.57 652.711L236.49 651.271C234.945 649.212 232.846 647.756 230.246 646.889L229.487 649.166ZM234.57 652.711C235.762 654.301 236.406 656.4 236.406 659.101H238.806C238.806 656.014 238.066 653.373 236.49 651.271L234.57 652.711ZM236.406 659.101C236.406 661.507 235.846 663.595 234.754 665.402L236.808 666.643C238.15 664.423 238.806 661.897 238.806 659.101H236.406ZM234.75 665.408C233.709 667.157 232.154 668.559 230.03 669.601L231.088 671.756C233.578 670.534 235.505 668.831 236.812 666.637L234.75 665.408ZM230.022 669.605C227.959 670.637 225.446 671.178 222.442 671.178V673.578C225.73 673.578 228.628 672.986 231.096 671.752L230.022 669.605ZM222.442 671.178C217.605 671.178 213.872 669.991 211.122 667.737L209.601 669.593C212.891 672.29 217.213 673.578 222.442 673.578V671.178ZM211.129 667.742C208.486 665.546 207.002 662.18 206.842 657.425L204.443 657.506C204.619 662.734 206.281 666.835 209.595 669.588L211.129 667.742ZM205.643 658.665H216.087V656.265H205.643V658.665ZM214.888 657.493C214.935 659.557 215.529 661.33 216.779 662.684L218.542 661.056C217.779 660.229 217.324 659.066 217.287 657.438L214.888 657.493ZM216.795 662.701C218.095 664.055 219.92 664.643 222.065 664.643V662.243C220.351 662.243 219.239 661.782 218.526 661.039L216.795 662.701ZM222.065 664.643C223.931 664.643 225.541 664.11 226.708 662.887L224.972 661.23C224.377 661.853 223.47 662.243 222.065 662.243V664.643ZM226.707 662.888C227.878 661.664 228.424 660.091 228.424 658.283H226.024C226.024 659.58 225.647 660.524 224.973 661.229L226.707 662.888ZM228.424 658.283C228.424 655.998 227.669 654.115 225.947 652.948L224.601 654.935C225.479 655.531 226.024 656.542 226.024 658.283H228.424ZM225.983 652.974C224.411 651.821 222.057 651.358 219.17 651.358V653.758C221.905 653.758 223.62 654.217 224.564 654.91L225.983 652.974ZM219.17 651.358H217.157V653.758H219.17V651.358ZM218.357 652.558V643.812H215.957V652.558H218.357ZM217.157 645.012H219.17V642.612H217.157V645.012ZM219.17 645.012C221.428 645.012 223.369 644.638 224.907 643.794L223.753 641.69C222.69 642.273 221.192 642.612 219.17 642.612V645.012ZM224.918 643.788C226.729 642.769 227.543 640.984 227.543 638.778H225.143C225.143 640.348 224.615 641.205 223.742 641.696L224.918 643.788ZM227.543 638.778C227.543 637.041 227.055 635.527 225.933 634.406L224.236 636.103C224.793 636.66 225.143 637.495 225.143 638.778H227.543ZM225.933 634.406C224.819 633.291 223.331 632.796 221.624 632.796V635.196C222.854 635.196 223.673 635.54 224.236 636.103L225.933 634.406ZM221.624 632.796C219.779 632.796 218.198 633.366 217.113 634.679L218.963 636.208C219.472 635.591 220.282 635.196 221.624 635.196V632.796ZM217.093 634.704C216.172 635.88 215.664 637.307 215.521 638.924L217.912 639.135C218.021 637.901 218.394 636.936 218.983 636.183L217.093 634.704ZM216.717 637.83H206.209V640.23H216.717V637.83Z" fill="#603CA5"/>
    <path d="M67.104 623L64.448 618.44H62.688V623H61.232V611.848H64.832C65.6747 611.848 66.384 611.992 66.96 612.28C67.5467 612.568 67.984 612.957 68.272 613.448C68.56 613.939 68.704 614.499 68.704 615.128C68.704 615.896 68.48 616.573 68.032 617.16C67.5947 617.747 66.9333 618.136 66.048 618.328L68.848 623H67.104ZM62.688 617.272H64.832C65.6213 617.272 66.2133 617.08 66.608 616.696C67.0027 616.301 67.2 615.779 67.2 615.128C67.2 614.467 67.0027 613.955 66.608 613.592C66.224 613.229 65.632 613.048 64.832 613.048H62.688V617.272ZM78.9664 618.28C78.9664 618.557 78.9504 618.851 78.9184 619.16H71.9104C71.9637 620.024 72.257 620.701 72.7904 621.192C73.3344 621.672 73.9904 621.912 74.7584 621.912C75.3877 621.912 75.9104 621.768 76.3264 621.48C76.753 621.181 77.0517 620.787 77.2224 620.296H78.7904C78.5557 621.139 78.0864 621.827 77.3824 622.36C76.6784 622.883 75.8037 623.144 74.7584 623.144C73.9264 623.144 73.1797 622.957 72.5184 622.584C71.8677 622.211 71.3557 621.683 70.9824 621C70.609 620.307 70.4224 619.507 70.4224 618.6C70.4224 617.693 70.6037 616.899 70.9664 616.216C71.329 615.533 71.8357 615.011 72.4864 614.648C73.1477 614.275 73.905 614.088 74.7584 614.088C75.5904 614.088 76.3264 614.269 76.9664 614.632C77.6064 614.995 78.097 615.496 78.4384 616.136C78.7904 616.765 78.9664 617.48 78.9664 618.28ZM77.4624 617.976C77.4624 617.421 77.3397 616.947 77.0944 616.552C76.849 616.147 76.513 615.843 76.0864 615.64C75.6704 615.427 75.2064 615.32 74.6944 615.32C73.9584 615.32 73.329 615.555 72.8064 616.024C72.2944 616.493 72.001 617.144 71.9264 617.976H77.4624ZM83.9923 623.144C83.3203 623.144 82.7176 623.032 82.1843 622.808C81.6509 622.573 81.2296 622.253 80.9203 621.848C80.6109 621.432 80.4403 620.957 80.4083 620.424H81.9123C81.9549 620.861 82.1576 621.219 82.5203 621.496C82.8936 621.773 83.3789 621.912 83.9763 621.912C84.5309 621.912 84.9683 621.789 85.2883 621.544C85.6083 621.299 85.7683 620.989 85.7683 620.616C85.7683 620.232 85.5976 619.949 85.2563 619.768C84.9149 619.576 84.3869 619.389 83.6723 619.208C83.0216 619.037 82.4883 618.867 82.0723 618.696C81.6669 618.515 81.3149 618.253 81.0163 617.912C80.7283 617.56 80.5843 617.101 80.5843 616.536C80.5843 616.088 80.7176 615.677 80.9843 615.304C81.2509 614.931 81.6296 614.637 82.1203 614.424C82.6109 614.2 83.1709 614.088 83.8003 614.088C84.7709 614.088 85.5549 614.333 86.1523 614.824C86.7496 615.315 87.0696 615.987 87.1123 616.84H85.6563C85.6243 616.381 85.4376 616.013 85.0963 615.736C84.7656 615.459 84.3176 615.32 83.7523 615.32C83.2296 615.32 82.8136 615.432 82.5043 615.656C82.1949 615.88 82.0403 616.173 82.0403 616.536C82.0403 616.824 82.1309 617.064 82.3123 617.256C82.5043 617.437 82.7389 617.587 83.0163 617.704C83.3043 617.811 83.6989 617.933 84.2003 618.072C84.8296 618.243 85.3416 618.413 85.7363 618.584C86.1309 618.744 86.4669 618.989 86.7443 619.32C87.0323 619.651 87.1816 620.083 87.1923 620.616C87.1923 621.096 87.0589 621.528 86.7923 621.912C86.5256 622.296 86.1469 622.6 85.6563 622.824C85.1763 623.037 84.6216 623.144 83.9923 623.144ZM90.7036 615.848C90.9916 615.347 91.4183 614.931 91.9836 614.6C92.5596 614.259 93.2263 614.088 93.9836 614.088C94.7623 614.088 95.4663 614.275 96.0956 614.648C96.7356 615.021 97.237 615.549 97.5996 616.232C97.9623 616.904 98.1436 617.688 98.1436 618.584C98.1436 619.469 97.9623 620.259 97.5996 620.952C97.237 621.645 96.7356 622.184 96.0956 622.568C95.4663 622.952 94.7623 623.144 93.9836 623.144C93.237 623.144 92.5756 622.979 91.9996 622.648C91.4343 622.307 91.0023 621.885 90.7036 621.384V627.16H89.2476V614.232H90.7036V615.848ZM96.6556 618.584C96.6556 617.923 96.5223 617.347 96.2556 616.856C95.989 616.365 95.6263 615.992 95.1676 615.736C94.7196 615.48 94.2236 615.352 93.6796 615.352C93.1463 615.352 92.6503 615.485 92.1916 615.752C91.7436 616.008 91.381 616.387 91.1036 616.888C90.837 617.379 90.7036 617.949 90.7036 618.6C90.7036 619.261 90.837 619.843 91.1036 620.344C91.381 620.835 91.7436 621.213 92.1916 621.48C92.6503 621.736 93.1463 621.864 93.6796 621.864C94.2236 621.864 94.7196 621.736 95.1676 621.48C95.6263 621.213 95.989 620.835 96.2556 620.344C96.5223 619.843 96.6556 619.256 96.6556 618.584ZM99.5161 618.6C99.5161 617.693 99.6975 616.904 100.06 616.232C100.423 615.549 100.924 615.021 101.564 614.648C102.215 614.275 102.956 614.088 103.788 614.088C104.865 614.088 105.751 614.349 106.444 614.872C107.148 615.395 107.612 616.12 107.836 617.048H106.268C106.119 616.515 105.825 616.093 105.388 615.784C104.961 615.475 104.428 615.32 103.788 615.32C102.956 615.32 102.284 615.608 101.772 616.184C101.26 616.749 101.004 617.555 101.004 618.6C101.004 619.656 101.26 620.472 101.772 621.048C102.284 621.624 102.956 621.912 103.788 621.912C104.428 621.912 104.961 621.763 105.388 621.464C105.815 621.165 106.108 620.739 106.268 620.184H107.836C107.601 621.08 107.132 621.8 106.428 622.344C105.724 622.877 104.844 623.144 103.788 623.144C102.956 623.144 102.215 622.957 101.564 622.584C100.924 622.211 100.423 621.683 100.06 621C99.6975 620.317 99.5161 619.517 99.5161 618.6ZM111.555 615.432V620.6C111.555 621.027 111.646 621.331 111.827 621.512C112.008 621.683 112.323 621.768 112.771 621.768H113.843V623H112.531C111.72 623 111.112 622.813 110.707 622.44C110.302 622.067 110.099 621.453 110.099 620.6V615.432H108.963V614.232H110.099V612.024H111.555V614.232H113.843V615.432H111.555ZM120.625 612.808C120.347 612.808 120.113 612.712 119.921 612.52C119.729 612.328 119.633 612.093 119.633 611.816C119.633 611.539 119.729 611.304 119.921 611.112C120.113 610.92 120.347 610.824 120.625 610.824C120.891 610.824 121.115 610.92 121.297 611.112C121.489 611.304 121.585 611.539 121.585 611.816C121.585 612.093 121.489 612.328 121.297 612.52C121.115 612.712 120.891 612.808 120.625 612.808ZM121.329 614.232V623H119.873V614.232H121.329ZM126.914 623.144C126.242 623.144 125.639 623.032 125.106 622.808C124.573 622.573 124.151 622.253 123.842 621.848C123.533 621.432 123.362 620.957 123.33 620.424H124.834C124.877 620.861 125.079 621.219 125.442 621.496C125.815 621.773 126.301 621.912 126.898 621.912C127.453 621.912 127.89 621.789 128.21 621.544C128.53 621.299 128.69 620.989 128.69 620.616C128.69 620.232 128.519 619.949 128.178 619.768C127.837 619.576 127.309 619.389 126.594 619.208C125.943 619.037 125.41 618.867 124.994 618.696C124.589 618.515 124.237 618.253 123.938 617.912C123.65 617.56 123.506 617.101 123.506 616.536C123.506 616.088 123.639 615.677 123.906 615.304C124.173 614.931 124.551 614.637 125.042 614.424C125.533 614.2 126.093 614.088 126.722 614.088C127.693 614.088 128.477 614.333 129.074 614.824C129.671 615.315 129.991 615.987 130.034 616.84H128.578C128.546 616.381 128.359 616.013 128.018 615.736C127.687 615.459 127.239 615.32 126.674 615.32C126.151 615.32 125.735 615.432 125.426 615.656C125.117 615.88 124.962 616.173 124.962 616.536C124.962 616.824 125.053 617.064 125.234 617.256C125.426 617.437 125.661 617.587 125.938 617.704C126.226 617.811 126.621 617.933 127.122 618.072C127.751 618.243 128.263 618.413 128.658 618.584C129.053 618.744 129.389 618.989 129.666 619.32C129.954 619.651 130.103 620.083 130.114 620.616C130.114 621.096 129.981 621.528 129.714 621.912C129.447 622.296 129.069 622.6 128.578 622.824C128.098 623.037 127.543 623.144 126.914 623.144ZM135.891 618.584C135.891 617.688 136.072 616.904 136.435 616.232C136.798 615.549 137.294 615.021 137.923 614.648C138.563 614.275 139.272 614.088 140.051 614.088C140.819 614.088 141.486 614.253 142.051 614.584C142.616 614.915 143.038 615.331 143.315 615.832V614.232H144.787V623H143.315V621.368C143.027 621.88 142.595 622.307 142.019 622.648C141.454 622.979 140.792 623.144 140.035 623.144C139.256 623.144 138.552 622.952 137.923 622.568C137.294 622.184 136.798 621.645 136.435 620.952C136.072 620.259 135.891 619.469 135.891 618.584ZM143.315 618.6C143.315 617.939 143.182 617.363 142.915 616.872C142.648 616.381 142.286 616.008 141.827 615.752C141.379 615.485 140.883 615.352 140.339 615.352C139.795 615.352 139.299 615.48 138.851 615.736C138.403 615.992 138.046 616.365 137.779 616.856C137.512 617.347 137.379 617.923 137.379 618.584C137.379 619.256 137.512 619.843 137.779 620.344C138.046 620.835 138.403 621.213 138.851 621.48C139.299 621.736 139.795 621.864 140.339 621.864C140.883 621.864 141.379 621.736 141.827 621.48C142.286 621.213 142.648 620.835 142.915 620.344C143.182 619.843 143.315 619.261 143.315 618.6ZM60.688 640.6C60.688 639.693 60.8693 638.904 61.232 638.232C61.5947 637.549 62.096 637.021 62.736 636.648C63.3867 636.275 64.128 636.088 64.96 636.088C66.0373 636.088 66.9227 636.349 67.616 636.872C68.32 637.395 68.784 638.12 69.008 639.048H67.44C67.2907 638.515 66.9973 638.093 66.56 637.784C66.1333 637.475 65.6 637.32 64.96 637.32C64.128 637.32 63.456 637.608 62.944 638.184C62.432 638.749 62.176 639.555 62.176 640.6C62.176 641.656 62.432 642.472 62.944 643.048C63.456 643.624 64.128 643.912 64.96 643.912C65.6 643.912 66.1333 643.763 66.56 643.464C66.9867 643.165 67.28 642.739 67.44 642.184H69.008C68.7733 643.08 68.304 643.8 67.6 644.344C66.896 644.877 66.016 645.144 64.96 645.144C64.128 645.144 63.3867 644.957 62.736 644.584C62.096 644.211 61.5947 643.683 61.232 643C60.8693 642.317 60.688 641.517 60.688 640.6ZM72.4068 637.656C72.6628 637.155 73.0254 636.765 73.4948 636.488C73.9748 636.211 74.5561 636.072 75.2388 636.072V637.576H74.8548C73.2228 637.576 72.4068 638.461 72.4068 640.232V645H70.9508V636.232H72.4068V637.656ZM84.9195 640.28C84.9195 640.557 84.9035 640.851 84.8715 641.16H77.8635C77.9168 642.024 78.2102 642.701 78.7435 643.192C79.2875 643.672 79.9435 643.912 80.7115 643.912C81.3408 643.912 81.8635 643.768 82.2795 643.48C82.7062 643.181 83.0048 642.787 83.1755 642.296H84.7435C84.5088 643.139 84.0395 643.827 83.3355 644.36C82.6315 644.883 81.7568 645.144 80.7115 645.144C79.8795 645.144 79.1328 644.957 78.4715 644.584C77.8208 644.211 77.3088 643.683 76.9355 643C76.5622 642.307 76.3755 641.507 76.3755 640.6C76.3755 639.693 76.5568 638.899 76.9195 638.216C77.2822 637.533 77.7888 637.011 78.4395 636.648C79.1008 636.275 79.8582 636.088 80.7115 636.088C81.5435 636.088 82.2795 636.269 82.9195 636.632C83.5595 636.995 84.0502 637.496 84.3915 638.136C84.7435 638.765 84.9195 639.48 84.9195 640.28ZM83.4155 639.976C83.4155 639.421 83.2928 638.947 83.0475 638.552C82.8022 638.147 82.4662 637.843 82.0395 637.64C81.6235 637.427 81.1595 637.32 80.6475 637.32C79.9115 637.32 79.2822 637.555 78.7595 638.024C78.2475 638.493 77.9542 639.144 77.8795 639.976H83.4155ZM86.2974 640.584C86.2974 639.688 86.4787 638.904 86.8414 638.232C87.204 637.549 87.7 637.021 88.3294 636.648C88.9694 636.275 89.6787 636.088 90.4574 636.088C91.2254 636.088 91.892 636.253 92.4574 636.584C93.0227 636.915 93.444 637.331 93.7214 637.832V636.232H95.1934V645H93.7214V643.368C93.4334 643.88 93.0014 644.307 92.4254 644.648C91.86 644.979 91.1987 645.144 90.4414 645.144C89.6627 645.144 88.9587 644.952 88.3294 644.568C87.7 644.184 87.204 643.645 86.8414 642.952C86.4787 642.259 86.2974 641.469 86.2974 640.584ZM93.7214 640.6C93.7214 639.939 93.588 639.363 93.3214 638.872C93.0547 638.381 92.692 638.008 92.2334 637.752C91.7854 637.485 91.2894 637.352 90.7454 637.352C90.2014 637.352 89.7054 637.48 89.2574 637.736C88.8094 637.992 88.452 638.365 88.1854 638.856C87.9187 639.347 87.7854 639.923 87.7854 640.584C87.7854 641.256 87.9187 641.843 88.1854 642.344C88.452 642.835 88.8094 643.213 89.2574 643.48C89.7054 643.736 90.2014 643.864 90.7454 643.864C91.2894 643.864 91.7854 643.736 92.2334 643.48C92.692 643.213 93.0547 642.835 93.3214 642.344C93.588 641.843 93.7214 641.261 93.7214 640.6ZM99.4299 637.432V642.6C99.4299 643.027 99.5205 643.331 99.7019 643.512C99.8832 643.683 100.198 643.768 100.646 643.768H101.718V645H100.406C99.5952 645 98.9872 644.813 98.5819 644.44C98.1765 644.067 97.9739 643.453 97.9739 642.6V637.432H96.8379V636.232H97.9739V634.024H99.4299V636.232H101.718V637.432H99.4299ZM107.306 645.144C106.485 645.144 105.738 644.957 105.066 644.584C104.405 644.211 103.882 643.683 103.498 643C103.125 642.307 102.938 641.507 102.938 640.6C102.938 639.704 103.13 638.915 103.514 638.232C103.909 637.539 104.442 637.011 105.114 636.648C105.786 636.275 106.538 636.088 107.37 636.088C108.202 636.088 108.954 636.275 109.626 636.648C110.298 637.011 110.826 637.533 111.21 638.216C111.605 638.899 111.802 639.693 111.802 640.6C111.802 641.507 111.599 642.307 111.194 643C110.799 643.683 110.261 644.211 109.578 644.584C108.895 644.957 108.138 645.144 107.306 645.144ZM107.306 643.864C107.829 643.864 108.319 643.741 108.778 643.496C109.237 643.251 109.605 642.883 109.882 642.392C110.17 641.901 110.314 641.304 110.314 640.6C110.314 639.896 110.175 639.299 109.898 638.808C109.621 638.317 109.258 637.955 108.81 637.72C108.362 637.475 107.877 637.352 107.354 637.352C106.821 637.352 106.33 637.475 105.882 637.72C105.445 637.955 105.093 638.317 104.826 638.808C104.559 639.299 104.426 639.896 104.426 640.6C104.426 641.315 104.554 641.917 104.81 642.408C105.077 642.899 105.429 643.267 105.866 643.512C106.303 643.747 106.783 643.864 107.306 643.864ZM115.172 637.656C115.428 637.155 115.791 636.765 116.26 636.488C116.74 636.211 117.322 636.072 118.004 636.072V637.576H117.62C115.988 637.576 115.172 638.461 115.172 640.232V645H113.716V636.232H115.172V637.656ZM125.727 637.432V642.6C125.727 643.027 125.817 643.331 125.999 643.512C126.18 643.683 126.495 643.768 126.943 643.768H128.015V645H126.703C125.892 645 125.284 644.813 124.879 644.44C124.473 644.067 124.271 643.453 124.271 642.6V637.432H123.135V636.232H124.271V634.024H125.727V636.232H128.015V637.432H125.727ZM133.603 645.144C132.782 645.144 132.035 644.957 131.363 644.584C130.702 644.211 130.179 643.683 129.795 643C129.422 642.307 129.235 641.507 129.235 640.6C129.235 639.704 129.427 638.915 129.811 638.232C130.206 637.539 130.739 637.011 131.411 636.648C132.083 636.275 132.835 636.088 133.667 636.088C134.499 636.088 135.251 636.275 135.923 636.648C136.595 637.011 137.123 637.533 137.507 638.216C137.902 638.899 138.099 639.693 138.099 640.6C138.099 641.507 137.896 642.307 137.491 643C137.096 643.683 136.558 644.211 135.875 644.584C135.192 644.957 134.435 645.144 133.603 645.144ZM133.603 643.864C134.126 643.864 134.616 643.741 135.075 643.496C135.534 643.251 135.902 642.883 136.179 642.392C136.467 641.901 136.611 641.304 136.611 640.6C136.611 639.896 136.472 639.299 136.195 638.808C135.918 638.317 135.555 637.955 135.107 637.72C134.659 637.475 134.174 637.352 133.651 637.352C133.118 637.352 132.627 637.475 132.179 637.72C131.742 637.955 131.39 638.317 131.123 638.808C130.856 639.299 130.723 639.896 130.723 640.6C130.723 641.315 130.851 641.917 131.107 642.408C131.374 642.899 131.726 643.267 132.163 643.512C132.6 643.747 133.08 643.864 133.603 643.864ZM144.909 645L141.469 641.128V645H140.013V633.16H141.469V640.12L144.845 636.232H146.877L142.749 640.6L146.893 645H144.909ZM156.248 640.28C156.248 640.557 156.232 640.851 156.2 641.16H149.192C149.245 642.024 149.538 642.701 150.072 643.192C150.616 643.672 151.272 643.912 152.04 643.912C152.669 643.912 153.192 643.768 153.608 643.48C154.034 643.181 154.333 642.787 154.504 642.296H156.072C155.837 643.139 155.368 643.827 154.664 644.36C153.96 644.883 153.085 645.144 152.04 645.144C151.208 645.144 150.461 644.957 149.8 644.584C149.149 644.211 148.637 643.683 148.264 643C147.89 642.307 147.704 641.507 147.704 640.6C147.704 639.693 147.885 638.899 148.248 638.216C148.61 637.533 149.117 637.011 149.768 636.648C150.429 636.275 151.186 636.088 152.04 636.088C152.872 636.088 153.608 636.269 154.248 636.632C154.888 636.995 155.378 637.496 155.72 638.136C156.072 638.765 156.248 639.48 156.248 640.28ZM154.744 639.976C154.744 639.421 154.621 638.947 154.376 638.552C154.13 638.147 153.794 637.843 153.368 637.64C152.952 637.427 152.488 637.32 151.976 637.32C151.24 637.32 150.61 637.555 150.088 638.024C149.576 638.493 149.282 639.144 149.208 639.976H154.744ZM162.442 636.072C163.508 636.072 164.372 636.397 165.034 637.048C165.695 637.688 166.026 638.616 166.026 639.832V645H164.586V640.04C164.586 639.165 164.367 638.499 163.93 638.04C163.492 637.571 162.895 637.336 162.138 637.336C161.37 637.336 160.756 637.576 160.298 638.056C159.85 638.536 159.626 639.235 159.626 640.152V645H158.17V636.232H159.626V637.48C159.914 637.032 160.303 636.685 160.794 636.44C161.295 636.195 161.844 636.072 162.442 636.072ZM62.688 659.848C62.976 659.347 63.4027 658.931 63.968 658.6C64.544 658.259 65.2107 658.088 65.968 658.088C66.7467 658.088 67.4507 658.275 68.08 658.648C68.72 659.021 69.2213 659.549 69.584 660.232C69.9467 660.904 70.128 661.688 70.128 662.584C70.128 663.469 69.9467 664.259 69.584 664.952C69.2213 665.645 68.72 666.184 68.08 666.568C67.4507 666.952 66.7467 667.144 65.968 667.144C65.2213 667.144 64.56 666.979 63.984 666.648C63.4187 666.307 62.9867 665.885 62.688 665.384V671.16H61.232V658.232H62.688V659.848ZM68.64 662.584C68.64 661.923 68.5067 661.347 68.24 660.856C67.9733 660.365 67.6107 659.992 67.152 659.736C66.704 659.48 66.208 659.352 65.664 659.352C65.1307 659.352 64.6347 659.485 64.176 659.752C63.728 660.008 63.3653 660.387 63.088 660.888C62.8213 661.379 62.688 661.949 62.688 662.6C62.688 663.261 62.8213 663.843 63.088 664.344C63.3653 664.835 63.728 665.213 64.176 665.48C64.6347 665.736 65.1307 665.864 65.664 665.864C66.208 665.864 66.704 665.736 67.152 665.48C67.6107 665.213 67.9733 664.835 68.24 664.344C68.5067 663.843 68.64 663.256 68.64 662.584ZM73.5005 655.16V667H72.0445V655.16H73.5005ZM75.438 662.584C75.438 661.688 75.6193 660.904 75.982 660.232C76.3447 659.549 76.8407 659.021 77.47 658.648C78.11 658.275 78.8193 658.088 79.598 658.088C80.366 658.088 81.0327 658.253 81.598 658.584C82.1633 658.915 82.5847 659.331 82.862 659.832V658.232H84.334V667H82.862V665.368C82.574 665.88 82.142 666.307 81.566 666.648C81.0007 666.979 80.3393 667.144 79.582 667.144C78.8033 667.144 78.0993 666.952 77.47 666.568C76.8407 666.184 76.3447 665.645 75.982 664.952C75.6193 664.259 75.438 663.469 75.438 662.584ZM82.862 662.6C82.862 661.939 82.7287 661.363 82.462 660.872C82.1953 660.381 81.8327 660.008 81.374 659.752C80.926 659.485 80.43 659.352 79.886 659.352C79.342 659.352 78.846 659.48 78.398 659.736C77.95 659.992 77.5927 660.365 77.326 660.856C77.0593 661.347 76.926 661.923 76.926 662.584C76.926 663.256 77.0593 663.843 77.326 664.344C77.5927 664.835 77.95 665.213 78.398 665.48C78.846 665.736 79.342 665.864 79.886 665.864C80.43 665.864 80.926 665.736 81.374 665.48C81.8327 665.213 82.1953 664.835 82.462 664.344C82.7287 663.843 82.862 663.261 82.862 662.6ZM88.5705 659.432V664.6C88.5705 665.027 88.6612 665.331 88.8425 665.512C89.0238 665.683 89.3385 665.768 89.7865 665.768H90.8585V667H89.5465C88.7358 667 88.1278 666.813 87.7225 666.44C87.3172 666.067 87.1145 665.453 87.1145 664.6V659.432H85.9785V658.232H87.1145V656.024H88.5705V658.232H90.8585V659.432H88.5705ZM96.1906 659.432H94.3506V667H92.8946V659.432H91.7586V658.232H92.8946V657.608C92.8946 656.627 93.1453 655.912 93.6466 655.464C94.1586 655.005 94.9746 654.776 96.0946 654.776V655.992C95.4546 655.992 95.0013 656.12 94.7346 656.376C94.4786 656.621 94.3506 657.032 94.3506 657.608V658.232H96.1906V659.432ZM101.712 667.144C100.891 667.144 100.144 666.957 99.4723 666.584C98.8109 666.211 98.2883 665.683 97.9043 665C97.5309 664.307 97.3443 663.507 97.3443 662.6C97.3443 661.704 97.5363 660.915 97.9203 660.232C98.3149 659.539 98.8483 659.011 99.5203 658.648C100.192 658.275 100.944 658.088 101.776 658.088C102.608 658.088 103.36 658.275 104.032 658.648C104.704 659.011 105.232 659.533 105.616 660.216C106.011 660.899 106.208 661.693 106.208 662.6C106.208 663.507 106.006 664.307 105.6 665C105.206 665.683 104.667 666.211 103.984 666.584C103.302 666.957 102.544 667.144 101.712 667.144ZM101.712 665.864C102.235 665.864 102.726 665.741 103.184 665.496C103.643 665.251 104.011 664.883 104.288 664.392C104.576 663.901 104.72 663.304 104.72 662.6C104.72 661.896 104.582 661.299 104.304 660.808C104.027 660.317 103.664 659.955 103.216 659.72C102.768 659.475 102.283 659.352 101.76 659.352C101.227 659.352 100.736 659.475 100.288 659.72C99.8509 659.955 99.4989 660.317 99.2323 660.808C98.9656 661.299 98.8323 661.896 98.8323 662.6C98.8323 663.315 98.9603 663.917 99.2163 664.408C99.4829 664.899 99.8349 665.267 100.272 665.512C100.71 665.747 101.19 665.864 101.712 665.864ZM109.579 659.656C109.835 659.155 110.197 658.765 110.667 658.488C111.147 658.211 111.728 658.072 112.411 658.072V659.576H112.027C110.395 659.576 109.579 660.461 109.579 662.232V667H108.123V658.232H109.579V659.656ZM124.635 658.072C125.318 658.072 125.926 658.216 126.459 658.504C126.993 658.781 127.414 659.203 127.723 659.768C128.033 660.333 128.187 661.021 128.187 661.832V667H126.747V662.04C126.747 661.165 126.529 660.499 126.091 660.04C125.665 659.571 125.083 659.336 124.347 659.336C123.59 659.336 122.987 659.581 122.539 660.072C122.091 660.552 121.867 661.251 121.867 662.168V667H120.427V662.04C120.427 661.165 120.209 660.499 119.771 660.04C119.345 659.571 118.763 659.336 118.027 659.336C117.27 659.336 116.667 659.581 116.219 660.072C115.771 660.552 115.547 661.251 115.547 662.168V667H114.091V658.232H115.547V659.496C115.835 659.037 116.219 658.685 116.699 658.44C117.19 658.195 117.729 658.072 118.315 658.072C119.051 658.072 119.702 658.237 120.267 658.568C120.833 658.899 121.254 659.384 121.531 660.024C121.777 659.405 122.182 658.925 122.747 658.584C123.313 658.243 123.942 658.072 124.635 658.072ZM72.912 680.232L70.176 689H68.672L66.56 682.04L64.448 689H62.944L60.192 680.232H61.68L63.696 687.592L65.872 680.232H67.36L69.488 687.608L71.472 680.232H72.912ZM78.709 680.072C79.3703 680.072 79.9677 680.216 80.501 680.504C81.0343 680.781 81.4503 681.203 81.749 681.768C82.0583 682.333 82.213 683.021 82.213 683.832V689H80.773V684.04C80.773 683.165 80.5543 682.499 80.117 682.04C79.6797 681.571 79.0823 681.336 78.325 681.336C77.557 681.336 76.9437 681.576 76.485 682.056C76.037 682.536 75.813 683.235 75.813 684.152V689H74.357V677.16H75.813V681.48C76.101 681.032 76.4957 680.685 76.997 680.44C77.509 680.195 78.0797 680.072 78.709 680.072ZM92.5914 684.28C92.5914 684.557 92.5754 684.851 92.5434 685.16H85.5354C85.5887 686.024 85.882 686.701 86.4154 687.192C86.9594 687.672 87.6154 687.912 88.3834 687.912C89.0127 687.912 89.5354 687.768 89.9514 687.48C90.378 687.181 90.6767 686.787 90.8474 686.296H92.4154C92.1807 687.139 91.7114 687.827 91.0074 688.36C90.3034 688.883 89.4287 689.144 88.3834 689.144C87.5514 689.144 86.8047 688.957 86.1434 688.584C85.4927 688.211 84.9807 687.683 84.6074 687C84.234 686.307 84.0474 685.507 84.0474 684.6C84.0474 683.693 84.2287 682.899 84.5914 682.216C84.954 681.533 85.4607 681.011 86.1114 680.648C86.7727 680.275 87.53 680.088 88.3834 680.088C89.2154 680.088 89.9514 680.269 90.5914 680.632C91.2314 680.995 91.722 681.496 92.0634 682.136C92.4154 682.765 92.5914 683.48 92.5914 684.28ZM91.0874 683.976C91.0874 683.421 90.9647 682.947 90.7194 682.552C90.474 682.147 90.138 681.843 89.7114 681.64C89.2954 681.427 88.8314 681.32 88.3194 681.32C87.5834 681.32 86.954 681.555 86.4314 682.024C85.9194 682.493 85.626 683.144 85.5514 683.976H91.0874ZM95.9693 681.656C96.2253 681.155 96.5879 680.765 97.0573 680.488C97.5373 680.211 98.1186 680.072 98.8013 680.072V681.576H98.4173C96.7853 681.576 95.9693 682.461 95.9693 684.232V689H94.5133V680.232H95.9693V681.656ZM108.482 684.28C108.482 684.557 108.466 684.851 108.434 685.16H101.426C101.479 686.024 101.773 686.701 102.306 687.192C102.85 687.672 103.506 687.912 104.274 687.912C104.903 687.912 105.426 687.768 105.842 687.48C106.269 687.181 106.567 686.787 106.738 686.296H108.306C108.071 687.139 107.602 687.827 106.898 688.36C106.194 688.883 105.319 689.144 104.274 689.144C103.442 689.144 102.695 688.957 102.034 688.584C101.383 688.211 100.871 687.683 100.498 687C100.125 686.307 99.938 685.507 99.938 684.6C99.938 683.693 100.119 682.899 100.482 682.216C100.845 681.533 101.351 681.011 102.002 680.648C102.663 680.275 103.421 680.088 104.274 680.088C105.106 680.088 105.842 680.269 106.482 680.632C107.122 680.995 107.613 681.496 107.954 682.136C108.306 682.765 108.482 683.48 108.482 684.28ZM106.978 683.976C106.978 683.421 106.855 682.947 106.61 682.552C106.365 682.147 106.029 681.843 105.602 681.64C105.186 681.427 104.722 681.32 104.21 681.32C103.474 681.32 102.845 681.555 102.322 682.024C101.81 682.493 101.517 683.144 101.442 683.976H106.978Z" fill="white"/>
    <g filter="url(#filter4_dd_1211_7825)">
    <rect x="48" y="283" width="172" height="221" rx="31" fill="#1A1C20"/>
    </g>
    <g filter="url(#filter5_dd_1211_7825)">
    <circle cx="46" cy="392" r="36" fill="#131312"/>
    </g>
    <path d="M28.4539 406.38L27.7076 405.44L27.2539 405.801V406.38H28.4539ZM30.4044 404.807L29.6399 403.882L31.07 405.805L30.4044 404.807ZM40.0941 396.439L39.2853 395.552L39.2775 395.559L40.0941 396.439ZM47.3928 378.569L46.4676 379.334L47.3928 378.569ZM40.0312 378.947L39.0751 378.222L39.0712 378.227L40.0312 378.947ZM38.7098 383.98V385.18H39.9098V383.98H38.7098ZM28.328 383.98L27.1284 383.952L27.0995 385.18H28.328V383.98ZM30.5932 375.046L29.5706 374.418L29.5665 374.424L29.5626 374.431L30.5932 375.046ZM36.3189 369.761L35.8052 368.676L35.7977 368.68L36.3189 369.761ZM55.5095 371.9L54.6539 372.741L54.661 372.748L55.5095 371.9ZM54.7544 394.425L55.6905 395.176L55.6945 395.171L54.7544 394.425ZM43.0513 405.625L42.3193 404.674L39.5256 406.825H43.0513V405.625ZM60.0397 405.625H61.2397V404.425H60.0397V405.625ZM60.0397 414.371V415.571H61.2397V414.371H60.0397ZM28.4539 414.371H27.2539V415.571H28.4539V414.371ZM29.2001 407.32C29.9135 406.753 30.4356 406.337 30.7645 406.071C30.9269 405.94 31.0494 405.841 31.1251 405.777C31.1463 405.759 31.2109 405.705 31.2637 405.653C31.2742 405.642 31.292 405.624 31.3128 405.601C31.3265 405.585 31.3745 405.532 31.4245 405.455C31.4472 405.42 31.5021 405.333 31.5469 405.21C31.5738 405.137 31.7063 404.771 31.5293 404.342C31.296 403.775 30.7806 403.628 30.5365 403.604C30.3193 403.583 30.152 403.627 30.1032 403.641C29.9811 403.674 29.8919 403.72 29.875 403.729C29.8416 403.745 29.8156 403.761 29.8017 403.769C29.7731 403.786 29.7502 403.801 29.7388 403.808L31.07 405.805C31.0665 405.808 31.0499 405.819 31.0262 405.833C31.0147 405.84 30.9907 405.854 30.9589 405.87C30.9437 405.878 30.8558 405.923 30.7346 405.956C30.6863 405.969 30.5193 406.014 30.3024 405.993C30.0585 405.969 29.5433 405.822 29.3101 405.255C29.1331 404.826 29.2656 404.461 29.2924 404.387C29.3371 404.265 29.3918 404.178 29.4142 404.144C29.4636 404.068 29.5106 404.016 29.5229 404.002C29.5423 403.98 29.5584 403.964 29.5667 403.955C29.6025 403.92 29.6258 403.902 29.5814 403.939C29.5261 403.986 29.4205 404.072 29.2578 404.203C28.9365 404.462 28.4204 404.874 27.7076 405.44L29.2001 407.32ZM31.1689 405.732C35.2875 402.328 38.5373 399.522 40.9106 397.318L39.2775 395.559C36.9528 397.718 33.7429 400.491 29.6399 403.882L31.1689 405.732ZM40.9028 397.325C43.3543 395.089 45.4309 392.734 47.1248 390.258L45.144 388.903C43.5661 391.209 41.6157 393.426 39.2853 395.552L40.9028 397.325ZM47.1248 390.258C48.8593 387.723 49.7883 385.163 49.7883 382.596H47.3883C47.3883 384.56 46.6814 386.656 45.144 388.903L47.1248 390.258ZM49.7883 382.596C49.7883 380.701 49.3491 379.053 48.318 377.805L46.4676 379.334C47.0305 380.015 47.3883 381.052 47.3883 382.596H49.7883ZM48.318 377.805C47.2331 376.492 45.6521 375.922 43.8064 375.922V378.322C45.1486 378.322 45.9586 378.717 46.4676 379.334L48.318 377.805ZM43.8064 375.922C41.8563 375.922 40.2362 376.691 39.0751 378.222L40.9872 379.672C41.6717 378.77 42.5685 378.322 43.8064 378.322V375.922ZM39.0712 378.227C37.9751 379.688 37.5098 381.66 37.5098 383.98H39.9098C39.9098 381.939 40.3254 380.554 40.9912 379.667L39.0712 378.227ZM38.7098 382.78H28.328V385.18H38.7098V382.78ZM29.5277 384.009C29.6081 380.593 30.3293 377.831 31.6237 375.661L29.5626 374.431C28.0047 377.043 27.2158 380.237 27.1284 383.952L29.5277 384.009ZM31.6158 375.674C32.9731 373.463 34.7139 371.867 36.84 370.841L35.7977 368.68C33.2258 369.92 31.1495 371.847 29.5706 374.418L31.6158 375.674ZM36.8326 370.845C39.0483 369.795 41.5132 369.262 44.2468 369.262V366.862C41.1917 366.862 38.3713 367.46 35.8052 368.676L36.8326 370.845ZM44.2468 369.262C49.045 369.262 52.4391 370.49 54.654 372.741L56.365 371.058C53.5463 368.193 49.4319 366.862 44.2468 366.862V369.262ZM54.661 372.748C56.9634 375.051 58.1476 378.064 58.1476 381.904H60.5476C60.5476 377.522 59.1731 373.866 56.358 371.051L54.661 372.748ZM58.1476 381.904C58.1476 386.095 56.7256 390.01 53.8144 393.679L55.6945 395.171C58.9074 391.122 60.5476 386.69 60.5476 381.904H58.1476ZM53.8184 393.674C50.8276 397.403 46.9996 401.071 42.3193 404.674L43.7834 406.576C48.583 402.88 52.5571 399.082 55.6905 395.176L53.8184 393.674ZM43.0513 406.825H60.0397V404.425H43.0513V406.825ZM58.8397 405.625V414.371H61.2397V405.625H58.8397ZM60.0397 413.171H28.4539V415.571H60.0397V413.171ZM29.6539 414.371V406.38H27.2539V414.371H29.6539Z" fill="#603CA5"/>
    <path d="M124.088 370L121.432 365.44H119.672V370H118.216V358.848H121.816C122.659 358.848 123.368 358.992 123.944 359.28C124.531 359.568 124.968 359.957 125.256 360.448C125.544 360.939 125.688 361.499 125.688 362.128C125.688 362.896 125.464 363.573 125.016 364.16C124.579 364.747 123.918 365.136 123.032 365.328L125.832 370H124.088ZM119.672 364.272H121.816C122.606 364.272 123.198 364.08 123.592 363.696C123.987 363.301 124.184 362.779 124.184 362.128C124.184 361.467 123.987 360.955 123.592 360.592C123.208 360.229 122.616 360.048 121.816 360.048H119.672V364.272ZM135.951 365.28C135.951 365.557 135.935 365.851 135.903 366.16H128.895C128.948 367.024 129.241 367.701 129.775 368.192C130.319 368.672 130.975 368.912 131.743 368.912C132.372 368.912 132.895 368.768 133.311 368.48C133.737 368.181 134.036 367.787 134.207 367.296H135.775C135.54 368.139 135.071 368.827 134.367 369.36C133.663 369.883 132.788 370.144 131.743 370.144C130.911 370.144 130.164 369.957 129.503 369.584C128.852 369.211 128.34 368.683 127.967 368C127.593 367.307 127.407 366.507 127.407 365.6C127.407 364.693 127.588 363.899 127.951 363.216C128.313 362.533 128.82 362.011 129.471 361.648C130.132 361.275 130.889 361.088 131.743 361.088C132.575 361.088 133.311 361.269 133.951 361.632C134.591 361.995 135.081 362.496 135.423 363.136C135.775 363.765 135.951 364.48 135.951 365.28ZM134.447 364.976C134.447 364.421 134.324 363.947 134.079 363.552C133.833 363.147 133.497 362.843 133.071 362.64C132.655 362.427 132.191 362.32 131.679 362.32C130.943 362.32 130.313 362.555 129.791 363.024C129.279 363.493 128.985 364.144 128.911 364.976H134.447ZM140.977 370.144C140.305 370.144 139.702 370.032 139.169 369.808C138.635 369.573 138.214 369.253 137.905 368.848C137.595 368.432 137.425 367.957 137.393 367.424H138.897C138.939 367.861 139.142 368.219 139.505 368.496C139.878 368.773 140.363 368.912 140.961 368.912C141.515 368.912 141.953 368.789 142.273 368.544C142.593 368.299 142.753 367.989 142.753 367.616C142.753 367.232 142.582 366.949 142.241 366.768C141.899 366.576 141.371 366.389 140.657 366.208C140.006 366.037 139.473 365.867 139.057 365.696C138.651 365.515 138.299 365.253 138.001 364.912C137.713 364.56 137.569 364.101 137.569 363.536C137.569 363.088 137.702 362.677 137.969 362.304C138.235 361.931 138.614 361.637 139.105 361.424C139.595 361.2 140.155 361.088 140.785 361.088C141.755 361.088 142.539 361.333 143.137 361.824C143.734 362.315 144.054 362.987 144.097 363.84H142.641C142.609 363.381 142.422 363.013 142.081 362.736C141.75 362.459 141.302 362.32 140.737 362.32C140.214 362.32 139.798 362.432 139.489 362.656C139.179 362.88 139.025 363.173 139.025 363.536C139.025 363.824 139.115 364.064 139.297 364.256C139.489 364.437 139.723 364.587 140.001 364.704C140.289 364.811 140.683 364.933 141.185 365.072C141.814 365.243 142.326 365.413 142.721 365.584C143.115 365.744 143.451 365.989 143.729 366.32C144.017 366.651 144.166 367.083 144.177 367.616C144.177 368.096 144.043 368.528 143.777 368.912C143.51 369.296 143.131 369.6 142.641 369.824C142.161 370.037 141.606 370.144 140.977 370.144ZM147.688 362.848C147.976 362.347 148.403 361.931 148.968 361.6C149.544 361.259 150.211 361.088 150.968 361.088C151.747 361.088 152.451 361.275 153.08 361.648C153.72 362.021 154.221 362.549 154.584 363.232C154.947 363.904 155.128 364.688 155.128 365.584C155.128 366.469 154.947 367.259 154.584 367.952C154.221 368.645 153.72 369.184 153.08 369.568C152.451 369.952 151.747 370.144 150.968 370.144C150.221 370.144 149.56 369.979 148.984 369.648C148.419 369.307 147.987 368.885 147.688 368.384V374.16H146.232V361.232H147.688V362.848ZM153.64 365.584C153.64 364.923 153.507 364.347 153.24 363.856C152.973 363.365 152.611 362.992 152.152 362.736C151.704 362.48 151.208 362.352 150.664 362.352C150.131 362.352 149.635 362.485 149.176 362.752C148.728 363.008 148.365 363.387 148.088 363.888C147.821 364.379 147.688 364.949 147.688 365.6C147.688 366.261 147.821 366.843 148.088 367.344C148.365 367.835 148.728 368.213 149.176 368.48C149.635 368.736 150.131 368.864 150.664 368.864C151.208 368.864 151.704 368.736 152.152 368.48C152.611 368.213 152.973 367.835 153.24 367.344C153.507 366.843 153.64 366.256 153.64 365.584ZM156.501 365.6C156.501 364.693 156.682 363.904 157.045 363.232C157.407 362.549 157.909 362.021 158.549 361.648C159.199 361.275 159.941 361.088 160.773 361.088C161.85 361.088 162.735 361.349 163.429 361.872C164.133 362.395 164.597 363.12 164.821 364.048H163.253C163.103 363.515 162.81 363.093 162.373 362.784C161.946 362.475 161.413 362.32 160.773 362.32C159.941 362.32 159.269 362.608 158.757 363.184C158.245 363.749 157.989 364.555 157.989 365.6C157.989 366.656 158.245 367.472 158.757 368.048C159.269 368.624 159.941 368.912 160.773 368.912C161.413 368.912 161.946 368.763 162.373 368.464C162.799 368.165 163.093 367.739 163.253 367.184H164.821C164.586 368.08 164.117 368.8 163.413 369.344C162.709 369.877 161.829 370.144 160.773 370.144C159.941 370.144 159.199 369.957 158.549 369.584C157.909 369.211 157.407 368.683 157.045 368C156.682 367.317 156.501 366.517 156.501 365.6ZM168.539 362.432V367.6C168.539 368.027 168.63 368.331 168.811 368.512C168.993 368.683 169.307 368.768 169.755 368.768H170.827V370H169.515C168.705 370 168.097 369.813 167.691 369.44C167.286 369.067 167.083 368.453 167.083 367.6V362.432H165.947V361.232H167.083V359.024H168.539V361.232H170.827V362.432H168.539ZM177.609 359.808C177.332 359.808 177.097 359.712 176.905 359.52C176.713 359.328 176.617 359.093 176.617 358.816C176.617 358.539 176.713 358.304 176.905 358.112C177.097 357.92 177.332 357.824 177.609 357.824C177.876 357.824 178.1 357.92 178.281 358.112C178.473 358.304 178.569 358.539 178.569 358.816C178.569 359.093 178.473 359.328 178.281 359.52C178.1 359.712 177.876 359.808 177.609 359.808ZM178.313 361.232V370H176.857V361.232H178.313ZM183.899 370.144C183.227 370.144 182.624 370.032 182.091 369.808C181.557 369.573 181.136 369.253 180.827 368.848C180.517 368.432 180.347 367.957 180.315 367.424H181.819C181.861 367.861 182.064 368.219 182.427 368.496C182.8 368.773 183.285 368.912 183.883 368.912C184.437 368.912 184.875 368.789 185.195 368.544C185.515 368.299 185.675 367.989 185.675 367.616C185.675 367.232 185.504 366.949 185.163 366.768C184.821 366.576 184.293 366.389 183.579 366.208C182.928 366.037 182.395 365.867 181.979 365.696C181.573 365.515 181.221 365.253 180.923 364.912C180.635 364.56 180.491 364.101 180.491 363.536C180.491 363.088 180.624 362.677 180.891 362.304C181.157 361.931 181.536 361.637 182.027 361.424C182.517 361.2 183.077 361.088 183.707 361.088C184.677 361.088 185.461 361.333 186.059 361.824C186.656 362.315 186.976 362.987 187.019 363.84H185.563C185.531 363.381 185.344 363.013 185.003 362.736C184.672 362.459 184.224 362.32 183.659 362.32C183.136 362.32 182.72 362.432 182.411 362.656C182.101 362.88 181.947 363.173 181.947 363.536C181.947 363.824 182.037 364.064 182.219 364.256C182.411 364.437 182.645 364.587 182.923 364.704C183.211 364.811 183.605 364.933 184.107 365.072C184.736 365.243 185.248 365.413 185.643 365.584C186.037 365.744 186.373 365.989 186.651 366.32C186.939 366.651 187.088 367.083 187.099 367.616C187.099 368.096 186.965 368.528 186.699 368.912C186.432 369.296 186.053 369.6 185.563 369.824C185.083 370.037 184.528 370.144 183.899 370.144ZM192.876 365.584C192.876 364.688 193.057 363.904 193.42 363.232C193.782 362.549 194.278 362.021 194.908 361.648C195.548 361.275 196.257 361.088 197.036 361.088C197.804 361.088 198.47 361.253 199.036 361.584C199.601 361.915 200.022 362.331 200.3 362.832V361.232H201.772V370H200.3V368.368C200.012 368.88 199.58 369.307 199.004 369.648C198.438 369.979 197.777 370.144 197.02 370.144C196.241 370.144 195.537 369.952 194.908 369.568C194.278 369.184 193.782 368.645 193.42 367.952C193.057 367.259 192.876 366.469 192.876 365.584ZM200.3 365.6C200.3 364.939 200.166 364.363 199.9 363.872C199.633 363.381 199.27 363.008 198.812 362.752C198.364 362.485 197.868 362.352 197.324 362.352C196.78 362.352 196.284 362.48 195.836 362.736C195.388 362.992 195.03 363.365 194.764 363.856C194.497 364.347 194.364 364.923 194.364 365.584C194.364 366.256 194.497 366.843 194.764 367.344C195.03 367.835 195.388 368.213 195.836 368.48C196.284 368.736 196.78 368.864 197.324 368.864C197.868 368.864 198.364 368.736 198.812 368.48C199.27 368.213 199.633 367.835 199.9 367.344C200.166 366.843 200.3 366.261 200.3 365.6ZM96.5161 387.6C96.5161 386.693 96.6975 385.904 97.0601 385.232C97.4228 384.549 97.9241 384.021 98.5641 383.648C99.2148 383.275 99.9561 383.088 100.788 383.088C101.865 383.088 102.751 383.349 103.444 383.872C104.148 384.395 104.612 385.12 104.836 386.048H103.268C103.119 385.515 102.825 385.093 102.388 384.784C101.961 384.475 101.428 384.32 100.788 384.32C99.9561 384.32 99.2841 384.608 98.7721 385.184C98.2601 385.749 98.0041 386.555 98.0041 387.6C98.0041 388.656 98.2601 389.472 98.7721 390.048C99.2841 390.624 99.9561 390.912 100.788 390.912C101.428 390.912 101.961 390.763 102.388 390.464C102.815 390.165 103.108 389.739 103.268 389.184H104.836C104.601 390.08 104.132 390.8 103.428 391.344C102.724 391.877 101.844 392.144 100.788 392.144C99.9561 392.144 99.2148 391.957 98.5641 391.584C97.9241 391.211 97.4228 390.683 97.0601 390C96.6975 389.317 96.5161 388.517 96.5161 387.6ZM108.235 384.656C108.491 384.155 108.854 383.765 109.323 383.488C109.803 383.211 110.384 383.072 111.067 383.072V384.576H110.683C109.051 384.576 108.235 385.461 108.235 387.232V392H106.779V383.232H108.235V384.656ZM120.748 387.28C120.748 387.557 120.732 387.851 120.7 388.16H113.692C113.745 389.024 114.038 389.701 114.572 390.192C115.116 390.672 115.772 390.912 116.54 390.912C117.169 390.912 117.692 390.768 118.108 390.48C118.534 390.181 118.833 389.787 119.004 389.296H120.572C120.337 390.139 119.868 390.827 119.164 391.36C118.46 391.883 117.585 392.144 116.54 392.144C115.708 392.144 114.961 391.957 114.3 391.584C113.649 391.211 113.137 390.683 112.764 390C112.39 389.307 112.204 388.507 112.204 387.6C112.204 386.693 112.385 385.899 112.748 385.216C113.11 384.533 113.617 384.011 114.268 383.648C114.929 383.275 115.686 383.088 116.54 383.088C117.372 383.088 118.108 383.269 118.748 383.632C119.388 383.995 119.878 384.496 120.22 385.136C120.572 385.765 120.748 386.48 120.748 387.28ZM119.244 386.976C119.244 386.421 119.121 385.947 118.876 385.552C118.63 385.147 118.294 384.843 117.868 384.64C117.452 384.427 116.988 384.32 116.476 384.32C115.74 384.32 115.11 384.555 114.588 385.024C114.076 385.493 113.782 386.144 113.708 386.976H119.244ZM122.126 387.584C122.126 386.688 122.307 385.904 122.67 385.232C123.032 384.549 123.528 384.021 124.158 383.648C124.798 383.275 125.507 383.088 126.286 383.088C127.054 383.088 127.72 383.253 128.286 383.584C128.851 383.915 129.272 384.331 129.55 384.832V383.232H131.022V392H129.55V390.368C129.262 390.88 128.83 391.307 128.254 391.648C127.688 391.979 127.027 392.144 126.27 392.144C125.491 392.144 124.787 391.952 124.158 391.568C123.528 391.184 123.032 390.645 122.67 389.952C122.307 389.259 122.126 388.469 122.126 387.584ZM129.55 387.6C129.55 386.939 129.416 386.363 129.15 385.872C128.883 385.381 128.52 385.008 128.062 384.752C127.614 384.485 127.118 384.352 126.574 384.352C126.03 384.352 125.534 384.48 125.086 384.736C124.638 384.992 124.28 385.365 124.014 385.856C123.747 386.347 123.614 386.923 123.614 387.584C123.614 388.256 123.747 388.843 124.014 389.344C124.28 389.835 124.638 390.213 125.086 390.48C125.534 390.736 126.03 390.864 126.574 390.864C127.118 390.864 127.614 390.736 128.062 390.48C128.52 390.213 128.883 389.835 129.15 389.344C129.416 388.843 129.55 388.261 129.55 387.6ZM135.258 384.432V389.6C135.258 390.027 135.349 390.331 135.53 390.512C135.711 390.683 136.026 390.768 136.474 390.768H137.546V392H136.234C135.423 392 134.815 391.813 134.41 391.44C134.005 391.067 133.802 390.453 133.802 389.6V384.432H132.666V383.232H133.802V381.024H135.258V383.232H137.546V384.432H135.258ZM143.134 392.144C142.313 392.144 141.566 391.957 140.894 391.584C140.233 391.211 139.71 390.683 139.326 390C138.953 389.307 138.766 388.507 138.766 387.6C138.766 386.704 138.958 385.915 139.342 385.232C139.737 384.539 140.27 384.011 140.942 383.648C141.614 383.275 142.366 383.088 143.198 383.088C144.03 383.088 144.782 383.275 145.454 383.648C146.126 384.011 146.654 384.533 147.038 385.216C147.433 385.899 147.63 386.693 147.63 387.6C147.63 388.507 147.427 389.307 147.022 390C146.627 390.683 146.089 391.211 145.406 391.584C144.723 391.957 143.966 392.144 143.134 392.144ZM143.134 390.864C143.657 390.864 144.147 390.741 144.606 390.496C145.065 390.251 145.433 389.883 145.71 389.392C145.998 388.901 146.142 388.304 146.142 387.6C146.142 386.896 146.003 386.299 145.726 385.808C145.449 385.317 145.086 384.955 144.638 384.72C144.19 384.475 143.705 384.352 143.182 384.352C142.649 384.352 142.158 384.475 141.71 384.72C141.273 384.955 140.921 385.317 140.654 385.808C140.387 386.299 140.254 386.896 140.254 387.6C140.254 388.315 140.382 388.917 140.638 389.408C140.905 389.899 141.257 390.267 141.694 390.512C142.131 390.747 142.611 390.864 143.134 390.864ZM151.001 384.656C151.257 384.155 151.619 383.765 152.089 383.488C152.569 383.211 153.15 383.072 153.833 383.072V384.576H153.449C151.817 384.576 151.001 385.461 151.001 387.232V392H149.545V383.232H151.001V384.656ZM161.555 384.432V389.6C161.555 390.027 161.646 390.331 161.827 390.512C162.008 390.683 162.323 390.768 162.771 390.768H163.843V392H162.531C161.72 392 161.112 391.813 160.707 391.44C160.302 391.067 160.099 390.453 160.099 389.6V384.432H158.963V383.232H160.099V381.024H161.555V383.232H163.843V384.432H161.555ZM169.431 392.144C168.61 392.144 167.863 391.957 167.191 391.584C166.53 391.211 166.007 390.683 165.623 390C165.25 389.307 165.063 388.507 165.063 387.6C165.063 386.704 165.255 385.915 165.639 385.232C166.034 384.539 166.567 384.011 167.239 383.648C167.911 383.275 168.663 383.088 169.495 383.088C170.327 383.088 171.079 383.275 171.751 383.648C172.423 384.011 172.951 384.533 173.335 385.216C173.73 385.899 173.927 386.693 173.927 387.6C173.927 388.507 173.724 389.307 173.319 390C172.924 390.683 172.386 391.211 171.703 391.584C171.02 391.957 170.263 392.144 169.431 392.144ZM169.431 390.864C169.954 390.864 170.444 390.741 170.903 390.496C171.362 390.251 171.73 389.883 172.007 389.392C172.295 388.901 172.439 388.304 172.439 387.6C172.439 386.896 172.3 386.299 172.023 385.808C171.746 385.317 171.383 384.955 170.935 384.72C170.487 384.475 170.002 384.352 169.479 384.352C168.946 384.352 168.455 384.475 168.007 384.72C167.57 384.955 167.218 385.317 166.951 385.808C166.684 386.299 166.551 386.896 166.551 387.6C166.551 388.315 166.679 388.917 166.935 389.408C167.202 389.899 167.554 390.267 167.991 390.512C168.428 390.747 168.908 390.864 169.431 390.864ZM180.737 392L177.297 388.128V392H175.841V380.16H177.297V387.12L180.673 383.232H182.705L178.577 387.6L182.721 392H180.737ZM192.076 387.28C192.076 387.557 192.06 387.851 192.028 388.16H185.02C185.073 389.024 185.366 389.701 185.9 390.192C186.444 390.672 187.1 390.912 187.868 390.912C188.497 390.912 189.02 390.768 189.436 390.48C189.862 390.181 190.161 389.787 190.332 389.296H191.9C191.665 390.139 191.196 390.827 190.492 391.36C189.788 391.883 188.913 392.144 187.868 392.144C187.036 392.144 186.289 391.957 185.628 391.584C184.977 391.211 184.465 390.683 184.092 390C183.718 389.307 183.532 388.507 183.532 387.6C183.532 386.693 183.713 385.899 184.076 385.216C184.438 384.533 184.945 384.011 185.596 383.648C186.257 383.275 187.014 383.088 187.868 383.088C188.7 383.088 189.436 383.269 190.076 383.632C190.716 383.995 191.206 384.496 191.548 385.136C191.9 385.765 192.076 386.48 192.076 387.28ZM190.572 386.976C190.572 386.421 190.449 385.947 190.204 385.552C189.958 385.147 189.622 384.843 189.196 384.64C188.78 384.427 188.316 384.32 187.804 384.32C187.068 384.32 186.438 384.555 185.916 385.024C185.404 385.493 185.11 386.144 185.036 386.976H190.572ZM198.27 383.072C199.336 383.072 200.2 383.397 200.862 384.048C201.523 384.688 201.854 385.616 201.854 386.832V392H200.414V387.04C200.414 386.165 200.195 385.499 199.758 385.04C199.32 384.571 198.723 384.336 197.966 384.336C197.198 384.336 196.584 384.576 196.126 385.056C195.678 385.536 195.454 386.235 195.454 387.152V392H193.998V383.232H195.454V384.48C195.742 384.032 196.131 383.685 196.622 383.44C197.123 383.195 197.672 383.072 198.27 383.072ZM136.344 406.848C136.632 406.347 137.059 405.931 137.624 405.6C138.2 405.259 138.867 405.088 139.624 405.088C140.403 405.088 141.107 405.275 141.736 405.648C142.376 406.021 142.878 406.549 143.24 407.232C143.603 407.904 143.784 408.688 143.784 409.584C143.784 410.469 143.603 411.259 143.24 411.952C142.878 412.645 142.376 413.184 141.736 413.568C141.107 413.952 140.403 414.144 139.624 414.144C138.878 414.144 138.216 413.979 137.64 413.648C137.075 413.307 136.643 412.885 136.344 412.384V418.16H134.888V405.232H136.344V406.848ZM142.296 409.584C142.296 408.923 142.163 408.347 141.896 407.856C141.63 407.365 141.267 406.992 140.808 406.736C140.36 406.48 139.864 406.352 139.32 406.352C138.787 406.352 138.291 406.485 137.832 406.752C137.384 407.008 137.022 407.387 136.744 407.888C136.478 408.379 136.344 408.949 136.344 409.6C136.344 410.261 136.478 410.843 136.744 411.344C137.022 411.835 137.384 412.213 137.832 412.48C138.291 412.736 138.787 412.864 139.32 412.864C139.864 412.864 140.36 412.736 140.808 412.48C141.267 412.213 141.63 411.835 141.896 411.344C142.163 410.843 142.296 410.256 142.296 409.584ZM147.157 402.16V414H145.701V402.16H147.157ZM149.094 409.584C149.094 408.688 149.276 407.904 149.638 407.232C150.001 406.549 150.497 406.021 151.126 405.648C151.766 405.275 152.476 405.088 153.254 405.088C154.022 405.088 154.689 405.253 155.254 405.584C155.82 405.915 156.241 406.331 156.518 406.832V405.232H157.99V414H156.518V412.368C156.23 412.88 155.798 413.307 155.222 413.648C154.657 413.979 153.996 414.144 153.238 414.144C152.46 414.144 151.756 413.952 151.126 413.568C150.497 413.184 150.001 412.645 149.638 411.952C149.276 411.259 149.094 410.469 149.094 409.584ZM156.518 409.6C156.518 408.939 156.385 408.363 156.118 407.872C155.852 407.381 155.489 407.008 155.03 406.752C154.582 406.485 154.086 406.352 153.542 406.352C152.998 406.352 152.502 406.48 152.054 406.736C151.606 406.992 151.249 407.365 150.982 407.856C150.716 408.347 150.582 408.923 150.582 409.584C150.582 410.256 150.716 410.843 150.982 411.344C151.249 411.835 151.606 412.213 152.054 412.48C152.502 412.736 152.998 412.864 153.542 412.864C154.086 412.864 154.582 412.736 155.03 412.48C155.489 412.213 155.852 411.835 156.118 411.344C156.385 410.843 156.518 410.261 156.518 409.6ZM162.227 406.432V411.6C162.227 412.027 162.317 412.331 162.499 412.512C162.68 412.683 162.995 412.768 163.443 412.768H164.515V414H163.203C162.392 414 161.784 413.813 161.379 413.44C160.973 413.067 160.771 412.453 160.771 411.6V406.432H159.635V405.232H160.771V403.024H162.227V405.232H164.515V406.432H162.227ZM169.847 406.432H168.007V414H166.551V406.432H165.415V405.232H166.551V404.608C166.551 403.627 166.802 402.912 167.303 402.464C167.815 402.005 168.631 401.776 169.751 401.776V402.992C169.111 402.992 168.658 403.12 168.391 403.376C168.135 403.621 168.007 404.032 168.007 404.608V405.232H169.847V406.432ZM175.369 414.144C174.547 414.144 173.801 413.957 173.129 413.584C172.467 413.211 171.945 412.683 171.561 412C171.187 411.307 171.001 410.507 171.001 409.6C171.001 408.704 171.193 407.915 171.577 407.232C171.971 406.539 172.505 406.011 173.177 405.648C173.849 405.275 174.601 405.088 175.433 405.088C176.265 405.088 177.017 405.275 177.689 405.648C178.361 406.011 178.889 406.533 179.273 407.216C179.667 407.899 179.865 408.693 179.865 409.6C179.865 410.507 179.662 411.307 179.257 412C178.862 412.683 178.323 413.211 177.641 413.584C176.958 413.957 176.201 414.144 175.369 414.144ZM175.369 412.864C175.891 412.864 176.382 412.741 176.841 412.496C177.299 412.251 177.667 411.883 177.945 411.392C178.233 410.901 178.377 410.304 178.377 409.6C178.377 408.896 178.238 408.299 177.961 407.808C177.683 407.317 177.321 406.955 176.873 406.72C176.425 406.475 175.939 406.352 175.417 406.352C174.883 406.352 174.393 406.475 173.945 406.72C173.507 406.955 173.155 407.317 172.889 407.808C172.622 408.299 172.489 408.896 172.489 409.6C172.489 410.315 172.617 410.917 172.873 411.408C173.139 411.899 173.491 412.267 173.929 412.512C174.366 412.747 174.846 412.864 175.369 412.864ZM183.235 406.656C183.491 406.155 183.854 405.765 184.323 405.488C184.803 405.211 185.384 405.072 186.067 405.072V406.576H185.683C184.051 406.576 183.235 407.461 183.235 409.232V414H181.779V405.232H183.235V406.656ZM198.292 405.072C198.974 405.072 199.582 405.216 200.116 405.504C200.649 405.781 201.07 406.203 201.38 406.768C201.689 407.333 201.844 408.021 201.844 408.832V414H200.404V409.04C200.404 408.165 200.185 407.499 199.748 407.04C199.321 406.571 198.74 406.336 198.004 406.336C197.246 406.336 196.644 406.581 196.196 407.072C195.748 407.552 195.524 408.251 195.524 409.168V414H194.084V409.04C194.084 408.165 193.865 407.499 193.428 407.04C193.001 406.571 192.42 406.336 191.684 406.336C190.926 406.336 190.324 406.581 189.876 407.072C189.428 407.552 189.204 408.251 189.204 409.168V414H187.748V405.232H189.204V406.496C189.492 406.037 189.876 405.685 190.356 405.44C190.846 405.195 191.385 405.072 191.972 405.072C192.708 405.072 193.358 405.237 193.924 405.568C194.489 405.899 194.91 406.384 195.188 407.024C195.433 406.405 195.838 405.925 196.404 405.584C196.969 405.243 197.598 405.072 198.292 405.072ZM166.74 427.232L164.004 436H162.5L160.388 429.04L158.276 436H156.772L154.02 427.232H155.508L157.524 434.592L159.7 427.232H161.188L163.316 434.608L165.3 427.232H166.74ZM172.537 427.072C173.198 427.072 173.796 427.216 174.329 427.504C174.862 427.781 175.278 428.203 175.577 428.768C175.886 429.333 176.041 430.021 176.041 430.832V436H174.601V431.04C174.601 430.165 174.382 429.499 173.945 429.04C173.508 428.571 172.91 428.336 172.153 428.336C171.385 428.336 170.772 428.576 170.313 429.056C169.865 429.536 169.641 430.235 169.641 431.152V436H168.185V424.16H169.641V428.48C169.929 428.032 170.324 427.685 170.825 427.44C171.337 427.195 171.908 427.072 172.537 427.072ZM186.42 431.28C186.42 431.557 186.404 431.851 186.372 432.16H179.364C179.417 433.024 179.71 433.701 180.244 434.192C180.788 434.672 181.444 434.912 182.212 434.912C182.841 434.912 183.364 434.768 183.78 434.48C184.206 434.181 184.505 433.787 184.676 433.296H186.244C186.009 434.139 185.54 434.827 184.836 435.36C184.132 435.883 183.257 436.144 182.212 436.144C181.38 436.144 180.633 435.957 179.972 435.584C179.321 435.211 178.809 434.683 178.436 434C178.062 433.307 177.876 432.507 177.876 431.6C177.876 430.693 178.057 429.899 178.42 429.216C178.782 428.533 179.289 428.011 179.94 427.648C180.601 427.275 181.358 427.088 182.212 427.088C183.044 427.088 183.78 427.269 184.42 427.632C185.06 427.995 185.55 428.496 185.892 429.136C186.244 429.765 186.42 430.48 186.42 431.28ZM184.916 430.976C184.916 430.421 184.793 429.947 184.548 429.552C184.302 429.147 183.966 428.843 183.54 428.64C183.124 428.427 182.66 428.32 182.148 428.32C181.412 428.32 180.782 428.555 180.26 429.024C179.748 429.493 179.454 430.144 179.38 430.976H184.916ZM189.797 428.656C190.053 428.155 190.416 427.765 190.885 427.488C191.365 427.211 191.947 427.072 192.629 427.072V428.576H192.245C190.613 428.576 189.797 429.461 189.797 431.232V436H188.341V427.232H189.797V428.656ZM202.31 431.28C202.31 431.557 202.294 431.851 202.262 432.16H195.254C195.307 433.024 195.601 433.701 196.134 434.192C196.678 434.672 197.334 434.912 198.102 434.912C198.731 434.912 199.254 434.768 199.67 434.48C200.097 434.181 200.395 433.787 200.566 433.296H202.134C201.899 434.139 201.43 434.827 200.726 435.36C200.022 435.883 199.147 436.144 198.102 436.144C197.27 436.144 196.523 435.957 195.862 435.584C195.211 435.211 194.699 434.683 194.326 434C193.953 433.307 193.766 432.507 193.766 431.6C193.766 430.693 193.947 429.899 194.31 429.216C194.673 428.533 195.179 428.011 195.83 427.648C196.491 427.275 197.249 427.088 198.102 427.088C198.934 427.088 199.67 427.269 200.31 427.632C200.95 427.995 201.441 428.496 201.782 429.136C202.134 429.765 202.31 430.48 202.31 431.28ZM200.806 430.976C200.806 430.421 200.683 429.947 200.438 429.552C200.193 429.147 199.857 428.843 199.43 428.64C199.014 428.427 198.55 428.32 198.038 428.32C197.302 428.32 196.673 428.555 196.15 429.024C195.638 429.493 195.345 430.144 195.27 430.976H200.806Z" fill="white"/>
    <defs>
    <filter id="filter0_dd_1211_7825" x="15" y="0" width="243" height="299" filterUnits="userSpaceOnUse" color-interpolation-filters="sRGB">
    <feFlood flood-opacity="0" result="BackgroundImageFix"/>
    <feColorMatrix in="SourceAlpha" type="matrix" values="0 0 0 0 0 0 0 0 0 0 0 0 0 0 0 0 0 0 127 0" result="hardAlpha"/>
    <feOffset dx="10" dy="19"/>
    <feGaussianBlur stdDeviation="14"/>
    <feComposite in2="hardAlpha" operator="out"/>
    <feColorMatrix type="matrix" values="0 0 0 0 0.0573974 0 0 0 0 0.0619339 0 0 0 0 0.071007 0 0 0 1 0"/>
    <feBlend mode="normal" in2="BackgroundImageFix" result="effect1_dropShadow_1211_7825"/>
    <feColorMatrix in="SourceAlpha" type="matrix" values="0 0 0 0 0 0 0 0 0 0 0 0 0 0 0 0 0 0 127 0" result="hardAlpha"/>
    <feOffset dx="-12" dy="-10"/>
    <feGaussianBlur stdDeviation="10.5"/>
    <feComposite in2="hardAlpha" operator="out"/>
    <feColorMatrix type="matrix" values="0 0 0 0 0.233507 0 0 0 0 0.233507 0 0 0 0 0.233507 0 0 0 0.25 0"/>
    <feBlend mode="normal" in2="effect1_dropShadow_1211_7825" result="effect2_dropShadow_1211_7825"/>
    <feBlend mode="normal" in="SourceGraphic" in2="effect2_dropShadow_1211_7825" result="shape"/>
    </filter>
    <filter id="filter1_dd_1211_7825" x="174.709" y="90.3731" width="89.9174" height="89.9174" filterUnits="userSpaceOnUse" color-interpolation-filters="sRGB">
    <feFlood flood-opacity="0" result="BackgroundImageFix"/>
    <feColorMatrix in="SourceAlpha" type="matrix" values="0 0 0 0 0 0 0 0 0 0 0 0 0 0 0 0 0 0 127 0" result="hardAlpha"/>
    <feOffset dx="-2.65443" dy="-1.99082"/>
    <feGaussianBlur stdDeviation="3.31804"/>
    <feComposite in2="hardAlpha" operator="out"/>
    <feColorMatrix type="matrix" values="0 0 0 0 0.250174 0 0 0 0 0.250174 0 0 0 0 0.250174 0 0 0 0.12 0"/>
    <feBlend mode="normal" in2="BackgroundImageFix" result="effect1_dropShadow_1211_7825"/>
    <feColorMatrix in="SourceAlpha" type="matrix" values="0 0 0 0 0 0 0 0 0 0 0 0 0 0 0 0 0 0 127 0" result="hardAlpha"/>
    <feOffset dx="1.99082" dy="2.65443"/>
    <feGaussianBlur stdDeviation="3.31804"/>
    <feComposite in2="hardAlpha" operator="out"/>
    <feColorMatrix type="matrix" values="0 0 0 0 0 0 0 0 0 0 0 0 0 0 0 0 0 0 0.55 0"/>
    <feBlend mode="normal" in2="effect1_dropShadow_1211_7825" result="effect2_dropShadow_1211_7825"/>
    <feBlend mode="normal" in="SourceGraphic" in2="effect2_dropShadow_1211_7825" result="shape"/>
    </filter>
    <filter id="filter2_dd_1211_7825" x="15" y="508" width="243" height="299" filterUnits="userSpaceOnUse" color-interpolation-filters="sRGB">
    <feFlood flood-opacity="0" result="BackgroundImageFix"/>
    <feColorMatrix in="SourceAlpha" type="matrix" values="0 0 0 0 0 0 0 0 0 0 0 0 0 0 0 0 0 0 127 0" result="hardAlpha"/>
    <feOffset dx="10" dy="19"/>
    <feGaussianBlur stdDeviation="14"/>
    <feComposite in2="hardAlpha" operator="out"/>
    <feColorMatrix type="matrix" values="0 0 0 0 0.0573974 0 0 0 0 0.0619339 0 0 0 0 0.071007 0 0 0 1 0"/>
    <feBlend mode="normal" in2="BackgroundImageFix" result="effect1_dropShadow_1211_7825"/>
    <feColorMatrix in="SourceAlpha" type="matrix" values="0 0 0 0 0 0 0 0 0 0 0 0 0 0 0 0 0 0 127 0" result="hardAlpha"/>
    <feOffset dx="-12" dy="-10"/>
    <feGaussianBlur stdDeviation="10.5"/>
    <feComposite in2="hardAlpha" operator="out"/>
    <feColorMatrix type="matrix" values="0 0 0 0 0.233507 0 0 0 0 0.233507 0 0 0 0 0.233507 0 0 0 0.25 0"/>
    <feBlend mode="normal" in2="effect1_dropShadow_1211_7825" result="effect2_dropShadow_1211_7825"/>
    <feBlend mode="normal" in="SourceGraphic" in2="effect2_dropShadow_1211_7825" result="shape"/>
    </filter>
    <filter id="filter3_dd_1211_7825" x="174.709" y="604.373" width="89.9174" height="89.9174" filterUnits="userSpaceOnUse" color-interpolation-filters="sRGB">
    <feFlood flood-opacity="0" result="BackgroundImageFix"/>
    <feColorMatrix in="SourceAlpha" type="matrix" values="0 0 0 0 0 0 0 0 0 0 0 0 0 0 0 0 0 0 127 0" result="hardAlpha"/>
    <feOffset dx="-2.65443" dy="-1.99082"/>
    <feGaussianBlur stdDeviation="3.31804"/>
    <feComposite in2="hardAlpha" operator="out"/>
    <feColorMatrix type="matrix" values="0 0 0 0 0.250174 0 0 0 0 0.250174 0 0 0 0 0.250174 0 0 0 0.12 0"/>
    <feBlend mode="normal" in2="BackgroundImageFix" result="effect1_dropShadow_1211_7825"/>
    <feColorMatrix in="SourceAlpha" type="matrix" values="0 0 0 0 0 0 0 0 0 0 0 0 0 0 0 0 0 0 127 0" result="hardAlpha"/>
    <feOffset dx="1.99082" dy="2.65443"/>
    <feGaussianBlur stdDeviation="3.31804"/>
    <feComposite in2="hardAlpha" operator="out"/>
    <feColorMatrix type="matrix" values="0 0 0 0 0 0 0 0 0 0 0 0 0 0 0 0 0 0 0.55 0"/>
    <feBlend mode="normal" in2="effect1_dropShadow_1211_7825" result="effect2_dropShadow_1211_7825"/>
    <feBlend mode="normal" in="SourceGraphic" in2="effect2_dropShadow_1211_7825" result="shape"/>
    </filter>
    <filter id="filter4_dd_1211_7825" x="15" y="252" width="243" height="299" filterUnits="userSpaceOnUse" color-interpolation-filters="sRGB">
    <feFlood flood-opacity="0" result="BackgroundImageFix"/>
    <feColorMatrix in="SourceAlpha" type="matrix" values="0 0 0 0 0 0 0 0 0 0 0 0 0 0 0 0 0 0 127 0" result="hardAlpha"/>
    <feOffset dx="10" dy="19"/>
    <feGaussianBlur stdDeviation="14"/>
    <feComposite in2="hardAlpha" operator="out"/>
    <feColorMatrix type="matrix" values="0 0 0 0 0.0573974 0 0 0 0 0.0619339 0 0 0 0 0.071007 0 0 0 1 0"/>
    <feBlend mode="normal" in2="BackgroundImageFix" result="effect1_dropShadow_1211_7825"/>
    <feColorMatrix in="SourceAlpha" type="matrix" values="0 0 0 0 0 0 0 0 0 0 0 0 0 0 0 0 0 0 127 0" result="hardAlpha"/>
    <feOffset dx="-12" dy="-10"/>
    <feGaussianBlur stdDeviation="10.5"/>
    <feComposite in2="hardAlpha" operator="out"/>
    <feColorMatrix type="matrix" values="0 0 0 0 0.233507 0 0 0 0 0.233507 0 0 0 0 0.233507 0 0 0 0.25 0"/>
    <feBlend mode="normal" in2="effect1_dropShadow_1211_7825" result="effect2_dropShadow_1211_7825"/>
    <feBlend mode="normal" in="SourceGraphic" in2="effect2_dropShadow_1211_7825" result="shape"/>
    </filter>
    <filter id="filter5_dd_1211_7825" x="0.709486" y="347.373" width="89.9174" height="89.9174" filterUnits="userSpaceOnUse" color-interpolation-filters="sRGB">
    <feFlood flood-opacity="0" result="BackgroundImageFix"/>
    <feColorMatrix in="SourceAlpha" type="matrix" values="0 0 0 0 0 0 0 0 0 0 0 0 0 0 0 0 0 0 127 0" result="hardAlpha"/>
    <feOffset dx="-2.65443" dy="-1.99082"/>
    <feGaussianBlur stdDeviation="3.31804"/>
    <feComposite in2="hardAlpha" operator="out"/>
    <feColorMatrix type="matrix" values="0 0 0 0 0.250174 0 0 0 0 0.250174 0 0 0 0 0.250174 0 0 0 0.12 0"/>
    <feBlend mode="normal" in2="BackgroundImageFix" result="effect1_dropShadow_1211_7825"/>
    <feColorMatrix in="SourceAlpha" type="matrix" values="0 0 0 0 0 0 0 0 0 0 0 0 0 0 0 0 0 0 127 0" result="hardAlpha"/>
    <feOffset dx="1.99082" dy="2.65443"/>
    <feGaussianBlur stdDeviation="3.31804"/>
    <feComposite in2="hardAlpha" operator="out"/>
    <feColorMatrix type="matrix" values="0 0 0 0 0 0 0 0 0 0 0 0 0 0 0 0 0 0 0.55 0"/>
    <feBlend mode="normal" in2="effect1_dropShadow_1211_7825" result="effect2_dropShadow_1211_7825"/>
    <feBlend mode="normal" in="SourceGraphic" in2="effect2_dropShadow_1211_7825" result="shape"/>
    </filter>
    </defs>
    </svg>
    