<svg width="167" height="438" viewBox="0 0 167 438" fill="none" xmlns="http://www.w3.org/2000/svg">
    <path d="M0.200001 95.4H-4.8V100.4H0.200001V95.4ZM0.200001 -1.52588e-05V-5.00002H-4.8V-1.52588e-05H0.200001ZM166.4 -1.52588e-05H171.4V-5.00002H166.4V-1.52588e-05ZM166.4 438V443H171.4V438H166.4ZM59.6 438H54.6V443H59.6V438ZM59.6 95.4H64.6V90.4H59.6V95.4ZM5.2 95.4V-1.52588e-05H-4.8V95.4H5.2ZM0.200001 4.99998H166.4V-5.00002H0.200001V4.99998ZM161.4 -1.52588e-05V438H171.4V-1.52588e-05H161.4ZM166.4 433H59.6V443H166.4V433ZM64.6 438V95.4H54.6V438H64.6ZM59.6 90.4H0.200001V100.4H59.6V90.4Z" fill="#603CA5" fill-opacity="0.51"/>
    </svg>
    