<svg width="303" height="442" viewBox="0 0 303 442" fill="none" xmlns="http://www.w3.org/2000/svg">
    <path d="M1.4 365.8L-1.08753 362.668L-2.6 363.869V365.8H1.4ZM20 350.8L17.4517 347.717L22.2188 354.128L20 350.8ZM112.4 271L109.704 268.045L109.691 268.057L109.678 268.069L112.4 271ZM182 100.6L178.916 103.147L182 100.6ZM111.8 104.2L108.613 101.782L108.607 101.791L108.6 101.8L111.8 104.2ZM99.2 152.2V156.2H103.2V152.2H99.2ZM0.200001 152.2L-3.79889 152.106L-3.89522 156.2H0.200001V152.2ZM21.8 67L18.3913 64.9069L18.3779 64.9288L18.3647 64.9509L21.8 67ZM76.4 16.6L74.6877 12.985L74.6752 12.9909L74.6628 12.9969L76.4 16.6ZM259.4 37L256.548 39.8049L256.56 39.8167L256.572 39.8284L259.4 37ZM252.2 251.8L255.32 254.303L255.327 254.295L255.333 254.286L252.2 251.8ZM140.6 358.6L138.16 355.431L128.848 362.6H140.6V358.6ZM302.6 358.6H306.6V354.6H302.6V358.6ZM302.6 442V446H306.6V442H302.6ZM1.4 442H-2.6V446H1.4V442ZM3.88753 368.932C10.6885 363.532 15.6485 359.574 18.761 357.064C20.3108 355.814 21.4263 354.904 22.0853 354.35C22.3591 354.12 22.7024 353.829 22.9316 353.6C22.973 353.559 23.0377 353.493 23.1112 353.411C23.1613 353.354 23.3243 353.171 23.4928 352.913C23.5695 352.795 23.7532 352.504 23.9029 352.094C23.993 351.847 24.4347 350.629 23.8444 349.196C23.0667 347.307 21.3481 346.816 20.5336 346.736C19.8088 346.665 19.2499 346.814 19.0858 346.859C18.676 346.971 18.375 347.126 18.3135 347.157C18.197 347.216 18.1038 347.27 18.05 347.302C17.9399 347.367 17.8436 347.43 17.7812 347.472L22.2188 354.128C22.2314 354.12 22.1957 354.144 22.1316 354.182C22.1009 354.2 22.0272 354.244 21.9264 354.295C21.8808 354.318 21.592 354.468 21.1908 354.577C21.031 354.621 20.4755 354.769 19.7531 354.698C18.9411 354.619 17.2241 354.129 16.4471 352.242C15.8575 350.81 16.2989 349.594 16.388 349.351C16.5365 348.944 16.7182 348.656 16.7919 348.543C16.9546 348.293 17.1081 348.122 17.1451 348.081C17.2056 348.013 17.2536 347.965 17.2747 347.943C17.3413 347.877 17.2909 347.93 16.9397 348.225C16.3487 348.721 15.2892 349.586 13.739 350.836C10.6515 353.326 5.71153 357.268 -1.08753 362.668L3.88753 368.932ZM22.5483 353.883C61.7744 321.462 92.6409 294.806 115.122 273.931L109.678 268.069C87.3591 288.794 56.6256 315.338 17.4517 347.717L22.5483 353.883ZM115.096 273.955C138.098 252.971 157.508 230.941 173.301 207.859L166.699 203.341C151.292 225.859 132.302 247.429 109.704 268.045L115.096 273.955ZM173.301 207.859C189.23 184.578 197.4 161.604 197.4 139H189.4C189.4 159.596 181.97 181.022 166.699 203.341L173.301 207.859ZM197.4 139C197.4 122.016 193.464 108.197 185.084 98.0524L178.916 103.147C185.736 111.403 189.4 123.184 189.4 139H197.4ZM185.084 98.0524C176.524 87.6907 163.839 82.8 147.8 82.8V90.8C162.161 90.8 172.276 95.1092 178.916 103.147L185.084 98.0524ZM147.8 82.8C131.413 82.8 118.208 89.1354 108.613 101.782L114.987 106.618C122.992 96.0645 133.787 90.8 147.8 90.8V82.8ZM108.6 101.8C99.4829 113.956 95.2 130.936 95.2 152.2H103.2C103.2 131.864 107.317 116.844 115 106.6L108.6 101.8ZM99.2 148.2H0.200001V156.2H99.2V148.2ZM4.19889 152.294C4.98713 118.794 12.0744 91.113 25.2353 69.0491L18.3647 64.9509C4.32563 88.487 -2.98713 117.606 -3.79889 152.106L4.19889 152.294ZM25.2087 69.093C38.8395 46.8943 56.4802 30.6448 78.1372 20.203L74.6628 12.9969C51.5198 24.1552 32.7606 41.5056 18.3913 64.9069L25.2087 69.093ZM78.1124 20.2149C100.328 9.69154 124.936 4.39996 152 4.39996V-3.60004C123.864 -3.60004 98.0716 1.9084 74.6877 12.985L78.1124 20.2149ZM152 4.39996C198.955 4.39996 233.555 16.4281 256.548 39.8049L262.252 34.195C237.245 8.77179 200.245 -3.60004 152 -3.60004V4.39996ZM256.572 39.8284C280.117 63.3741 292 94.1038 292 132.4H300C300 92.2962 287.483 59.4259 262.228 34.1715L256.572 39.8284ZM292 132.4C292 174.208 277.764 213.147 249.067 249.314L255.333 254.286C285.036 216.852 300 176.192 300 132.4H292ZM249.08 249.297C220.117 285.401 183.161 320.784 138.16 355.431L143.04 361.769C188.439 326.816 225.883 290.999 255.32 254.303L249.08 249.297ZM140.6 362.6H302.6V354.6H140.6V362.6ZM298.6 358.6V442H306.6V358.6H298.6ZM302.6 438H1.4V446H302.6V438ZM5.4 442V365.8H-2.6V442H5.4Z" fill="#3E2C64"/>
    </svg>
    