<svg width="305" height="453" viewBox="0 0 305 453" fill="none" xmlns="http://www.w3.org/2000/svg">
    <path d="M5.6 134.6L1.60279 134.451L1.44768 138.6H5.6V134.6ZM47.6 35.6L50.2405 38.6047L47.6 35.6ZM231.8 16.4L230.038 19.9911L230.052 19.9976L230.065 20.004L231.8 16.4ZM280.4 59L276.97 61.058L276.987 61.0857L277.004 61.1132L280.4 59ZM277.4 184.4L280.516 186.908L280.531 186.89L280.545 186.871L277.4 184.4ZM231.2 218L229.909 214.214L227.2 215.138V218H231.2ZM231.2 220.4H227.2V223.283L229.935 224.195L231.2 220.4ZM287.6 392L284.176 389.932L284.17 389.942L284.164 389.953L287.6 392ZM237.8 436.4L236.037 432.809L236.024 432.816L236.011 432.822L237.8 436.4ZM45.2 417.2L42.6435 420.276L42.6541 420.285L42.6647 420.294L45.2 417.2ZM0.200003 310.4V306.4H-3.93671L-3.79774 310.534L0.200003 310.4ZM99.8 310.4L103.799 310.309L103.71 306.4H99.8V310.4ZM114.8 352.4L111.861 355.113L111.887 355.142L111.914 355.17L114.8 352.4ZM192.8 354.2L189.909 351.435L189.907 351.438L192.8 354.2ZM187.4 276.8L185.035 280.026L185.095 280.07L185.157 280.112L187.4 276.8ZM110 263.6H106V267.6H110V263.6ZM110 180.2V176.2H106V180.2H110ZM178.4 170L180.323 173.507L180.342 173.497L180.361 173.486L178.4 170ZM185.6 98.6L188.428 95.7715L185.6 98.6ZM118.4 100.4L115.316 97.8524L115.283 97.8932L115.25 97.9348L118.4 100.4ZM105.8 134.6V138.6H109.463L109.785 134.952L105.8 134.6ZM9.59721 134.749C11.1658 92.7892 24.8412 60.9252 50.2405 38.6047L44.9595 32.5953C17.5588 56.6747 3.23419 90.8107 1.60279 134.451L9.59721 134.749ZM50.2405 38.6047C75.7213 16.2124 110.486 4.79997 155 4.79997V-3.20003C109.114 -3.20003 72.2787 8.5876 44.9595 32.5953L50.2405 38.6047ZM155 4.79997C184.55 4.79997 209.514 9.92279 230.038 19.9911L233.562 12.8088C211.686 2.07716 185.45 -3.20003 155 -3.20003V4.79997ZM230.065 20.004C251.064 30.1147 266.627 43.8193 276.97 61.058L283.83 56.942C272.573 38.1806 255.736 23.4853 233.535 12.796L230.065 20.004ZM277.004 61.1132C287.786 78.4424 293.2 97.9027 293.2 119.6H301.2C301.2 96.4973 295.414 75.5575 283.796 56.8868L277.004 61.1132ZM293.2 119.6C293.2 145.32 286.781 165.987 274.255 181.929L280.545 186.871C294.419 169.213 301.2 146.68 301.2 119.6H293.2ZM274.284 181.892C261.495 197.782 246.701 208.49 229.909 214.214L232.491 221.786C250.899 215.51 266.905 203.818 280.516 186.908L274.284 181.892ZM227.2 218V220.4H235.2V218H227.2ZM229.935 224.195C252.038 231.562 269.333 243.711 282 260.6L288.4 255.8C274.667 237.489 255.962 224.438 232.465 216.605L229.935 224.195ZM282 260.6C294.561 277.348 301 299.042 301 326H309C309 297.758 302.239 274.252 288.4 255.8L282 260.6ZM301 326C301 350.15 295.36 371.42 284.176 389.932L291.024 394.068C303.04 374.18 309 351.45 309 326H301ZM284.164 389.953C273.407 408.009 257.428 422.308 236.037 432.809L239.563 439.991C262.172 428.892 279.393 413.591 291.036 394.047L284.164 389.953ZM236.011 432.822C215.085 443.285 189.926 448.6 160.4 448.6V456.6C190.874 456.6 217.315 451.115 239.589 439.978L236.011 432.822ZM160.4 448.6C113.053 448.6 75.6352 436.969 47.7353 414.106L42.6647 420.294C72.3648 444.631 111.747 456.6 160.4 456.6V448.6ZM47.7565 414.124C20.4738 391.452 5.77122 357.076 4.19774 310.266L-3.79774 310.534C-2.17122 358.924 13.1262 395.748 42.6435 420.276L47.7565 414.124ZM0.200003 314.4H99.8V306.4H0.200003V314.4ZM95.801 310.491C96.2176 328.818 101.45 343.835 111.861 355.113L117.739 349.687C108.95 340.165 104.182 327.182 103.799 310.309L95.801 310.491ZM111.914 355.17C122.492 366.189 137.682 371.4 156.8 371.4V363.4C139.118 363.4 126.308 358.611 117.686 349.63L111.914 355.17ZM156.8 371.4C173.168 371.4 186.34 366.761 195.693 356.962L189.907 351.438C182.46 359.239 171.632 363.4 156.8 363.4V371.4ZM195.691 356.965C205.318 346.9 210 333.85 210 318.2H202C202 332.15 197.882 343.1 189.909 351.435L195.691 356.965ZM210 318.2C210 298.092 203.449 282.84 189.643 273.488L185.157 280.112C196.151 287.56 202 299.908 202 318.2H210ZM189.765 273.574C176.718 264.006 156.253 259.6 129.2 259.6V267.6C155.747 267.6 174.082 271.994 185.035 280.026L189.765 273.574ZM129.2 259.6H110V267.6H129.2V259.6ZM114 263.6V180.2H106V263.6H114ZM110 184.2H129.2V176.2H110V184.2ZM129.2 184.2C149.994 184.2 167.13 180.742 180.323 173.507L176.477 166.493C164.87 172.858 149.206 176.2 129.2 176.2V184.2ZM180.361 173.486C194.723 165.408 201.6 151.261 201.6 132.2H193.6C193.6 149.139 187.677 160.192 176.439 166.514L180.361 173.486ZM201.6 132.2C201.6 117.043 197.369 104.712 188.428 95.7715L182.772 101.428C189.831 108.488 193.6 118.557 193.6 132.2H201.6ZM188.428 95.7715C179.509 86.8517 167.394 82.6 152.6 82.6V90.6C165.806 90.6 175.691 94.3483 182.772 101.428L188.428 95.7715ZM152.6 82.6C136.561 82.6 123.876 87.4908 115.316 97.8524L121.484 102.948C128.124 94.9092 138.239 90.6 152.6 90.6V82.6ZM115.25 97.9348C107.497 107.841 103.072 120.011 101.815 134.248L109.785 134.952C110.928 121.989 114.903 111.359 121.55 102.865L115.25 97.9348ZM105.8 130.6H5.6V138.6H105.8V130.6Z" fill="#3E2C64"/>
    </svg>
    